%TF.GenerationSoftware,KiCad,Pcbnew,8.0.6*%
%TF.CreationDate,2024-11-28T23:01:37+02:00*%
%TF.ProjectId,elektro_bar,656c656b-7472-46f5-9f62-61722e6b6963,rev?*%
%TF.SameCoordinates,Original*%
%TF.FileFunction,Copper,L2,Bot*%
%TF.FilePolarity,Positive*%
%FSLAX46Y46*%
G04 Gerber Fmt 4.6, Leading zero omitted, Abs format (unit mm)*
G04 Created by KiCad (PCBNEW 8.0.6) date 2024-11-28 23:01:37*
%MOMM*%
%LPD*%
G01*
G04 APERTURE LIST*
G04 Aperture macros list*
%AMRoundRect*
0 Rectangle with rounded corners*
0 $1 Rounding radius*
0 $2 $3 $4 $5 $6 $7 $8 $9 X,Y pos of 4 corners*
0 Add a 4 corners polygon primitive as box body*
4,1,4,$2,$3,$4,$5,$6,$7,$8,$9,$2,$3,0*
0 Add four circle primitives for the rounded corners*
1,1,$1+$1,$2,$3*
1,1,$1+$1,$4,$5*
1,1,$1+$1,$6,$7*
1,1,$1+$1,$8,$9*
0 Add four rect primitives between the rounded corners*
20,1,$1+$1,$2,$3,$4,$5,0*
20,1,$1+$1,$4,$5,$6,$7,0*
20,1,$1+$1,$6,$7,$8,$9,0*
20,1,$1+$1,$8,$9,$2,$3,0*%
G04 Aperture macros list end*
%TA.AperFunction,ComponentPad*%
%ADD10R,2.000000X1.905000*%
%TD*%
%TA.AperFunction,ComponentPad*%
%ADD11O,2.000000X1.905000*%
%TD*%
%TA.AperFunction,ComponentPad*%
%ADD12R,1.700000X1.700000*%
%TD*%
%TA.AperFunction,ComponentPad*%
%ADD13R,1.600000X1.600000*%
%TD*%
%TA.AperFunction,ComponentPad*%
%ADD14C,1.600000*%
%TD*%
%TA.AperFunction,ComponentPad*%
%ADD15RoundRect,0.250000X0.725000X-0.600000X0.725000X0.600000X-0.725000X0.600000X-0.725000X-0.600000X0*%
%TD*%
%TA.AperFunction,ComponentPad*%
%ADD16O,1.950000X1.700000*%
%TD*%
%TA.AperFunction,ComponentPad*%
%ADD17R,1.905000X2.000000*%
%TD*%
%TA.AperFunction,ComponentPad*%
%ADD18O,1.905000X2.000000*%
%TD*%
%TA.AperFunction,ComponentPad*%
%ADD19O,1.600000X1.600000*%
%TD*%
%TA.AperFunction,ComponentPad*%
%ADD20O,1.500000X1.050000*%
%TD*%
%TA.AperFunction,ComponentPad*%
%ADD21R,1.500000X1.050000*%
%TD*%
%TA.AperFunction,ComponentPad*%
%ADD22R,3.000000X3.000000*%
%TD*%
%TA.AperFunction,ComponentPad*%
%ADD23C,3.000000*%
%TD*%
%TA.AperFunction,ComponentPad*%
%ADD24R,1.800000X1.800000*%
%TD*%
%TA.AperFunction,ComponentPad*%
%ADD25C,1.800000*%
%TD*%
%TA.AperFunction,ComponentPad*%
%ADD26R,2.200000X2.200000*%
%TD*%
%TA.AperFunction,ComponentPad*%
%ADD27O,2.200000X2.200000*%
%TD*%
%TA.AperFunction,ComponentPad*%
%ADD28R,1.200000X1.200000*%
%TD*%
%TA.AperFunction,ComponentPad*%
%ADD29C,1.200000*%
%TD*%
G04 APERTURE END LIST*
D10*
%TO.P,Q3,1,G*%
%TO.N,Net-(Q1-C)*%
X126746000Y-90678000D03*
D11*
%TO.P,Q3,2,D*%
%TO.N,Net-(J1-Pin_1)*%
X126746000Y-88138000D03*
%TO.P,Q3,3,S*%
%TO.N,GND*%
X126746000Y-85598000D03*
%TD*%
D12*
%TO.P,J4,1,Pin_1*%
%TO.N,GND*%
X134366000Y-70866000D03*
%TD*%
D13*
%TO.P,C7,1*%
%TO.N,+12V*%
X83362800Y-91536600D03*
D14*
%TO.P,C7,2*%
%TO.N,GND*%
X83362800Y-94036600D03*
%TD*%
D15*
%TO.P,J9,1,Pin_1*%
%TO.N,+5V*%
X128524000Y-69008000D03*
D16*
%TO.P,J9,2,Pin_2*%
%TO.N,Net-(J10-Pin_1)*%
X128524000Y-66508000D03*
%TO.P,J9,3,Pin_3*%
%TO.N,GND*%
X128524000Y-64008000D03*
%TD*%
D17*
%TO.P,U2,1,ADJ*%
%TO.N,Net-(D4-A)*%
X93680000Y-85468600D03*
D18*
%TO.P,U2,2,VO*%
%TO.N,+9V*%
X91140000Y-85468600D03*
%TO.P,U2,3,VI*%
%TO.N,+12V*%
X88600000Y-85468600D03*
%TD*%
D17*
%TO.P,U1,1,ADJ*%
%TO.N,Net-(D2-A)*%
X115200000Y-86868600D03*
D18*
%TO.P,U1,2,VO*%
%TO.N,+5V*%
X112660000Y-86868600D03*
%TO.P,U1,3,VI*%
%TO.N,+9V*%
X110120000Y-86868600D03*
%TD*%
D14*
%TO.P,R11,1*%
%TO.N,Net-(J12-Pin_1)*%
X139750800Y-90627200D03*
D19*
%TO.P,R11,2*%
%TO.N,GND*%
X139750800Y-80467200D03*
%TD*%
D14*
%TO.P,R10,1*%
%TO.N,Net-(J11-Pin_1)*%
X136448800Y-80467200D03*
D19*
%TO.P,R10,2*%
%TO.N,Net-(J12-Pin_1)*%
X136448800Y-90627200D03*
%TD*%
%TO.P,R9,2*%
%TO.N,Net-(J7-Pin_1)*%
X148651000Y-98130000D03*
D14*
%TO.P,R9,1*%
%TO.N,GND*%
X138491000Y-98130000D03*
%TD*%
D19*
%TO.P,R8,2*%
%TO.N,Net-(Q1-B)*%
X138513000Y-94828000D03*
D14*
%TO.P,R8,1*%
%TO.N,Net-(J7-Pin_1)*%
X148673000Y-94828000D03*
%TD*%
D19*
%TO.P,R7,2*%
%TO.N,Net-(Q1-C)*%
X133161000Y-90652000D03*
D14*
%TO.P,R7,1*%
%TO.N,Net-(J8-Pin_1)*%
X133161000Y-80492000D03*
%TD*%
%TO.P,R6,1*%
%TO.N,+5V*%
X122936000Y-82392600D03*
D19*
%TO.P,R6,2*%
%TO.N,Net-(D6-A)*%
X122936000Y-92552600D03*
%TD*%
D14*
%TO.P,R5,1*%
%TO.N,+9V*%
X101600000Y-82308600D03*
D19*
%TO.P,R5,2*%
%TO.N,Net-(D5-A)*%
X101600000Y-92468600D03*
%TD*%
D14*
%TO.P,R4,1*%
%TO.N,+9V*%
X90525000Y-88188600D03*
D19*
%TO.P,R4,2*%
%TO.N,Net-(D4-A)*%
X90525000Y-98348600D03*
%TD*%
D14*
%TO.P,R3,1*%
%TO.N,Net-(D4-A)*%
X93675000Y-88188600D03*
D19*
%TO.P,R3,2*%
%TO.N,GND*%
X93675000Y-98348600D03*
%TD*%
D14*
%TO.P,R2,1*%
%TO.N,Net-(D2-A)*%
X115062000Y-89688600D03*
D19*
%TO.P,R2,2*%
%TO.N,GND*%
X115062000Y-99848600D03*
%TD*%
%TO.P,R1,2*%
%TO.N,Net-(D2-A)*%
X111760000Y-99848600D03*
D14*
%TO.P,R1,1*%
%TO.N,+5V*%
X111760000Y-89688600D03*
%TD*%
D20*
%TO.P,Q1,3,E*%
%TO.N,GND*%
X133099000Y-96012000D03*
%TO.P,Q1,2,B*%
%TO.N,Net-(Q1-B)*%
X133099000Y-94742000D03*
D21*
%TO.P,Q1,1,C*%
%TO.N,Net-(Q1-C)*%
X133099000Y-93472000D03*
%TD*%
D12*
%TO.P,J12,1,Pin_1*%
%TO.N,Net-(J12-Pin_1)*%
X144587000Y-90605200D03*
%TD*%
%TO.P,J11,1,Pin_1*%
%TO.N,Net-(J11-Pin_1)*%
X137475000Y-77470000D03*
%TD*%
%TO.P,J10,1,Pin_1*%
%TO.N,Net-(J10-Pin_1)*%
X134366000Y-66548000D03*
%TD*%
%TO.P,J8,1,Pin_1*%
%TO.N,Net-(J8-Pin_1)*%
X133248400Y-77470000D03*
%TD*%
%TO.P,J7,1,Pin_1*%
%TO.N,Net-(J7-Pin_1)*%
X148651000Y-90605200D03*
%TD*%
%TO.P,J6,1,Pin_1*%
%TO.N,GND*%
X141732000Y-77470000D03*
%TD*%
D22*
%TO.P,J5,1,Pin_1*%
%TO.N,+9V*%
X91060000Y-65024000D03*
D23*
%TO.P,J5,2,Pin_2*%
%TO.N,GND*%
X96140000Y-65024000D03*
%TD*%
D22*
%TO.P,J3,1,Pin_1*%
%TO.N,+12V*%
X74400000Y-85468600D03*
D23*
%TO.P,J3,2,Pin_2*%
%TO.N,GND*%
X74400000Y-80388600D03*
%TD*%
D22*
%TO.P,J2,1,Pin_1*%
%TO.N,+5V*%
X112700000Y-65024000D03*
D23*
%TO.P,J2,2,Pin_2*%
%TO.N,GND*%
X117780000Y-65024000D03*
%TD*%
D12*
%TO.P,J1,1,Pin_1*%
%TO.N,Net-(J1-Pin_1)*%
X144576800Y-86642800D03*
%TD*%
D24*
%TO.P,D6,1,K*%
%TO.N,GND*%
X124714000Y-101447600D03*
D25*
%TO.P,D6,2,A*%
%TO.N,Net-(D6-A)*%
X124714000Y-98907600D03*
%TD*%
D24*
%TO.P,D5,1,K*%
%TO.N,GND*%
X100584000Y-101508600D03*
D25*
%TO.P,D5,2,A*%
%TO.N,Net-(D5-A)*%
X100584000Y-98968600D03*
%TD*%
D26*
%TO.P,D4,1,K*%
%TO.N,+9V*%
X98200000Y-95548600D03*
D27*
%TO.P,D4,2,A*%
%TO.N,Net-(D4-A)*%
X98200000Y-85388600D03*
%TD*%
D26*
%TO.P,D3,1,K*%
%TO.N,+12V*%
X84320000Y-80368600D03*
D27*
%TO.P,D3,2,A*%
%TO.N,+9V*%
X94480000Y-80368600D03*
%TD*%
D26*
%TO.P,D2,1,K*%
%TO.N,+5V*%
X119600000Y-96948600D03*
D27*
%TO.P,D2,2,A*%
%TO.N,Net-(D2-A)*%
X119600000Y-86788600D03*
%TD*%
D26*
%TO.P,D1,1,K*%
%TO.N,+9V*%
X105600000Y-85108600D03*
D27*
%TO.P,D1,2,A*%
%TO.N,+5V*%
X105600000Y-95268600D03*
%TD*%
D28*
%TO.P,C6,1*%
%TO.N,+9V*%
X105660000Y-82323600D03*
D29*
%TO.P,C6,2*%
%TO.N,GND*%
X105660000Y-80323600D03*
%TD*%
D14*
%TO.P,C5,2*%
%TO.N,GND*%
X86614000Y-101950600D03*
D13*
%TO.P,C5,1*%
%TO.N,Net-(D4-A)*%
X86614000Y-99950600D03*
%TD*%
D14*
%TO.P,C4,1*%
%TO.N,+12V*%
X81000000Y-85318600D03*
%TO.P,C4,2*%
%TO.N,GND*%
X81000000Y-82818600D03*
%TD*%
%TO.P,C3,1*%
%TO.N,+9V*%
X110000000Y-82318600D03*
%TO.P,C3,2*%
%TO.N,GND*%
X110000000Y-79818600D03*
%TD*%
D13*
%TO.P,C2,1*%
%TO.N,Net-(D2-A)*%
X107188000Y-99968600D03*
D14*
%TO.P,C2,2*%
%TO.N,GND*%
X107188000Y-101968600D03*
%TD*%
D28*
%TO.P,C1,1*%
%TO.N,+5V*%
X123019600Y-78740000D03*
D29*
%TO.P,C1,2*%
%TO.N,GND*%
X121019600Y-78740000D03*
%TD*%
M02*
