M48
; DRILL file {KiCad 8.0.6} date 2024-11-28T23:01:39+0200
; FORMAT={-:-/ absolute / inch / decimal}
; #@! TF.CreationDate,2024-11-28T23:01:39+02:00
; #@! TF.GenerationSoftware,Kicad,Pcbnew,8.0.6
; #@! TF.FileFunction,Plated,1,2,PTH
FMAT,2
INCH
; #@! TA.AperFunction,Plated,PTH,ComponentDrill
T1C0.0236
; #@! TA.AperFunction,Plated,PTH,ComponentDrill
T2C0.0295
; #@! TA.AperFunction,Plated,PTH,ComponentDrill
T3C0.0315
; #@! TA.AperFunction,Plated,PTH,ComponentDrill
T4C0.0354
; #@! TA.AperFunction,Plated,PTH,ComponentDrill
T5C0.0374
; #@! TA.AperFunction,Plated,PTH,ComponentDrill
T6C0.0394
; #@! TA.AperFunction,Plated,PTH,ComponentDrill
T7C0.0433
; #@! TA.AperFunction,Plated,PTH,ComponentDrill
T8C0.0598
%
G90
G05
T1
X4.1598Y-3.1623
X4.1598Y-3.2411
X4.7646Y-3.1
X4.8433Y-3.1
T2
X5.2401Y-3.68
X5.2401Y-3.73
X5.2401Y-3.78
T3
X3.189Y-3.2606
X3.189Y-3.359
X3.282Y-3.6038
X3.282Y-3.7022
X3.41Y-3.9351
X3.41Y-4.0138
X3.564Y-3.472
X3.564Y-3.872
X3.688Y-3.472
X3.688Y-3.872
X4.0Y-3.2405
X4.0Y-3.6405
X4.22Y-3.9358
X4.22Y-4.0145
X4.3307Y-3.1425
X4.3307Y-3.2409
X4.4Y-3.531
X4.4Y-3.931
X4.53Y-3.531
X4.53Y-3.931
X4.84Y-3.2438
X4.84Y-3.6438
X5.2426Y-3.169
X5.2426Y-3.569
X5.372Y-3.168
X5.372Y-3.568
X5.4524Y-3.8634
X5.4533Y-3.7334
X5.502Y-3.168
X5.502Y-3.568
X5.8524Y-3.8634
X5.8533Y-3.7334
T4
X3.96Y-3.8964
X3.96Y-3.9964
X4.91Y-3.894
X4.91Y-3.994
T5
X5.06Y-2.52
X5.06Y-2.6184
X5.06Y-2.7169
T6
X5.246Y-3.05
X5.29Y-2.62
X5.29Y-2.79
X5.4124Y-3.05
X5.58Y-3.05
X5.692Y-3.4111
X5.6924Y-3.5671
X5.8524Y-3.5671
T7
X3.3197Y-3.1641
X3.4882Y-3.3649
X3.5882Y-3.3649
X3.6882Y-3.3649
X3.7197Y-3.1641
X3.8661Y-3.3618
X3.8661Y-3.7618
X4.1575Y-3.3507
X4.1575Y-3.7507
X4.3354Y-3.42
X4.4354Y-3.42
X4.5354Y-3.42
X4.7087Y-3.4169
X4.7087Y-3.8169
X4.99Y-3.37
X4.99Y-3.47
X4.99Y-3.57
T8
X2.9291Y-3.1649
X2.9291Y-3.3649
X3.585Y-2.56
X3.785Y-2.56
X4.437Y-2.56
X4.637Y-2.56
M30
