%TF.GenerationSoftware,KiCad,Pcbnew,9.0.0*%
%TF.CreationDate,2025-04-16T15:55:05+03:00*%
%TF.ProjectId,power_detector,706f7765-725f-4646-9574-6563746f722e,rev?*%
%TF.SameCoordinates,Original*%
%TF.FileFunction,Legend,Top*%
%TF.FilePolarity,Positive*%
%FSLAX46Y46*%
G04 Gerber Fmt 4.6, Leading zero omitted, Abs format (unit mm)*
G04 Created by KiCad (PCBNEW 9.0.0) date 2025-04-16 15:55:05*
%MOMM*%
%LPD*%
G01*
G04 APERTURE LIST*
%ADD10C,0.100000*%
%ADD11C,0.150000*%
%ADD12C,0.120000*%
%ADD13C,0.325000*%
G04 APERTURE END LIST*
D10*
X52805684Y-80136466D02*
X53567589Y-80136466D01*
X53186636Y-80517419D02*
X53186636Y-79755514D01*
X52831084Y-75031066D02*
X53592989Y-75031066D01*
D11*
X54703742Y-86719580D02*
X54656123Y-86767200D01*
X54656123Y-86767200D02*
X54513266Y-86814819D01*
X54513266Y-86814819D02*
X54418028Y-86814819D01*
X54418028Y-86814819D02*
X54275171Y-86767200D01*
X54275171Y-86767200D02*
X54179933Y-86671961D01*
X54179933Y-86671961D02*
X54132314Y-86576723D01*
X54132314Y-86576723D02*
X54084695Y-86386247D01*
X54084695Y-86386247D02*
X54084695Y-86243390D01*
X54084695Y-86243390D02*
X54132314Y-86052914D01*
X54132314Y-86052914D02*
X54179933Y-85957676D01*
X54179933Y-85957676D02*
X54275171Y-85862438D01*
X54275171Y-85862438D02*
X54418028Y-85814819D01*
X54418028Y-85814819D02*
X54513266Y-85814819D01*
X54513266Y-85814819D02*
X54656123Y-85862438D01*
X54656123Y-85862438D02*
X54703742Y-85910057D01*
X55656123Y-86814819D02*
X55084695Y-86814819D01*
X55370409Y-86814819D02*
X55370409Y-85814819D01*
X55370409Y-85814819D02*
X55275171Y-85957676D01*
X55275171Y-85957676D02*
X55179933Y-86052914D01*
X55179933Y-86052914D02*
X55084695Y-86100533D01*
X56037076Y-85910057D02*
X56084695Y-85862438D01*
X56084695Y-85862438D02*
X56179933Y-85814819D01*
X56179933Y-85814819D02*
X56418028Y-85814819D01*
X56418028Y-85814819D02*
X56513266Y-85862438D01*
X56513266Y-85862438D02*
X56560885Y-85910057D01*
X56560885Y-85910057D02*
X56608504Y-86005295D01*
X56608504Y-86005295D02*
X56608504Y-86100533D01*
X56608504Y-86100533D02*
X56560885Y-86243390D01*
X56560885Y-86243390D02*
X55989457Y-86814819D01*
X55989457Y-86814819D02*
X56608504Y-86814819D01*
X55891133Y-71310119D02*
X55557800Y-70833928D01*
X55319705Y-71310119D02*
X55319705Y-70310119D01*
X55319705Y-70310119D02*
X55700657Y-70310119D01*
X55700657Y-70310119D02*
X55795895Y-70357738D01*
X55795895Y-70357738D02*
X55843514Y-70405357D01*
X55843514Y-70405357D02*
X55891133Y-70500595D01*
X55891133Y-70500595D02*
X55891133Y-70643452D01*
X55891133Y-70643452D02*
X55843514Y-70738690D01*
X55843514Y-70738690D02*
X55795895Y-70786309D01*
X55795895Y-70786309D02*
X55700657Y-70833928D01*
X55700657Y-70833928D02*
X55319705Y-70833928D01*
X56795895Y-70310119D02*
X56319705Y-70310119D01*
X56319705Y-70310119D02*
X56272086Y-70786309D01*
X56272086Y-70786309D02*
X56319705Y-70738690D01*
X56319705Y-70738690D02*
X56414943Y-70691071D01*
X56414943Y-70691071D02*
X56653038Y-70691071D01*
X56653038Y-70691071D02*
X56748276Y-70738690D01*
X56748276Y-70738690D02*
X56795895Y-70786309D01*
X56795895Y-70786309D02*
X56843514Y-70881547D01*
X56843514Y-70881547D02*
X56843514Y-71119642D01*
X56843514Y-71119642D02*
X56795895Y-71214880D01*
X56795895Y-71214880D02*
X56748276Y-71262500D01*
X56748276Y-71262500D02*
X56653038Y-71310119D01*
X56653038Y-71310119D02*
X56414943Y-71310119D01*
X56414943Y-71310119D02*
X56319705Y-71262500D01*
X56319705Y-71262500D02*
X56272086Y-71214880D01*
X54830742Y-90123180D02*
X54783123Y-90170800D01*
X54783123Y-90170800D02*
X54640266Y-90218419D01*
X54640266Y-90218419D02*
X54545028Y-90218419D01*
X54545028Y-90218419D02*
X54402171Y-90170800D01*
X54402171Y-90170800D02*
X54306933Y-90075561D01*
X54306933Y-90075561D02*
X54259314Y-89980323D01*
X54259314Y-89980323D02*
X54211695Y-89789847D01*
X54211695Y-89789847D02*
X54211695Y-89646990D01*
X54211695Y-89646990D02*
X54259314Y-89456514D01*
X54259314Y-89456514D02*
X54306933Y-89361276D01*
X54306933Y-89361276D02*
X54402171Y-89266038D01*
X54402171Y-89266038D02*
X54545028Y-89218419D01*
X54545028Y-89218419D02*
X54640266Y-89218419D01*
X54640266Y-89218419D02*
X54783123Y-89266038D01*
X54783123Y-89266038D02*
X54830742Y-89313657D01*
X55783123Y-90218419D02*
X55211695Y-90218419D01*
X55497409Y-90218419D02*
X55497409Y-89218419D01*
X55497409Y-89218419D02*
X55402171Y-89361276D01*
X55402171Y-89361276D02*
X55306933Y-89456514D01*
X55306933Y-89456514D02*
X55211695Y-89504133D01*
X56735504Y-90218419D02*
X56164076Y-90218419D01*
X56449790Y-90218419D02*
X56449790Y-89218419D01*
X56449790Y-89218419D02*
X56354552Y-89361276D01*
X56354552Y-89361276D02*
X56259314Y-89456514D01*
X56259314Y-89456514D02*
X56164076Y-89504133D01*
X62444333Y-64621580D02*
X62396714Y-64669200D01*
X62396714Y-64669200D02*
X62253857Y-64716819D01*
X62253857Y-64716819D02*
X62158619Y-64716819D01*
X62158619Y-64716819D02*
X62015762Y-64669200D01*
X62015762Y-64669200D02*
X61920524Y-64573961D01*
X61920524Y-64573961D02*
X61872905Y-64478723D01*
X61872905Y-64478723D02*
X61825286Y-64288247D01*
X61825286Y-64288247D02*
X61825286Y-64145390D01*
X61825286Y-64145390D02*
X61872905Y-63954914D01*
X61872905Y-63954914D02*
X61920524Y-63859676D01*
X61920524Y-63859676D02*
X62015762Y-63764438D01*
X62015762Y-63764438D02*
X62158619Y-63716819D01*
X62158619Y-63716819D02*
X62253857Y-63716819D01*
X62253857Y-63716819D02*
X62396714Y-63764438D01*
X62396714Y-63764438D02*
X62444333Y-63812057D01*
X63301476Y-64050152D02*
X63301476Y-64716819D01*
X63063381Y-63669200D02*
X62825286Y-64383485D01*
X62825286Y-64383485D02*
X63444333Y-64383485D01*
X55179933Y-64615219D02*
X54846600Y-64139028D01*
X54608505Y-64615219D02*
X54608505Y-63615219D01*
X54608505Y-63615219D02*
X54989457Y-63615219D01*
X54989457Y-63615219D02*
X55084695Y-63662838D01*
X55084695Y-63662838D02*
X55132314Y-63710457D01*
X55132314Y-63710457D02*
X55179933Y-63805695D01*
X55179933Y-63805695D02*
X55179933Y-63948552D01*
X55179933Y-63948552D02*
X55132314Y-64043790D01*
X55132314Y-64043790D02*
X55084695Y-64091409D01*
X55084695Y-64091409D02*
X54989457Y-64139028D01*
X54989457Y-64139028D02*
X54608505Y-64139028D01*
X55513267Y-63615219D02*
X56132314Y-63615219D01*
X56132314Y-63615219D02*
X55798981Y-63996171D01*
X55798981Y-63996171D02*
X55941838Y-63996171D01*
X55941838Y-63996171D02*
X56037076Y-64043790D01*
X56037076Y-64043790D02*
X56084695Y-64091409D01*
X56084695Y-64091409D02*
X56132314Y-64186647D01*
X56132314Y-64186647D02*
X56132314Y-64424742D01*
X56132314Y-64424742D02*
X56084695Y-64519980D01*
X56084695Y-64519980D02*
X56037076Y-64567600D01*
X56037076Y-64567600D02*
X55941838Y-64615219D01*
X55941838Y-64615219D02*
X55656124Y-64615219D01*
X55656124Y-64615219D02*
X55560886Y-64567600D01*
X55560886Y-64567600D02*
X55513267Y-64519980D01*
X62495133Y-63351580D02*
X62447514Y-63399200D01*
X62447514Y-63399200D02*
X62304657Y-63446819D01*
X62304657Y-63446819D02*
X62209419Y-63446819D01*
X62209419Y-63446819D02*
X62066562Y-63399200D01*
X62066562Y-63399200D02*
X61971324Y-63303961D01*
X61971324Y-63303961D02*
X61923705Y-63208723D01*
X61923705Y-63208723D02*
X61876086Y-63018247D01*
X61876086Y-63018247D02*
X61876086Y-62875390D01*
X61876086Y-62875390D02*
X61923705Y-62684914D01*
X61923705Y-62684914D02*
X61971324Y-62589676D01*
X61971324Y-62589676D02*
X62066562Y-62494438D01*
X62066562Y-62494438D02*
X62209419Y-62446819D01*
X62209419Y-62446819D02*
X62304657Y-62446819D01*
X62304657Y-62446819D02*
X62447514Y-62494438D01*
X62447514Y-62494438D02*
X62495133Y-62542057D01*
X63399895Y-62446819D02*
X62923705Y-62446819D01*
X62923705Y-62446819D02*
X62876086Y-62923009D01*
X62876086Y-62923009D02*
X62923705Y-62875390D01*
X62923705Y-62875390D02*
X63018943Y-62827771D01*
X63018943Y-62827771D02*
X63257038Y-62827771D01*
X63257038Y-62827771D02*
X63352276Y-62875390D01*
X63352276Y-62875390D02*
X63399895Y-62923009D01*
X63399895Y-62923009D02*
X63447514Y-63018247D01*
X63447514Y-63018247D02*
X63447514Y-63256342D01*
X63447514Y-63256342D02*
X63399895Y-63351580D01*
X63399895Y-63351580D02*
X63352276Y-63399200D01*
X63352276Y-63399200D02*
X63257038Y-63446819D01*
X63257038Y-63446819D02*
X63018943Y-63446819D01*
X63018943Y-63446819D02*
X62923705Y-63399200D01*
X62923705Y-63399200D02*
X62876086Y-63351580D01*
X56272133Y-83690619D02*
X55938800Y-83214428D01*
X55700705Y-83690619D02*
X55700705Y-82690619D01*
X55700705Y-82690619D02*
X56081657Y-82690619D01*
X56081657Y-82690619D02*
X56176895Y-82738238D01*
X56176895Y-82738238D02*
X56224514Y-82785857D01*
X56224514Y-82785857D02*
X56272133Y-82881095D01*
X56272133Y-82881095D02*
X56272133Y-83023952D01*
X56272133Y-83023952D02*
X56224514Y-83119190D01*
X56224514Y-83119190D02*
X56176895Y-83166809D01*
X56176895Y-83166809D02*
X56081657Y-83214428D01*
X56081657Y-83214428D02*
X55700705Y-83214428D01*
X56748324Y-83690619D02*
X56938800Y-83690619D01*
X56938800Y-83690619D02*
X57034038Y-83643000D01*
X57034038Y-83643000D02*
X57081657Y-83595380D01*
X57081657Y-83595380D02*
X57176895Y-83452523D01*
X57176895Y-83452523D02*
X57224514Y-83262047D01*
X57224514Y-83262047D02*
X57224514Y-82881095D01*
X57224514Y-82881095D02*
X57176895Y-82785857D01*
X57176895Y-82785857D02*
X57129276Y-82738238D01*
X57129276Y-82738238D02*
X57034038Y-82690619D01*
X57034038Y-82690619D02*
X56843562Y-82690619D01*
X56843562Y-82690619D02*
X56748324Y-82738238D01*
X56748324Y-82738238D02*
X56700705Y-82785857D01*
X56700705Y-82785857D02*
X56653086Y-82881095D01*
X56653086Y-82881095D02*
X56653086Y-83119190D01*
X56653086Y-83119190D02*
X56700705Y-83214428D01*
X56700705Y-83214428D02*
X56748324Y-83262047D01*
X56748324Y-83262047D02*
X56843562Y-83309666D01*
X56843562Y-83309666D02*
X57034038Y-83309666D01*
X57034038Y-83309666D02*
X57129276Y-83262047D01*
X57129276Y-83262047D02*
X57176895Y-83214428D01*
X57176895Y-83214428D02*
X57224514Y-83119190D01*
X53132819Y-88279266D02*
X52656628Y-88612599D01*
X53132819Y-88850694D02*
X52132819Y-88850694D01*
X52132819Y-88850694D02*
X52132819Y-88469742D01*
X52132819Y-88469742D02*
X52180438Y-88374504D01*
X52180438Y-88374504D02*
X52228057Y-88326885D01*
X52228057Y-88326885D02*
X52323295Y-88279266D01*
X52323295Y-88279266D02*
X52466152Y-88279266D01*
X52466152Y-88279266D02*
X52561390Y-88326885D01*
X52561390Y-88326885D02*
X52609009Y-88374504D01*
X52609009Y-88374504D02*
X52656628Y-88469742D01*
X52656628Y-88469742D02*
X52656628Y-88850694D01*
X52561390Y-87707837D02*
X52513771Y-87803075D01*
X52513771Y-87803075D02*
X52466152Y-87850694D01*
X52466152Y-87850694D02*
X52370914Y-87898313D01*
X52370914Y-87898313D02*
X52323295Y-87898313D01*
X52323295Y-87898313D02*
X52228057Y-87850694D01*
X52228057Y-87850694D02*
X52180438Y-87803075D01*
X52180438Y-87803075D02*
X52132819Y-87707837D01*
X52132819Y-87707837D02*
X52132819Y-87517361D01*
X52132819Y-87517361D02*
X52180438Y-87422123D01*
X52180438Y-87422123D02*
X52228057Y-87374504D01*
X52228057Y-87374504D02*
X52323295Y-87326885D01*
X52323295Y-87326885D02*
X52370914Y-87326885D01*
X52370914Y-87326885D02*
X52466152Y-87374504D01*
X52466152Y-87374504D02*
X52513771Y-87422123D01*
X52513771Y-87422123D02*
X52561390Y-87517361D01*
X52561390Y-87517361D02*
X52561390Y-87707837D01*
X52561390Y-87707837D02*
X52609009Y-87803075D01*
X52609009Y-87803075D02*
X52656628Y-87850694D01*
X52656628Y-87850694D02*
X52751866Y-87898313D01*
X52751866Y-87898313D02*
X52942342Y-87898313D01*
X52942342Y-87898313D02*
X53037580Y-87850694D01*
X53037580Y-87850694D02*
X53085200Y-87803075D01*
X53085200Y-87803075D02*
X53132819Y-87707837D01*
X53132819Y-87707837D02*
X53132819Y-87517361D01*
X53132819Y-87517361D02*
X53085200Y-87422123D01*
X53085200Y-87422123D02*
X53037580Y-87374504D01*
X53037580Y-87374504D02*
X52942342Y-87326885D01*
X52942342Y-87326885D02*
X52751866Y-87326885D01*
X52751866Y-87326885D02*
X52656628Y-87374504D01*
X52656628Y-87374504D02*
X52609009Y-87422123D01*
X52609009Y-87422123D02*
X52561390Y-87517361D01*
X56094333Y-63446819D02*
X55761000Y-62970628D01*
X55522905Y-63446819D02*
X55522905Y-62446819D01*
X55522905Y-62446819D02*
X55903857Y-62446819D01*
X55903857Y-62446819D02*
X55999095Y-62494438D01*
X55999095Y-62494438D02*
X56046714Y-62542057D01*
X56046714Y-62542057D02*
X56094333Y-62637295D01*
X56094333Y-62637295D02*
X56094333Y-62780152D01*
X56094333Y-62780152D02*
X56046714Y-62875390D01*
X56046714Y-62875390D02*
X55999095Y-62923009D01*
X55999095Y-62923009D02*
X55903857Y-62970628D01*
X55903857Y-62970628D02*
X55522905Y-62970628D01*
X56475286Y-62542057D02*
X56522905Y-62494438D01*
X56522905Y-62494438D02*
X56618143Y-62446819D01*
X56618143Y-62446819D02*
X56856238Y-62446819D01*
X56856238Y-62446819D02*
X56951476Y-62494438D01*
X56951476Y-62494438D02*
X56999095Y-62542057D01*
X56999095Y-62542057D02*
X57046714Y-62637295D01*
X57046714Y-62637295D02*
X57046714Y-62732533D01*
X57046714Y-62732533D02*
X56999095Y-62875390D01*
X56999095Y-62875390D02*
X56427667Y-63446819D01*
X56427667Y-63446819D02*
X57046714Y-63446819D01*
X53132819Y-67984666D02*
X52656628Y-68317999D01*
X53132819Y-68556094D02*
X52132819Y-68556094D01*
X52132819Y-68556094D02*
X52132819Y-68175142D01*
X52132819Y-68175142D02*
X52180438Y-68079904D01*
X52180438Y-68079904D02*
X52228057Y-68032285D01*
X52228057Y-68032285D02*
X52323295Y-67984666D01*
X52323295Y-67984666D02*
X52466152Y-67984666D01*
X52466152Y-67984666D02*
X52561390Y-68032285D01*
X52561390Y-68032285D02*
X52609009Y-68079904D01*
X52609009Y-68079904D02*
X52656628Y-68175142D01*
X52656628Y-68175142D02*
X52656628Y-68556094D01*
X53132819Y-67032285D02*
X53132819Y-67603713D01*
X53132819Y-67317999D02*
X52132819Y-67317999D01*
X52132819Y-67317999D02*
X52275676Y-67413237D01*
X52275676Y-67413237D02*
X52370914Y-67508475D01*
X52370914Y-67508475D02*
X52418533Y-67603713D01*
X54322742Y-84782819D02*
X53989409Y-84306628D01*
X53751314Y-84782819D02*
X53751314Y-83782819D01*
X53751314Y-83782819D02*
X54132266Y-83782819D01*
X54132266Y-83782819D02*
X54227504Y-83830438D01*
X54227504Y-83830438D02*
X54275123Y-83878057D01*
X54275123Y-83878057D02*
X54322742Y-83973295D01*
X54322742Y-83973295D02*
X54322742Y-84116152D01*
X54322742Y-84116152D02*
X54275123Y-84211390D01*
X54275123Y-84211390D02*
X54227504Y-84259009D01*
X54227504Y-84259009D02*
X54132266Y-84306628D01*
X54132266Y-84306628D02*
X53751314Y-84306628D01*
X55275123Y-84782819D02*
X54703695Y-84782819D01*
X54989409Y-84782819D02*
X54989409Y-83782819D01*
X54989409Y-83782819D02*
X54894171Y-83925676D01*
X54894171Y-83925676D02*
X54798933Y-84020914D01*
X54798933Y-84020914D02*
X54703695Y-84068533D01*
X55894171Y-83782819D02*
X55989409Y-83782819D01*
X55989409Y-83782819D02*
X56084647Y-83830438D01*
X56084647Y-83830438D02*
X56132266Y-83878057D01*
X56132266Y-83878057D02*
X56179885Y-83973295D01*
X56179885Y-83973295D02*
X56227504Y-84163771D01*
X56227504Y-84163771D02*
X56227504Y-84401866D01*
X56227504Y-84401866D02*
X56179885Y-84592342D01*
X56179885Y-84592342D02*
X56132266Y-84687580D01*
X56132266Y-84687580D02*
X56084647Y-84735200D01*
X56084647Y-84735200D02*
X55989409Y-84782819D01*
X55989409Y-84782819D02*
X55894171Y-84782819D01*
X55894171Y-84782819D02*
X55798933Y-84735200D01*
X55798933Y-84735200D02*
X55751314Y-84687580D01*
X55751314Y-84687580D02*
X55703695Y-84592342D01*
X55703695Y-84592342D02*
X55656076Y-84401866D01*
X55656076Y-84401866D02*
X55656076Y-84163771D01*
X55656076Y-84163771D02*
X55703695Y-83973295D01*
X55703695Y-83973295D02*
X55751314Y-83878057D01*
X55751314Y-83878057D02*
X55798933Y-83830438D01*
X55798933Y-83830438D02*
X55894171Y-83782819D01*
X62041742Y-84789180D02*
X61994123Y-84836800D01*
X61994123Y-84836800D02*
X61851266Y-84884419D01*
X61851266Y-84884419D02*
X61756028Y-84884419D01*
X61756028Y-84884419D02*
X61613171Y-84836800D01*
X61613171Y-84836800D02*
X61517933Y-84741561D01*
X61517933Y-84741561D02*
X61470314Y-84646323D01*
X61470314Y-84646323D02*
X61422695Y-84455847D01*
X61422695Y-84455847D02*
X61422695Y-84312990D01*
X61422695Y-84312990D02*
X61470314Y-84122514D01*
X61470314Y-84122514D02*
X61517933Y-84027276D01*
X61517933Y-84027276D02*
X61613171Y-83932038D01*
X61613171Y-83932038D02*
X61756028Y-83884419D01*
X61756028Y-83884419D02*
X61851266Y-83884419D01*
X61851266Y-83884419D02*
X61994123Y-83932038D01*
X61994123Y-83932038D02*
X62041742Y-83979657D01*
X62994123Y-84884419D02*
X62422695Y-84884419D01*
X62708409Y-84884419D02*
X62708409Y-83884419D01*
X62708409Y-83884419D02*
X62613171Y-84027276D01*
X62613171Y-84027276D02*
X62517933Y-84122514D01*
X62517933Y-84122514D02*
X62422695Y-84170133D01*
X63327457Y-83884419D02*
X63946504Y-83884419D01*
X63946504Y-83884419D02*
X63613171Y-84265371D01*
X63613171Y-84265371D02*
X63756028Y-84265371D01*
X63756028Y-84265371D02*
X63851266Y-84312990D01*
X63851266Y-84312990D02*
X63898885Y-84360609D01*
X63898885Y-84360609D02*
X63946504Y-84455847D01*
X63946504Y-84455847D02*
X63946504Y-84693942D01*
X63946504Y-84693942D02*
X63898885Y-84789180D01*
X63898885Y-84789180D02*
X63851266Y-84836800D01*
X63851266Y-84836800D02*
X63756028Y-84884419D01*
X63756028Y-84884419D02*
X63470314Y-84884419D01*
X63470314Y-84884419D02*
X63375076Y-84836800D01*
X63375076Y-84836800D02*
X63327457Y-84789180D01*
X62037933Y-91748780D02*
X61990314Y-91796400D01*
X61990314Y-91796400D02*
X61847457Y-91844019D01*
X61847457Y-91844019D02*
X61752219Y-91844019D01*
X61752219Y-91844019D02*
X61609362Y-91796400D01*
X61609362Y-91796400D02*
X61514124Y-91701161D01*
X61514124Y-91701161D02*
X61466505Y-91605923D01*
X61466505Y-91605923D02*
X61418886Y-91415447D01*
X61418886Y-91415447D02*
X61418886Y-91272590D01*
X61418886Y-91272590D02*
X61466505Y-91082114D01*
X61466505Y-91082114D02*
X61514124Y-90986876D01*
X61514124Y-90986876D02*
X61609362Y-90891638D01*
X61609362Y-90891638D02*
X61752219Y-90844019D01*
X61752219Y-90844019D02*
X61847457Y-90844019D01*
X61847457Y-90844019D02*
X61990314Y-90891638D01*
X61990314Y-90891638D02*
X62037933Y-90939257D01*
X62514124Y-91844019D02*
X62704600Y-91844019D01*
X62704600Y-91844019D02*
X62799838Y-91796400D01*
X62799838Y-91796400D02*
X62847457Y-91748780D01*
X62847457Y-91748780D02*
X62942695Y-91605923D01*
X62942695Y-91605923D02*
X62990314Y-91415447D01*
X62990314Y-91415447D02*
X62990314Y-91034495D01*
X62990314Y-91034495D02*
X62942695Y-90939257D01*
X62942695Y-90939257D02*
X62895076Y-90891638D01*
X62895076Y-90891638D02*
X62799838Y-90844019D01*
X62799838Y-90844019D02*
X62609362Y-90844019D01*
X62609362Y-90844019D02*
X62514124Y-90891638D01*
X62514124Y-90891638D02*
X62466505Y-90939257D01*
X62466505Y-90939257D02*
X62418886Y-91034495D01*
X62418886Y-91034495D02*
X62418886Y-91272590D01*
X62418886Y-91272590D02*
X62466505Y-91367828D01*
X62466505Y-91367828D02*
X62514124Y-91415447D01*
X62514124Y-91415447D02*
X62609362Y-91463066D01*
X62609362Y-91463066D02*
X62799838Y-91463066D01*
X62799838Y-91463066D02*
X62895076Y-91415447D01*
X62895076Y-91415447D02*
X62942695Y-91367828D01*
X62942695Y-91367828D02*
X62990314Y-91272590D01*
X61989733Y-71377980D02*
X61942114Y-71425600D01*
X61942114Y-71425600D02*
X61799257Y-71473219D01*
X61799257Y-71473219D02*
X61704019Y-71473219D01*
X61704019Y-71473219D02*
X61561162Y-71425600D01*
X61561162Y-71425600D02*
X61465924Y-71330361D01*
X61465924Y-71330361D02*
X61418305Y-71235123D01*
X61418305Y-71235123D02*
X61370686Y-71044647D01*
X61370686Y-71044647D02*
X61370686Y-70901790D01*
X61370686Y-70901790D02*
X61418305Y-70711314D01*
X61418305Y-70711314D02*
X61465924Y-70616076D01*
X61465924Y-70616076D02*
X61561162Y-70520838D01*
X61561162Y-70520838D02*
X61704019Y-70473219D01*
X61704019Y-70473219D02*
X61799257Y-70473219D01*
X61799257Y-70473219D02*
X61942114Y-70520838D01*
X61942114Y-70520838D02*
X61989733Y-70568457D01*
X62370686Y-70568457D02*
X62418305Y-70520838D01*
X62418305Y-70520838D02*
X62513543Y-70473219D01*
X62513543Y-70473219D02*
X62751638Y-70473219D01*
X62751638Y-70473219D02*
X62846876Y-70520838D01*
X62846876Y-70520838D02*
X62894495Y-70568457D01*
X62894495Y-70568457D02*
X62942114Y-70663695D01*
X62942114Y-70663695D02*
X62942114Y-70758933D01*
X62942114Y-70758933D02*
X62894495Y-70901790D01*
X62894495Y-70901790D02*
X62323067Y-71473219D01*
X62323067Y-71473219D02*
X62942114Y-71473219D01*
X63873142Y-91799580D02*
X63825523Y-91847200D01*
X63825523Y-91847200D02*
X63682666Y-91894819D01*
X63682666Y-91894819D02*
X63587428Y-91894819D01*
X63587428Y-91894819D02*
X63444571Y-91847200D01*
X63444571Y-91847200D02*
X63349333Y-91751961D01*
X63349333Y-91751961D02*
X63301714Y-91656723D01*
X63301714Y-91656723D02*
X63254095Y-91466247D01*
X63254095Y-91466247D02*
X63254095Y-91323390D01*
X63254095Y-91323390D02*
X63301714Y-91132914D01*
X63301714Y-91132914D02*
X63349333Y-91037676D01*
X63349333Y-91037676D02*
X63444571Y-90942438D01*
X63444571Y-90942438D02*
X63587428Y-90894819D01*
X63587428Y-90894819D02*
X63682666Y-90894819D01*
X63682666Y-90894819D02*
X63825523Y-90942438D01*
X63825523Y-90942438D02*
X63873142Y-90990057D01*
X64825523Y-91894819D02*
X64254095Y-91894819D01*
X64539809Y-91894819D02*
X64539809Y-90894819D01*
X64539809Y-90894819D02*
X64444571Y-91037676D01*
X64444571Y-91037676D02*
X64349333Y-91132914D01*
X64349333Y-91132914D02*
X64254095Y-91180533D01*
X65444571Y-90894819D02*
X65539809Y-90894819D01*
X65539809Y-90894819D02*
X65635047Y-90942438D01*
X65635047Y-90942438D02*
X65682666Y-90990057D01*
X65682666Y-90990057D02*
X65730285Y-91085295D01*
X65730285Y-91085295D02*
X65777904Y-91275771D01*
X65777904Y-91275771D02*
X65777904Y-91513866D01*
X65777904Y-91513866D02*
X65730285Y-91704342D01*
X65730285Y-91704342D02*
X65682666Y-91799580D01*
X65682666Y-91799580D02*
X65635047Y-91847200D01*
X65635047Y-91847200D02*
X65539809Y-91894819D01*
X65539809Y-91894819D02*
X65444571Y-91894819D01*
X65444571Y-91894819D02*
X65349333Y-91847200D01*
X65349333Y-91847200D02*
X65301714Y-91799580D01*
X65301714Y-91799580D02*
X65254095Y-91704342D01*
X65254095Y-91704342D02*
X65206476Y-91513866D01*
X65206476Y-91513866D02*
X65206476Y-91275771D01*
X65206476Y-91275771D02*
X65254095Y-91085295D01*
X65254095Y-91085295D02*
X65301714Y-90990057D01*
X65301714Y-90990057D02*
X65349333Y-90942438D01*
X65349333Y-90942438D02*
X65444571Y-90894819D01*
X55916533Y-72554719D02*
X55583200Y-72078528D01*
X55345105Y-72554719D02*
X55345105Y-71554719D01*
X55345105Y-71554719D02*
X55726057Y-71554719D01*
X55726057Y-71554719D02*
X55821295Y-71602338D01*
X55821295Y-71602338D02*
X55868914Y-71649957D01*
X55868914Y-71649957D02*
X55916533Y-71745195D01*
X55916533Y-71745195D02*
X55916533Y-71888052D01*
X55916533Y-71888052D02*
X55868914Y-71983290D01*
X55868914Y-71983290D02*
X55821295Y-72030909D01*
X55821295Y-72030909D02*
X55726057Y-72078528D01*
X55726057Y-72078528D02*
X55345105Y-72078528D01*
X56773676Y-71888052D02*
X56773676Y-72554719D01*
X56535581Y-71507100D02*
X56297486Y-72221385D01*
X56297486Y-72221385D02*
X56916533Y-72221385D01*
X62041742Y-83620780D02*
X61994123Y-83668400D01*
X61994123Y-83668400D02*
X61851266Y-83716019D01*
X61851266Y-83716019D02*
X61756028Y-83716019D01*
X61756028Y-83716019D02*
X61613171Y-83668400D01*
X61613171Y-83668400D02*
X61517933Y-83573161D01*
X61517933Y-83573161D02*
X61470314Y-83477923D01*
X61470314Y-83477923D02*
X61422695Y-83287447D01*
X61422695Y-83287447D02*
X61422695Y-83144590D01*
X61422695Y-83144590D02*
X61470314Y-82954114D01*
X61470314Y-82954114D02*
X61517933Y-82858876D01*
X61517933Y-82858876D02*
X61613171Y-82763638D01*
X61613171Y-82763638D02*
X61756028Y-82716019D01*
X61756028Y-82716019D02*
X61851266Y-82716019D01*
X61851266Y-82716019D02*
X61994123Y-82763638D01*
X61994123Y-82763638D02*
X62041742Y-82811257D01*
X62994123Y-83716019D02*
X62422695Y-83716019D01*
X62708409Y-83716019D02*
X62708409Y-82716019D01*
X62708409Y-82716019D02*
X62613171Y-82858876D01*
X62613171Y-82858876D02*
X62517933Y-82954114D01*
X62517933Y-82954114D02*
X62422695Y-83001733D01*
X63851266Y-83049352D02*
X63851266Y-83716019D01*
X63613171Y-82668400D02*
X63375076Y-83382685D01*
X63375076Y-83382685D02*
X63994123Y-83382685D01*
X62012533Y-93018780D02*
X61964914Y-93066400D01*
X61964914Y-93066400D02*
X61822057Y-93114019D01*
X61822057Y-93114019D02*
X61726819Y-93114019D01*
X61726819Y-93114019D02*
X61583962Y-93066400D01*
X61583962Y-93066400D02*
X61488724Y-92971161D01*
X61488724Y-92971161D02*
X61441105Y-92875923D01*
X61441105Y-92875923D02*
X61393486Y-92685447D01*
X61393486Y-92685447D02*
X61393486Y-92542590D01*
X61393486Y-92542590D02*
X61441105Y-92352114D01*
X61441105Y-92352114D02*
X61488724Y-92256876D01*
X61488724Y-92256876D02*
X61583962Y-92161638D01*
X61583962Y-92161638D02*
X61726819Y-92114019D01*
X61726819Y-92114019D02*
X61822057Y-92114019D01*
X61822057Y-92114019D02*
X61964914Y-92161638D01*
X61964914Y-92161638D02*
X62012533Y-92209257D01*
X62583962Y-92542590D02*
X62488724Y-92494971D01*
X62488724Y-92494971D02*
X62441105Y-92447352D01*
X62441105Y-92447352D02*
X62393486Y-92352114D01*
X62393486Y-92352114D02*
X62393486Y-92304495D01*
X62393486Y-92304495D02*
X62441105Y-92209257D01*
X62441105Y-92209257D02*
X62488724Y-92161638D01*
X62488724Y-92161638D02*
X62583962Y-92114019D01*
X62583962Y-92114019D02*
X62774438Y-92114019D01*
X62774438Y-92114019D02*
X62869676Y-92161638D01*
X62869676Y-92161638D02*
X62917295Y-92209257D01*
X62917295Y-92209257D02*
X62964914Y-92304495D01*
X62964914Y-92304495D02*
X62964914Y-92352114D01*
X62964914Y-92352114D02*
X62917295Y-92447352D01*
X62917295Y-92447352D02*
X62869676Y-92494971D01*
X62869676Y-92494971D02*
X62774438Y-92542590D01*
X62774438Y-92542590D02*
X62583962Y-92542590D01*
X62583962Y-92542590D02*
X62488724Y-92590209D01*
X62488724Y-92590209D02*
X62441105Y-92637828D01*
X62441105Y-92637828D02*
X62393486Y-92733066D01*
X62393486Y-92733066D02*
X62393486Y-92923542D01*
X62393486Y-92923542D02*
X62441105Y-93018780D01*
X62441105Y-93018780D02*
X62488724Y-93066400D01*
X62488724Y-93066400D02*
X62583962Y-93114019D01*
X62583962Y-93114019D02*
X62774438Y-93114019D01*
X62774438Y-93114019D02*
X62869676Y-93066400D01*
X62869676Y-93066400D02*
X62917295Y-93018780D01*
X62917295Y-93018780D02*
X62964914Y-92923542D01*
X62964914Y-92923542D02*
X62964914Y-92733066D01*
X62964914Y-92733066D02*
X62917295Y-92637828D01*
X62917295Y-92637828D02*
X62869676Y-92590209D01*
X62869676Y-92590209D02*
X62774438Y-92542590D01*
X55738733Y-69828580D02*
X55691114Y-69876200D01*
X55691114Y-69876200D02*
X55548257Y-69923819D01*
X55548257Y-69923819D02*
X55453019Y-69923819D01*
X55453019Y-69923819D02*
X55310162Y-69876200D01*
X55310162Y-69876200D02*
X55214924Y-69780961D01*
X55214924Y-69780961D02*
X55167305Y-69685723D01*
X55167305Y-69685723D02*
X55119686Y-69495247D01*
X55119686Y-69495247D02*
X55119686Y-69352390D01*
X55119686Y-69352390D02*
X55167305Y-69161914D01*
X55167305Y-69161914D02*
X55214924Y-69066676D01*
X55214924Y-69066676D02*
X55310162Y-68971438D01*
X55310162Y-68971438D02*
X55453019Y-68923819D01*
X55453019Y-68923819D02*
X55548257Y-68923819D01*
X55548257Y-68923819D02*
X55691114Y-68971438D01*
X55691114Y-68971438D02*
X55738733Y-69019057D01*
X56595876Y-68923819D02*
X56405400Y-68923819D01*
X56405400Y-68923819D02*
X56310162Y-68971438D01*
X56310162Y-68971438D02*
X56262543Y-69019057D01*
X56262543Y-69019057D02*
X56167305Y-69161914D01*
X56167305Y-69161914D02*
X56119686Y-69352390D01*
X56119686Y-69352390D02*
X56119686Y-69733342D01*
X56119686Y-69733342D02*
X56167305Y-69828580D01*
X56167305Y-69828580D02*
X56214924Y-69876200D01*
X56214924Y-69876200D02*
X56310162Y-69923819D01*
X56310162Y-69923819D02*
X56500638Y-69923819D01*
X56500638Y-69923819D02*
X56595876Y-69876200D01*
X56595876Y-69876200D02*
X56643495Y-69828580D01*
X56643495Y-69828580D02*
X56691114Y-69733342D01*
X56691114Y-69733342D02*
X56691114Y-69495247D01*
X56691114Y-69495247D02*
X56643495Y-69400009D01*
X56643495Y-69400009D02*
X56595876Y-69352390D01*
X56595876Y-69352390D02*
X56500638Y-69304771D01*
X56500638Y-69304771D02*
X56310162Y-69304771D01*
X56310162Y-69304771D02*
X56214924Y-69352390D01*
X56214924Y-69352390D02*
X56167305Y-69400009D01*
X56167305Y-69400009D02*
X56119686Y-69495247D01*
X55586333Y-92758419D02*
X55253000Y-92282228D01*
X55014905Y-92758419D02*
X55014905Y-91758419D01*
X55014905Y-91758419D02*
X55395857Y-91758419D01*
X55395857Y-91758419D02*
X55491095Y-91806038D01*
X55491095Y-91806038D02*
X55538714Y-91853657D01*
X55538714Y-91853657D02*
X55586333Y-91948895D01*
X55586333Y-91948895D02*
X55586333Y-92091752D01*
X55586333Y-92091752D02*
X55538714Y-92186990D01*
X55538714Y-92186990D02*
X55491095Y-92234609D01*
X55491095Y-92234609D02*
X55395857Y-92282228D01*
X55395857Y-92282228D02*
X55014905Y-92282228D01*
X56443476Y-91758419D02*
X56253000Y-91758419D01*
X56253000Y-91758419D02*
X56157762Y-91806038D01*
X56157762Y-91806038D02*
X56110143Y-91853657D01*
X56110143Y-91853657D02*
X56014905Y-91996514D01*
X56014905Y-91996514D02*
X55967286Y-92186990D01*
X55967286Y-92186990D02*
X55967286Y-92567942D01*
X55967286Y-92567942D02*
X56014905Y-92663180D01*
X56014905Y-92663180D02*
X56062524Y-92710800D01*
X56062524Y-92710800D02*
X56157762Y-92758419D01*
X56157762Y-92758419D02*
X56348238Y-92758419D01*
X56348238Y-92758419D02*
X56443476Y-92710800D01*
X56443476Y-92710800D02*
X56491095Y-92663180D01*
X56491095Y-92663180D02*
X56538714Y-92567942D01*
X56538714Y-92567942D02*
X56538714Y-92329847D01*
X56538714Y-92329847D02*
X56491095Y-92234609D01*
X56491095Y-92234609D02*
X56443476Y-92186990D01*
X56443476Y-92186990D02*
X56348238Y-92139371D01*
X56348238Y-92139371D02*
X56157762Y-92139371D01*
X56157762Y-92139371D02*
X56062524Y-92186990D01*
X56062524Y-92186990D02*
X56014905Y-92234609D01*
X56014905Y-92234609D02*
X55967286Y-92329847D01*
X63338333Y-69080780D02*
X63290714Y-69128400D01*
X63290714Y-69128400D02*
X63147857Y-69176019D01*
X63147857Y-69176019D02*
X63052619Y-69176019D01*
X63052619Y-69176019D02*
X62909762Y-69128400D01*
X62909762Y-69128400D02*
X62814524Y-69033161D01*
X62814524Y-69033161D02*
X62766905Y-68937923D01*
X62766905Y-68937923D02*
X62719286Y-68747447D01*
X62719286Y-68747447D02*
X62719286Y-68604590D01*
X62719286Y-68604590D02*
X62766905Y-68414114D01*
X62766905Y-68414114D02*
X62814524Y-68318876D01*
X62814524Y-68318876D02*
X62909762Y-68223638D01*
X62909762Y-68223638D02*
X63052619Y-68176019D01*
X63052619Y-68176019D02*
X63147857Y-68176019D01*
X63147857Y-68176019D02*
X63290714Y-68223638D01*
X63290714Y-68223638D02*
X63338333Y-68271257D01*
X63671667Y-68176019D02*
X64338333Y-68176019D01*
X64338333Y-68176019D02*
X63909762Y-69176019D01*
X55814933Y-91539219D02*
X55481600Y-91063028D01*
X55243505Y-91539219D02*
X55243505Y-90539219D01*
X55243505Y-90539219D02*
X55624457Y-90539219D01*
X55624457Y-90539219D02*
X55719695Y-90586838D01*
X55719695Y-90586838D02*
X55767314Y-90634457D01*
X55767314Y-90634457D02*
X55814933Y-90729695D01*
X55814933Y-90729695D02*
X55814933Y-90872552D01*
X55814933Y-90872552D02*
X55767314Y-90967790D01*
X55767314Y-90967790D02*
X55719695Y-91015409D01*
X55719695Y-91015409D02*
X55624457Y-91063028D01*
X55624457Y-91063028D02*
X55243505Y-91063028D01*
X56148267Y-90539219D02*
X56814933Y-90539219D01*
X56814933Y-90539219D02*
X56386362Y-91539219D01*
X55741333Y-66509580D02*
X55693714Y-66557200D01*
X55693714Y-66557200D02*
X55550857Y-66604819D01*
X55550857Y-66604819D02*
X55455619Y-66604819D01*
X55455619Y-66604819D02*
X55312762Y-66557200D01*
X55312762Y-66557200D02*
X55217524Y-66461961D01*
X55217524Y-66461961D02*
X55169905Y-66366723D01*
X55169905Y-66366723D02*
X55122286Y-66176247D01*
X55122286Y-66176247D02*
X55122286Y-66033390D01*
X55122286Y-66033390D02*
X55169905Y-65842914D01*
X55169905Y-65842914D02*
X55217524Y-65747676D01*
X55217524Y-65747676D02*
X55312762Y-65652438D01*
X55312762Y-65652438D02*
X55455619Y-65604819D01*
X55455619Y-65604819D02*
X55550857Y-65604819D01*
X55550857Y-65604819D02*
X55693714Y-65652438D01*
X55693714Y-65652438D02*
X55741333Y-65700057D01*
X56693714Y-66604819D02*
X56122286Y-66604819D01*
X56408000Y-66604819D02*
X56408000Y-65604819D01*
X56408000Y-65604819D02*
X56312762Y-65747676D01*
X56312762Y-65747676D02*
X56217524Y-65842914D01*
X56217524Y-65842914D02*
X56122286Y-65890533D01*
X65020819Y-97462933D02*
X65735104Y-97462933D01*
X65735104Y-97462933D02*
X65877961Y-97510552D01*
X65877961Y-97510552D02*
X65973200Y-97605790D01*
X65973200Y-97605790D02*
X66020819Y-97748647D01*
X66020819Y-97748647D02*
X66020819Y-97843885D01*
X65020819Y-96558171D02*
X65020819Y-96748647D01*
X65020819Y-96748647D02*
X65068438Y-96843885D01*
X65068438Y-96843885D02*
X65116057Y-96891504D01*
X65116057Y-96891504D02*
X65258914Y-96986742D01*
X65258914Y-96986742D02*
X65449390Y-97034361D01*
X65449390Y-97034361D02*
X65830342Y-97034361D01*
X65830342Y-97034361D02*
X65925580Y-96986742D01*
X65925580Y-96986742D02*
X65973200Y-96939123D01*
X65973200Y-96939123D02*
X66020819Y-96843885D01*
X66020819Y-96843885D02*
X66020819Y-96653409D01*
X66020819Y-96653409D02*
X65973200Y-96558171D01*
X65973200Y-96558171D02*
X65925580Y-96510552D01*
X65925580Y-96510552D02*
X65830342Y-96462933D01*
X65830342Y-96462933D02*
X65592247Y-96462933D01*
X65592247Y-96462933D02*
X65497009Y-96510552D01*
X65497009Y-96510552D02*
X65449390Y-96558171D01*
X65449390Y-96558171D02*
X65401771Y-96653409D01*
X65401771Y-96653409D02*
X65401771Y-96843885D01*
X65401771Y-96843885D02*
X65449390Y-96939123D01*
X65449390Y-96939123D02*
X65497009Y-96986742D01*
X65497009Y-96986742D02*
X65592247Y-97034361D01*
X64903819Y-57991333D02*
X65618104Y-57991333D01*
X65618104Y-57991333D02*
X65760961Y-58038952D01*
X65760961Y-58038952D02*
X65856200Y-58134190D01*
X65856200Y-58134190D02*
X65903819Y-58277047D01*
X65903819Y-58277047D02*
X65903819Y-58372285D01*
X64903819Y-57610380D02*
X64903819Y-56943714D01*
X64903819Y-56943714D02*
X65903819Y-57372285D01*
X61989733Y-72622580D02*
X61942114Y-72670200D01*
X61942114Y-72670200D02*
X61799257Y-72717819D01*
X61799257Y-72717819D02*
X61704019Y-72717819D01*
X61704019Y-72717819D02*
X61561162Y-72670200D01*
X61561162Y-72670200D02*
X61465924Y-72574961D01*
X61465924Y-72574961D02*
X61418305Y-72479723D01*
X61418305Y-72479723D02*
X61370686Y-72289247D01*
X61370686Y-72289247D02*
X61370686Y-72146390D01*
X61370686Y-72146390D02*
X61418305Y-71955914D01*
X61418305Y-71955914D02*
X61465924Y-71860676D01*
X61465924Y-71860676D02*
X61561162Y-71765438D01*
X61561162Y-71765438D02*
X61704019Y-71717819D01*
X61704019Y-71717819D02*
X61799257Y-71717819D01*
X61799257Y-71717819D02*
X61942114Y-71765438D01*
X61942114Y-71765438D02*
X61989733Y-71813057D01*
X62323067Y-71717819D02*
X62942114Y-71717819D01*
X62942114Y-71717819D02*
X62608781Y-72098771D01*
X62608781Y-72098771D02*
X62751638Y-72098771D01*
X62751638Y-72098771D02*
X62846876Y-72146390D01*
X62846876Y-72146390D02*
X62894495Y-72194009D01*
X62894495Y-72194009D02*
X62942114Y-72289247D01*
X62942114Y-72289247D02*
X62942114Y-72527342D01*
X62942114Y-72527342D02*
X62894495Y-72622580D01*
X62894495Y-72622580D02*
X62846876Y-72670200D01*
X62846876Y-72670200D02*
X62751638Y-72717819D01*
X62751638Y-72717819D02*
X62465924Y-72717819D01*
X62465924Y-72717819D02*
X62370686Y-72670200D01*
X62370686Y-72670200D02*
X62323067Y-72622580D01*
D12*
%TO.C,C12*%
X55800164Y-87244600D02*
X56015836Y-87244600D01*
X55800164Y-87964600D02*
X56015836Y-87964600D01*
%TO.C,R5*%
X57885359Y-70780100D02*
X58192641Y-70780100D01*
X57885359Y-71540100D02*
X58192641Y-71540100D01*
%TO.C,J9*%
X66117800Y-92370400D02*
X66117800Y-93620400D01*
X66117800Y-93620400D02*
X67367800Y-93620400D01*
X66407800Y-80710400D02*
X66407800Y-93330400D01*
X66407800Y-93330400D02*
X72377800Y-93330400D01*
X66417800Y-80720400D02*
X66417800Y-82520400D01*
X66417800Y-82520400D02*
X67167800Y-82520400D01*
X66417800Y-84020400D02*
X66417800Y-90020400D01*
X66417800Y-90020400D02*
X67167800Y-90020400D01*
X66417800Y-91520400D02*
X66417800Y-93320400D01*
X66417800Y-93320400D02*
X67167800Y-93320400D01*
X67167800Y-80720400D02*
X66417800Y-80720400D01*
X67167800Y-82520400D02*
X67167800Y-80720400D01*
X67167800Y-84020400D02*
X66417800Y-84020400D01*
X67167800Y-90020400D02*
X67167800Y-84020400D01*
X67167800Y-91520400D02*
X66417800Y-91520400D01*
X67167800Y-93320400D02*
X67167800Y-91520400D01*
X68667800Y-80720400D02*
X68667800Y-81470400D01*
X68667800Y-81470400D02*
X71617800Y-81470400D01*
X68667800Y-92570400D02*
X71617800Y-92570400D01*
X68667800Y-93320400D02*
X68667800Y-92570400D01*
X71617800Y-81470400D02*
X71617800Y-87020400D01*
X71617800Y-92570400D02*
X71617800Y-87020400D01*
X72377800Y-80710400D02*
X66407800Y-80710400D01*
X72377800Y-93330400D02*
X72377800Y-80710400D01*
%TO.C,C11*%
X55797564Y-88260600D02*
X56013236Y-88260600D01*
X55797564Y-88980600D02*
X56013236Y-88980600D01*
%TO.C,C4*%
X60191764Y-63749600D02*
X60407436Y-63749600D01*
X60191764Y-64469600D02*
X60407436Y-64469600D01*
%TO.C,R3*%
X57072559Y-63780400D02*
X57379841Y-63780400D01*
X57072559Y-64540400D02*
X57379841Y-64540400D01*
%TO.C,C5*%
X60191764Y-62759000D02*
X60407436Y-62759000D01*
X60191764Y-63479000D02*
X60407436Y-63479000D01*
%TO.C,R9*%
X58522841Y-82906600D02*
X58215559Y-82906600D01*
X58522841Y-83666600D02*
X58215559Y-83666600D01*
%TO.C,J3*%
X44348400Y-72364600D02*
X44348400Y-82524600D01*
X44348400Y-82524600D02*
X51968400Y-82524600D01*
X45618400Y-82524600D02*
X45618400Y-72364600D01*
X51968400Y-72364600D02*
X44348400Y-72364600D01*
X51968400Y-82524600D02*
X51968400Y-72364600D01*
%TO.C,R8*%
X53468000Y-88266241D02*
X53468000Y-87958959D01*
X54228000Y-88266241D02*
X54228000Y-87958959D01*
%TO.C,R2*%
X58395841Y-62764400D02*
X58088559Y-62764400D01*
X58395841Y-63524400D02*
X58088559Y-63524400D01*
%TO.C,R1*%
X53468000Y-67971641D02*
X53468000Y-67664359D01*
X54228000Y-67971641D02*
X54228000Y-67664359D01*
%TO.C,R10*%
X57199559Y-83948000D02*
X57506841Y-83948000D01*
X57199559Y-84708000D02*
X57506841Y-84708000D01*
%TO.C,C13*%
X60217164Y-83866400D02*
X60432836Y-83866400D01*
X60217164Y-84586400D02*
X60432836Y-84586400D01*
D13*
%TO.C,IC1*%
X57720500Y-70009500D02*
G75*
G02*
X57395500Y-70009500I-162500J0D01*
G01*
X57395500Y-70009500D02*
G75*
G02*
X57720500Y-70009500I162500J0D01*
G01*
D12*
%TO.C,C9*%
X60217164Y-91181600D02*
X60432836Y-91181600D01*
X60217164Y-91901600D02*
X60432836Y-91901600D01*
%TO.C,C2*%
X60219764Y-70785400D02*
X60435436Y-70785400D01*
X60219764Y-71505400D02*
X60435436Y-71505400D01*
%TO.C,C10*%
X63417564Y-89733800D02*
X63633236Y-89733800D01*
X63417564Y-90453800D02*
X63633236Y-90453800D01*
%TO.C,J10*%
X66109400Y-72055800D02*
X66109400Y-73305800D01*
X66109400Y-73305800D02*
X67359400Y-73305800D01*
X66399400Y-60395800D02*
X66399400Y-73015800D01*
X66399400Y-73015800D02*
X72369400Y-73015800D01*
X66409400Y-60405800D02*
X66409400Y-62205800D01*
X66409400Y-62205800D02*
X67159400Y-62205800D01*
X66409400Y-63705800D02*
X66409400Y-69705800D01*
X66409400Y-69705800D02*
X67159400Y-69705800D01*
X66409400Y-71205800D02*
X66409400Y-73005800D01*
X66409400Y-73005800D02*
X67159400Y-73005800D01*
X67159400Y-60405800D02*
X66409400Y-60405800D01*
X67159400Y-62205800D02*
X67159400Y-60405800D01*
X67159400Y-63705800D02*
X66409400Y-63705800D01*
X67159400Y-69705800D02*
X67159400Y-63705800D01*
X67159400Y-71205800D02*
X66409400Y-71205800D01*
X67159400Y-73005800D02*
X67159400Y-71205800D01*
X68659400Y-60405800D02*
X68659400Y-61155800D01*
X68659400Y-61155800D02*
X71609400Y-61155800D01*
X68659400Y-72255800D02*
X71609400Y-72255800D01*
X68659400Y-73005800D02*
X68659400Y-72255800D01*
X71609400Y-61155800D02*
X71609400Y-66705800D01*
X71609400Y-72255800D02*
X71609400Y-66705800D01*
X72369400Y-60395800D02*
X66399400Y-60395800D01*
X72369400Y-73015800D02*
X72369400Y-60395800D01*
D13*
%TO.C,IC2*%
X57720500Y-90299500D02*
G75*
G02*
X57395500Y-90299500I-162500J0D01*
G01*
X57395500Y-90299500D02*
G75*
G02*
X57720500Y-90299500I162500J0D01*
G01*
D12*
%TO.C,R4*%
X58194641Y-71796100D02*
X57887359Y-71796100D01*
X58194641Y-72556100D02*
X57887359Y-72556100D01*
%TO.C,C14*%
X60214564Y-82952000D02*
X60430236Y-82952000D01*
X60214564Y-83672000D02*
X60430236Y-83672000D01*
%TO.C,C8*%
X60217164Y-92172200D02*
X60432836Y-92172200D01*
X60217164Y-92892200D02*
X60432836Y-92892200D01*
%TO.C,C6*%
X55797564Y-67966000D02*
X56013236Y-67966000D01*
X55797564Y-68686000D02*
X56013236Y-68686000D01*
%TO.C,R6*%
X58167241Y-91720400D02*
X57859959Y-91720400D01*
X58167241Y-92480400D02*
X57859959Y-92480400D01*
%TO.C,C7*%
X63293164Y-69439200D02*
X63508836Y-69439200D01*
X63293164Y-70159200D02*
X63508836Y-70159200D01*
%TO.C,R7*%
X57859959Y-90704400D02*
X58167241Y-90704400D01*
X57859959Y-91464400D02*
X58167241Y-91464400D01*
%TO.C,C1*%
X55800164Y-66950000D02*
X56015836Y-66950000D01*
X55800164Y-67670000D02*
X56015836Y-67670000D01*
%TO.C,J6*%
X54286000Y-95799600D02*
X54286000Y-98459600D01*
X61966000Y-95799600D02*
X54286000Y-95799600D01*
X61966000Y-95799600D02*
X61966000Y-98459600D01*
X61966000Y-98459600D02*
X54286000Y-98459600D01*
X63236000Y-95799600D02*
X64566000Y-95799600D01*
X64566000Y-95799600D02*
X64566000Y-97129600D01*
%TO.C,J7*%
X54169000Y-56328000D02*
X54169000Y-58988000D01*
X61849000Y-56328000D02*
X54169000Y-56328000D01*
X61849000Y-56328000D02*
X61849000Y-58988000D01*
X61849000Y-58988000D02*
X54169000Y-58988000D01*
X63119000Y-56328000D02*
X64449000Y-56328000D01*
X64449000Y-56328000D02*
X64449000Y-57658000D01*
%TO.C,C3*%
X60219764Y-71776000D02*
X60435436Y-71776000D01*
X60219764Y-72496000D02*
X60435436Y-72496000D01*
%TD*%
M02*
