M48
; DRILL file {KiCad 9.0.0} date 2025-04-16T15:55:20+0300
; FORMAT={-:-/ absolute / metric / decimal}
; #@! TF.CreationDate,2025-04-16T15:55:20+03:00
; #@! TF.GenerationSoftware,Kicad,Pcbnew,9.0.0
; #@! TF.FileFunction,Plated,1,4,PTH
FMAT,2
METRIC
; #@! TA.AperFunction,Plated,PTH,ViaDrill
T1C0.300
; #@! TA.AperFunction,Plated,PTH,ComponentDrill
T2C0.950
; #@! TA.AperFunction,Plated,PTH,ComponentDrill
T3C1.000
; #@! TA.AperFunction,Plated,PTH,ComponentDrill
T4C1.520
%
G90
G05
T1
X44.969Y-68.326
X44.969Y-88.646
X44.969Y-66.294
X44.969Y-86.614
X45.212Y-93.218
X45.212Y-94.234
X45.212Y-95.25
X45.212Y-96.266
X45.212Y-97.282
X45.339Y-58.293
X45.339Y-59.563
X45.339Y-60.706
X45.339Y-61.722
X45.466Y-80.264
X45.72Y-62.738
X45.72Y-71.882
X45.72Y-72.644
X45.72Y-73.66
X45.72Y-74.676
X45.72Y-75.438
X45.72Y-76.2
X45.72Y-77.216
X45.72Y-78.74
X45.72Y-81.28
X45.72Y-82.55
X45.72Y-92.456
X45.72Y-98.044
X45.847Y-57.023
X45.974Y-66.294
X45.974Y-68.326
X45.974Y-86.614
X45.974Y-88.646
X45.974Y-94.488
X45.974Y-96.012
X46.228Y-59.182
X46.228Y-60.198
X46.355Y-61.468
X46.482Y-58.166
X46.482Y-62.738
X46.482Y-77.724
X46.482Y-93.472
X46.482Y-97.028
X46.736Y-71.882
X46.736Y-82.55
X46.736Y-92.456
X46.736Y-98.044
X46.99Y-66.294
X46.99Y-68.326
X46.99Y-86.614
X46.99Y-88.646
X47.244Y-62.738
X47.498Y-61.976
X47.498Y-77.216
X47.752Y-71.882
X47.752Y-82.55
X47.752Y-92.456
X48.133Y-66.294
X48.133Y-68.326
X48.133Y-86.614
X48.133Y-88.646
X48.26Y-62.738
X48.514Y-77.216
X48.768Y-71.882
X48.768Y-82.55
X49.022Y-62.738
X49.022Y-66.294
X49.022Y-68.326
X49.022Y-86.614
X49.022Y-88.646
X49.53Y-77.47
X49.784Y-62.738
X49.784Y-71.882
X49.784Y-82.55
X50.038Y-72.898
X50.038Y-86.614
X50.038Y-89.408
X50.038Y-90.17
X50.038Y-90.932
X50.038Y-91.694
X50.165Y-88.646
X50.292Y-63.246
X50.292Y-64.262
X50.292Y-65.278
X50.292Y-66.294
X50.292Y-68.326
X50.292Y-73.66
X50.292Y-74.422
X50.292Y-75.438
X50.292Y-76.2
X50.292Y-76.962
X50.292Y-78.232
X50.292Y-81.534
X50.546Y-69.088
X50.546Y-70.104
X50.546Y-71.12
X50.546Y-71.882
X50.546Y-82.55
X50.546Y-83.312
X50.546Y-84.074
X50.546Y-85.09
X50.546Y-85.852
X50.8Y-72.898
X50.8Y-86.614
X51.054Y-62.992
X51.054Y-63.754
X51.054Y-64.516
X51.054Y-77.47
X51.054Y-82.042
X51.054Y-88.646
X51.054Y-90.424
X51.054Y-91.948
X51.308Y-65.278
X51.308Y-66.294
X51.308Y-68.326
X51.308Y-69.088
X51.308Y-70.104
X51.308Y-74.422
X51.308Y-75.692
X51.308Y-78.994
X51.308Y-83.312
X51.562Y-72.898
X51.562Y-76.454
X51.562Y-81.28
X51.562Y-82.55
X51.562Y-84.328
X51.562Y-86.614
X51.816Y-62.738
X51.816Y-63.754
X51.816Y-70.866
X51.816Y-71.882
X51.816Y-73.914
X51.816Y-77.978
X51.816Y-85.598
X51.816Y-89.662
X51.816Y-91.186
X51.943Y-88.646
X52.07Y-69.85
X52.07Y-81.788
X52.07Y-92.456
X52.324Y-64.516
X52.324Y-65.278
X52.324Y-66.294
X52.324Y-68.326
X52.324Y-69.088
X52.324Y-74.422
X52.324Y-75.438
X52.324Y-76.962
X52.324Y-78.994
X52.324Y-86.614
X52.578Y-62.23
X52.578Y-71.882
X52.578Y-72.898
X52.578Y-81.026
X52.578Y-83.312
X52.578Y-84.328
X52.578Y-85.09
X52.578Y-90.424
X52.578Y-92.964
X52.578Y-98.044
X52.832Y-63.5
X52.832Y-70.104
X52.832Y-73.406
X52.832Y-76.2
X52.832Y-88.646
X52.832Y-91.948
X52.832Y-97.282
X52.959Y-89.408
X53.086Y-61.468
X53.086Y-62.738
X53.086Y-68.326
X53.086Y-69.088
X53.086Y-73.914
X53.086Y-93.98
X53.213Y-66.294
X53.213Y-86.487
X53.34Y-57.404
X53.34Y-64.262
X53.34Y-65.278
X53.34Y-71.12
X53.34Y-72.39
X53.34Y-77.978
X53.34Y-78.994
X53.34Y-81.026
X53.34Y-82.804
X53.34Y-85.598
X53.34Y-90.932
X53.34Y-94.996
X53.34Y-96.266
X53.594Y-58.42
X53.594Y-60.706
X53.594Y-74.93
X53.594Y-76.962
X53.594Y-81.788
X53.594Y-83.566
X53.594Y-98.044
X53.848Y-59.69
X53.848Y-63.5
X53.848Y-69.037
X53.848Y-73.66
X53.848Y-84.582
X53.848Y-89.332
X53.848Y-90.17
X53.848Y-91.948
X53.848Y-93.472
X53.848Y-97.282
X54.102Y-61.976
X54.102Y-65.278
X54.102Y-70.104
X54.102Y-71.882
X54.102Y-81.026
X54.102Y-86.487
X54.229Y-66.167
X54.356Y-59.944
X54.356Y-60.96
X54.356Y-64.262
X54.356Y-73.152
X54.356Y-74.422
X54.356Y-75.438
X54.356Y-78.994
X54.356Y-82.804
X54.356Y-83.566
X54.356Y-95.758
X54.61Y-62.992
X54.61Y-69.088
X54.61Y-70.358
X54.61Y-71.12
X54.61Y-76.2
X54.61Y-77.978
X54.61Y-81.788
X54.61Y-84.582
X54.61Y-91.186
X54.61Y-92.456
X54.61Y-93.726
X54.61Y-94.742
X54.712Y-68.351
X54.737Y-86.36
X54.737Y-89.662
X54.762Y-88.621
X54.864Y-61.468
X54.864Y-65.532
X54.864Y-72.644
X54.864Y-85.598
X55.118Y-60.452
X55.118Y-64.262
X55.118Y-70.866
X55.118Y-73.914
X55.118Y-74.93
X55.118Y-81.026
X55.245Y-66.167
X55.372Y-62.23
X55.372Y-76.708
X55.372Y-78.994
X55.372Y-82.804
X55.499Y-83.947
X55.499Y-84.963
X55.626Y-63.5
X55.626Y-64.897
X55.626Y-69.088
X55.626Y-70.358
X55.626Y-71.628
X55.626Y-72.39
X55.626Y-91.948
X55.626Y-92.837
X55.626Y-93.726
X55.753Y-61.087
X55.753Y-86.487
X55.88Y-73.152
X55.88Y-75.438
X55.88Y-76.2
X55.88Y-81.026
X55.88Y-81.788
X55.88Y-91.059
X56.007Y-64.16
X56.007Y-89.916
X56.134Y-61.595
X56.134Y-69.596
X56.134Y-71.12
X56.134Y-77.978
X56.134Y-84.328
X56.261Y-66.167
X56.388Y-65.024
X56.388Y-74.676
X56.388Y-78.994
X56.388Y-82.296
X56.388Y-83.439
X56.388Y-85.344
X56.515Y-62.357
X56.515Y-63.373
X56.642Y-70.358
X56.642Y-73.406
X56.642Y-81.026
X56.642Y-82.804
X56.642Y-86.233
X56.769Y-72.151
X56.794Y-91.084
X56.82Y-92.126
X56.845Y-71.145
X56.896Y-69.596
X56.896Y-74.93
X56.896Y-81.788
X57.023Y-65.532
X57.277Y-90.043
X57.404Y-70.104
X57.404Y-73.406
X57.404Y-77.978
X57.404Y-78.994
X57.404Y-85.852
X57.658Y-75.184
X57.658Y-76.2
X57.658Y-77.216
X57.658Y-81.026
X57.861Y-82.474
X57.912Y-74.168
X58.42Y-78.994
X58.42Y-81.026
X58.572Y-73.203
X58.869Y-67.005
X58.869Y-68.301
X58.903Y-84.303
X58.928Y-74.168
X58.928Y-75.184
X58.928Y-76.2
X58.928Y-77.216
X58.928Y-78.232
X58.941Y-64.198
X58.945Y-87.3
X58.953Y-88.544
X59.309Y-59.436
X59.309Y-60.452
X59.436Y-94.742
X59.563Y-93.726
X59.69Y-61.087
X59.817Y-81.28
X59.817Y-90.83
X59.833Y-64.821
X59.833Y-85.004
X59.842Y-70.409
X59.944Y-61.976
X59.944Y-73.279
X60.018Y-67.005
X60.018Y-68.275
X60.085Y-87.27
X60.085Y-88.494
X60.452Y-94.742
X61.214Y-72.898
X61.214Y-73.66
X61.214Y-74.422
X61.214Y-75.184
X61.214Y-75.946
X61.214Y-76.708
X61.214Y-77.47
X61.214Y-78.232
X61.214Y-78.994
X61.214Y-79.756
X61.214Y-80.518
X61.468Y-63.119
X61.468Y-64.135
X61.468Y-69.596
X61.468Y-83.312
X61.468Y-93.472
X61.468Y-94.488
X61.493Y-84.226
X61.519Y-91.542
X61.519Y-92.532
X61.595Y-59.309
X61.595Y-59.944
X61.679Y-85.725
X61.679Y-90.17
X61.722Y-60.706
X61.722Y-65.405
X61.976Y-81.026
X62.103Y-73.914
X62.23Y-61.341
X62.23Y-72.898
X62.357Y-75.565
X62.357Y-77.597
X62.484Y-59.563
X62.484Y-71.12
X62.484Y-78.613
X62.611Y-76.454
X62.611Y-79.756
X62.738Y-71.882
X62.738Y-81.534
X62.865Y-61.849
X62.865Y-74.549
X62.992Y-60.198
X63.119Y-65.532
X63.119Y-85.852
X63.119Y-91.186
X63.246Y-62.611
X63.246Y-63.5
X63.246Y-64.389
X63.246Y-80.391
X63.246Y-82.296
X63.246Y-92.202
X63.246Y-93.218
X63.246Y-94.234
X63.373Y-95.123
X63.5Y-70.866
X63.5Y-79.248
X63.5Y-83.312
X63.5Y-84.328
X63.5Y-85.09
X63.627Y-59.436
X63.627Y-61.087
X63.627Y-73.279
X63.627Y-78.105
X63.754Y-68.961
X63.754Y-75.692
X63.754Y-76.962
X63.881Y-65.532
X63.881Y-72.136
X63.881Y-90.932
X64.008Y-85.852
X64.008Y-92.075
X64.135Y-63.246
X64.135Y-64.389
X64.135Y-81.407
X64.135Y-89.281
X64.262Y-62.103
X64.262Y-74.676
X64.262Y-77.978
X64.262Y-80.01
X64.262Y-82.931
X64.262Y-95.123
X64.516Y-60.325
X64.516Y-70.866
X64.516Y-76.327
X64.516Y-85.09
X64.592Y-69.799
X64.643Y-68.961
X64.643Y-73.279
X64.643Y-78.994
X64.643Y-83.947
X64.643Y-90.932
X64.643Y-93.853
X64.719Y-90.094
X64.77Y-65.532
X64.897Y-59.563
X64.897Y-61.341
X64.897Y-77.343
X64.897Y-85.852
X64.897Y-92.71
X65.024Y-63.246
X65.024Y-64.389
X65.024Y-71.882
X65.024Y-75.311
X65.024Y-89.281
X65.151Y-78.486
X65.151Y-82.55
X65.151Y-95.123
X65.151Y-96.012
X65.151Y-97.282
X65.151Y-97.917
X65.278Y-80.645
X65.278Y-81.407
X65.278Y-91.821
X65.405Y-57.404
X65.405Y-58.801
X65.405Y-62.23
X65.405Y-74.041
X65.405Y-90.551
X65.532Y-68.961
X65.532Y-70.104
X65.532Y-72.771
X65.532Y-79.248
X65.532Y-85.09
X65.532Y-89.789
X65.532Y-94.615
X65.659Y-65.532
X65.659Y-83.82
X65.786Y-85.852
X65.913Y-60.96
X65.913Y-64.008
X65.913Y-71.374
X66.04Y-59.944
X66.04Y-91.313
X66.167Y-62.611
X66.167Y-79.883
X66.167Y-82.804
X66.167Y-89.281
X66.167Y-95.885
X66.294Y-81.534
X66.294Y-84.582
X66.294Y-93.853
X66.421Y-56.896
X66.421Y-65.024
X66.421Y-68.961
X66.421Y-97.536
X66.548Y-59.055
X66.548Y-72.39
X66.548Y-73.533
X66.548Y-92.583
X66.675Y-85.344
X66.675Y-90.678
X66.802Y-58.293
X66.802Y-63.5
X66.802Y-71.247
X66.802Y-83.82
X66.929Y-61.595
X66.929Y-97.917
X67.056Y-64.516
X67.056Y-70.231
X67.056Y-82.55
X67.056Y-94.996
X67.183Y-60.198
X67.183Y-62.484
X67.31Y-68.961
X67.31Y-71.755
X67.31Y-84.836
X67.31Y-92.71
X67.437Y-57.531
X67.437Y-95.885
X67.564Y-81.534
X67.564Y-94.107
X67.564Y-96.774
X67.945Y-60.452
X67.945Y-72.771
X68.072Y-59.055
X68.072Y-98.044
X68.199Y-56.896
X68.326Y-58.293
X68.326Y-92.456
X68.326Y-94.869
X68.453Y-61.341
X68.453Y-93.853
X68.453Y-97.282
X68.58Y-81.534
X68.834Y-72.136
X68.961Y-57.531
X68.961Y-59.436
X69.342Y-60.452
X69.342Y-95.631
X69.469Y-72.898
X69.469Y-93.472
X69.469Y-97.917
X69.723Y-56.896
X69.723Y-92.456
X69.85Y-81.534
X69.85Y-97.028
X70.104Y-58.674
X70.104Y-61.214
X70.104Y-93.218
X70.104Y-94.107
X70.231Y-57.658
X70.231Y-72.009
X70.358Y-62.23
X70.358Y-73.025
X70.358Y-95.504
X70.485Y-60.325
X70.485Y-69.088
X70.485Y-69.977
X70.612Y-63.5
X70.612Y-71.12
X70.612Y-97.917
X70.739Y-59.69
X70.739Y-64.389
X70.739Y-65.659
X70.739Y-67.564
X70.739Y-97.028
X70.866Y-66.548
X70.993Y-96.393
X71.12Y-80.137
X71.12Y-81.788
X71.12Y-82.55
X71.12Y-83.82
X71.12Y-85.09
X71.12Y-86.36
X71.12Y-87.63
X71.12Y-88.646
X71.12Y-89.916
X71.12Y-90.932
X71.12Y-91.948
X71.12Y-93.218
X71.12Y-94.869
X71.247Y-56.896
X71.374Y-61.341
X71.374Y-70.485
X71.374Y-72.771
X71.374Y-73.787
X71.501Y-57.658
X71.501Y-58.801
X71.501Y-66.802
X71.628Y-60.452
X71.628Y-68.326
X71.628Y-71.755
X71.755Y-62.357
X71.755Y-63.246
X71.755Y-64.516
X71.882Y-65.659
X71.882Y-69.469
X71.882Y-74.422
X71.882Y-79.248
X71.882Y-80.01
T2
X68.859Y-62.956
X68.859Y-65.456
X68.859Y-67.956
X68.859Y-70.456
X68.868Y-83.27
X68.868Y-85.77
X68.868Y-88.27
X68.868Y-90.77
T3
X55.499Y-57.658
X55.616Y-97.13
X58.039Y-57.658
X58.156Y-97.13
X60.579Y-57.658
X60.696Y-97.13
X63.119Y-57.658
X63.236Y-97.13
T4
X48.158Y-74.905
X48.158Y-79.985
M30
