%TF.GenerationSoftware,KiCad,Pcbnew,9.0.0*%
%TF.CreationDate,2025-04-16T15:55:05+03:00*%
%TF.ProjectId,power_detector,706f7765-725f-4646-9574-6563746f722e,rev?*%
%TF.SameCoordinates,Original*%
%TF.FileFunction,Copper,L1,Top*%
%TF.FilePolarity,Positive*%
%FSLAX46Y46*%
G04 Gerber Fmt 4.6, Leading zero omitted, Abs format (unit mm)*
G04 Created by KiCad (PCBNEW 9.0.0) date 2025-04-16 15:55:05*
%MOMM*%
%LPD*%
G01*
G04 APERTURE LIST*
G04 Aperture macros list*
%AMRoundRect*
0 Rectangle with rounded corners*
0 $1 Rounding radius*
0 $2 $3 $4 $5 $6 $7 $8 $9 X,Y pos of 4 corners*
0 Add a 4 corners polygon primitive as box body*
4,1,4,$2,$3,$4,$5,$6,$7,$8,$9,$2,$3,0*
0 Add four circle primitives for the rounded corners*
1,1,$1+$1,$2,$3*
1,1,$1+$1,$4,$5*
1,1,$1+$1,$6,$7*
1,1,$1+$1,$8,$9*
0 Add four rect primitives between the rounded corners*
20,1,$1+$1,$2,$3,$4,$5,0*
20,1,$1+$1,$4,$5,$6,$7,0*
20,1,$1+$1,$6,$7,$8,$9,0*
20,1,$1+$1,$8,$9,$2,$3,0*%
G04 Aperture macros list end*
%TA.AperFunction,SMDPad,CuDef*%
%ADD10R,5.540000X0.410000*%
%TD*%
%TA.AperFunction,SMDPad,CuDef*%
%ADD11R,5.540000X3.610000*%
%TD*%
%TA.AperFunction,SMDPad,CuDef*%
%ADD12RoundRect,0.140000X-0.140000X-0.170000X0.140000X-0.170000X0.140000X0.170000X-0.140000X0.170000X0*%
%TD*%
%TA.AperFunction,SMDPad,CuDef*%
%ADD13RoundRect,0.135000X-0.135000X-0.185000X0.135000X-0.185000X0.135000X0.185000X-0.135000X0.185000X0*%
%TD*%
%TA.AperFunction,ComponentPad*%
%ADD14RoundRect,0.250000X0.725000X-0.600000X0.725000X0.600000X-0.725000X0.600000X-0.725000X-0.600000X0*%
%TD*%
%TA.AperFunction,ComponentPad*%
%ADD15O,1.950000X1.700000*%
%TD*%
%TA.AperFunction,SMDPad,CuDef*%
%ADD16RoundRect,0.135000X0.135000X0.185000X-0.135000X0.185000X-0.135000X-0.185000X0.135000X-0.185000X0*%
%TD*%
%TA.AperFunction,ComponentPad*%
%ADD17R,3.000000X3.000000*%
%TD*%
%TA.AperFunction,ComponentPad*%
%ADD18C,3.000000*%
%TD*%
%TA.AperFunction,SMDPad,CuDef*%
%ADD19RoundRect,0.135000X0.185000X-0.135000X0.185000X0.135000X-0.185000X0.135000X-0.185000X-0.135000X0*%
%TD*%
%TA.AperFunction,SMDPad,CuDef*%
%ADD20R,0.350000X1.050000*%
%TD*%
%TA.AperFunction,SMDPad,CuDef*%
%ADD21R,1.050000X0.350000*%
%TD*%
%TA.AperFunction,SMDPad,CuDef*%
%ADD22R,2.250000X2.250000*%
%TD*%
%TA.AperFunction,ComponentPad*%
%ADD23R,1.700000X1.700000*%
%TD*%
%TA.AperFunction,ComponentPad*%
%ADD24O,1.700000X1.700000*%
%TD*%
%TA.AperFunction,ViaPad*%
%ADD25C,0.600000*%
%TD*%
%TA.AperFunction,Conductor*%
%ADD26C,0.500000*%
%TD*%
%TA.AperFunction,Conductor*%
%ADD27C,0.355250*%
%TD*%
G04 APERTURE END LIST*
D10*
%TO.P,J8,1*%
%TO.N,Net-(C12-Pad1)*%
X46964600Y-87606400D03*
D11*
%TO.P,J8,G1*%
%TO.N,GND*%
X46964600Y-85346400D03*
%TO.P,J8,G2*%
X46964600Y-89866400D03*
%TD*%
D10*
%TO.P,J5,1*%
%TO.N,Net-(C1-Pad1)*%
X46990000Y-67336000D03*
D11*
%TO.P,J5,G1*%
%TO.N,GND*%
X46990000Y-65076000D03*
%TO.P,J5,G2*%
X46990000Y-69596000D03*
%TD*%
D12*
%TO.P,C12,1*%
%TO.N,Net-(C12-Pad1)*%
X55428000Y-87604600D03*
%TO.P,C12,2*%
%TO.N,Net-(IC2-RFIN+)*%
X56388000Y-87604600D03*
%TD*%
D13*
%TO.P,R5,1*%
%TO.N,GND*%
X57529000Y-71160100D03*
%TO.P,R5,2*%
%TO.N,/TC2_ref*%
X58549000Y-71160100D03*
%TD*%
D14*
%TO.P,J9,1,Pin_1*%
%TO.N,GND*%
X68867800Y-90770400D03*
D15*
%TO.P,J9,2,Pin_2*%
%TO.N,/vrms_fow*%
X68867800Y-88270400D03*
%TO.P,J9,3,Pin_3*%
%TO.N,/mcu_adc_fow*%
X68867800Y-85770400D03*
%TO.P,J9,4,Pin_4*%
%TO.N,GND*%
X68867800Y-83270400D03*
%TD*%
D12*
%TO.P,C11,1*%
%TO.N,GND*%
X55425400Y-88620600D03*
%TO.P,C11,2*%
%TO.N,Net-(IC2-RFIN-)*%
X56385400Y-88620600D03*
%TD*%
%TO.P,C4,1*%
%TO.N,+5V*%
X59819600Y-64109600D03*
%TO.P,C4,2*%
%TO.N,GND*%
X60779600Y-64109600D03*
%TD*%
D13*
%TO.P,R3,1*%
%TO.N,GND*%
X56716200Y-64160400D03*
%TO.P,R3,2*%
%TO.N,/vtgt_ref*%
X57736200Y-64160400D03*
%TD*%
D12*
%TO.P,C5,1*%
%TO.N,+5V*%
X59819600Y-63119000D03*
%TO.P,C5,2*%
%TO.N,GND*%
X60779600Y-63119000D03*
%TD*%
D16*
%TO.P,R9,1*%
%TO.N,/vref_fow*%
X58879200Y-83286600D03*
%TO.P,R9,2*%
%TO.N,/vtgt_fow*%
X57859200Y-83286600D03*
%TD*%
D17*
%TO.P,J3,1,Pin_1*%
%TO.N,GND*%
X48158400Y-74904600D03*
D18*
%TO.P,J3,2,Pin_2*%
%TO.N,+5V*%
X48158400Y-79984600D03*
%TD*%
D19*
%TO.P,R8,1*%
%TO.N,GND*%
X53848000Y-88622600D03*
%TO.P,R8,2*%
%TO.N,Net-(C12-Pad1)*%
X53848000Y-87602600D03*
%TD*%
D16*
%TO.P,R2,1*%
%TO.N,/vref_ref*%
X58752200Y-63144400D03*
%TO.P,R2,2*%
%TO.N,/vtgt_ref*%
X57732200Y-63144400D03*
%TD*%
D19*
%TO.P,R1,1*%
%TO.N,GND*%
X53848000Y-68328000D03*
%TO.P,R1,2*%
%TO.N,Net-(C1-Pad1)*%
X53848000Y-67308000D03*
%TD*%
D13*
%TO.P,R10,1*%
%TO.N,GND*%
X56843200Y-84328000D03*
%TO.P,R10,2*%
%TO.N,/vtgt_fow*%
X57863200Y-84328000D03*
%TD*%
D12*
%TO.P,C13,1*%
%TO.N,+5V*%
X59845000Y-84226400D03*
%TO.P,C13,2*%
%TO.N,GND*%
X60805000Y-84226400D03*
%TD*%
D20*
%TO.P,IC1,1,TADJ/PWDN*%
%TO.N,/TC2_ref*%
X58533000Y-69485000D03*
%TO.P,IC1,2,NIC_1*%
%TO.N,unconnected-(IC1-NIC_1-Pad2)*%
X59183000Y-69485000D03*
%TO.P,IC1,3,VPOS1*%
%TO.N,+5V*%
X59833000Y-69485000D03*
%TO.P,IC1,4,GND1*%
%TO.N,GND*%
X60483000Y-69485000D03*
D21*
%TO.P,IC1,5,CRMS*%
%TO.N,Net-(IC1-CRMS)*%
X61358000Y-68610000D03*
%TO.P,IC1,6,VRMS*%
%TO.N,/vrms_ref*%
X61358000Y-67960000D03*
%TO.P,IC1,7,VSET*%
X61358000Y-67310000D03*
%TO.P,IC1,8,VTEMP*%
%TO.N,/mcu_adc_ref*%
X61358000Y-66660000D03*
D20*
%TO.P,IC1,9,GND2*%
%TO.N,GND*%
X60483000Y-65785000D03*
%TO.P,IC1,10,VPOS2*%
%TO.N,+5V*%
X59833000Y-65785000D03*
%TO.P,IC1,11,VREF*%
%TO.N,/vref_ref*%
X59183000Y-65785000D03*
%TO.P,IC1,12,VTGT*%
%TO.N,/vtgt_ref*%
X58533000Y-65785000D03*
D21*
%TO.P,IC1,13,NIC_2*%
%TO.N,unconnected-(IC1-NIC_2-Pad13)*%
X57658000Y-66660000D03*
%TO.P,IC1,14,RFIN+*%
%TO.N,Net-(IC1-RFIN+)*%
X57658000Y-67310000D03*
%TO.P,IC1,15,RFIN-*%
%TO.N,Net-(IC1-RFIN-)*%
X57658000Y-67960000D03*
%TO.P,IC1,16,NIC_3*%
%TO.N,unconnected-(IC1-NIC_3-Pad16)*%
X57658000Y-68610000D03*
D22*
%TO.P,IC1,17,EP*%
%TO.N,GND*%
X59508000Y-67635000D03*
%TD*%
D12*
%TO.P,C9,1*%
%TO.N,+5V*%
X59845000Y-91541600D03*
%TO.P,C9,2*%
%TO.N,GND*%
X60805000Y-91541600D03*
%TD*%
%TO.P,C2,1*%
%TO.N,+5V*%
X59847600Y-71145400D03*
%TO.P,C2,2*%
%TO.N,GND*%
X60807600Y-71145400D03*
%TD*%
%TO.P,C10,1*%
%TO.N,Net-(IC2-CRMS)*%
X63045400Y-90093800D03*
%TO.P,C10,2*%
%TO.N,GND*%
X64005400Y-90093800D03*
%TD*%
D14*
%TO.P,J10,1,Pin_1*%
%TO.N,GND*%
X68859400Y-70455800D03*
D15*
%TO.P,J10,2,Pin_2*%
%TO.N,/vrms_ref*%
X68859400Y-67955800D03*
%TO.P,J10,3,Pin_3*%
%TO.N,/mcu_adc_ref*%
X68859400Y-65455800D03*
%TO.P,J10,4,Pin_4*%
%TO.N,GND*%
X68859400Y-62955800D03*
%TD*%
D20*
%TO.P,IC2,1,TADJ/PWDN*%
%TO.N,/TC2_fow*%
X58533000Y-89775000D03*
%TO.P,IC2,2,NIC_1*%
%TO.N,unconnected-(IC2-NIC_1-Pad2)*%
X59183000Y-89775000D03*
%TO.P,IC2,3,VPOS1*%
%TO.N,+5V*%
X59833000Y-89775000D03*
%TO.P,IC2,4,GND1*%
%TO.N,GND*%
X60483000Y-89775000D03*
D21*
%TO.P,IC2,5,CRMS*%
%TO.N,Net-(IC2-CRMS)*%
X61358000Y-88900000D03*
%TO.P,IC2,6,VRMS*%
%TO.N,/vrms_fow*%
X61358000Y-88250000D03*
%TO.P,IC2,7,VSET*%
X61358000Y-87600000D03*
%TO.P,IC2,8,VTEMP*%
%TO.N,/mcu_adc_fow*%
X61358000Y-86950000D03*
D20*
%TO.P,IC2,9,GND2*%
%TO.N,GND*%
X60483000Y-86075000D03*
%TO.P,IC2,10,VPOS2*%
%TO.N,+5V*%
X59833000Y-86075000D03*
%TO.P,IC2,11,VREF*%
%TO.N,/vref_fow*%
X59183000Y-86075000D03*
%TO.P,IC2,12,VTGT*%
%TO.N,/vtgt_fow*%
X58533000Y-86075000D03*
D21*
%TO.P,IC2,13,NIC_2*%
%TO.N,unconnected-(IC2-NIC_2-Pad13)*%
X57658000Y-86950000D03*
%TO.P,IC2,14,RFIN+*%
%TO.N,Net-(IC2-RFIN+)*%
X57658000Y-87600000D03*
%TO.P,IC2,15,RFIN-*%
%TO.N,Net-(IC2-RFIN-)*%
X57658000Y-88250000D03*
%TO.P,IC2,16,NIC_3*%
%TO.N,unconnected-(IC2-NIC_3-Pad16)*%
X57658000Y-88900000D03*
D22*
%TO.P,IC2,17,EP*%
%TO.N,GND*%
X59508000Y-87925000D03*
%TD*%
D16*
%TO.P,R4,1*%
%TO.N,/TC2_ref*%
X58551000Y-72176100D03*
%TO.P,R4,2*%
%TO.N,/vref_ref*%
X57531000Y-72176100D03*
%TD*%
D12*
%TO.P,C14,1*%
%TO.N,+5V*%
X59842400Y-83312000D03*
%TO.P,C14,2*%
%TO.N,GND*%
X60802400Y-83312000D03*
%TD*%
%TO.P,C8,1*%
%TO.N,+5V*%
X59845000Y-92532200D03*
%TO.P,C8,2*%
%TO.N,GND*%
X60805000Y-92532200D03*
%TD*%
%TO.P,C6,1*%
%TO.N,GND*%
X55425400Y-68326000D03*
%TO.P,C6,2*%
%TO.N,Net-(IC1-RFIN-)*%
X56385400Y-68326000D03*
%TD*%
D16*
%TO.P,R6,1*%
%TO.N,/TC2_fow*%
X58523600Y-92100400D03*
%TO.P,R6,2*%
%TO.N,/vref_fow*%
X57503600Y-92100400D03*
%TD*%
D12*
%TO.P,C7,1*%
%TO.N,Net-(IC1-CRMS)*%
X62921000Y-69799200D03*
%TO.P,C7,2*%
%TO.N,GND*%
X63881000Y-69799200D03*
%TD*%
D13*
%TO.P,R7,1*%
%TO.N,GND*%
X57503600Y-91084400D03*
%TO.P,R7,2*%
%TO.N,/TC2_fow*%
X58523600Y-91084400D03*
%TD*%
D12*
%TO.P,C1,1*%
%TO.N,Net-(C1-Pad1)*%
X55428000Y-67310000D03*
%TO.P,C1,2*%
%TO.N,Net-(IC1-RFIN+)*%
X56388000Y-67310000D03*
%TD*%
D23*
%TO.P,J6,1,Pin_1*%
%TO.N,GND*%
X63236000Y-97129600D03*
D24*
%TO.P,J6,2,Pin_2*%
%TO.N,/vtgt_fow*%
X60696000Y-97129600D03*
%TO.P,J6,3,Pin_3*%
%TO.N,/TC2_fow*%
X58156000Y-97129600D03*
%TO.P,J6,4,Pin_4*%
%TO.N,/vref_fow*%
X55616000Y-97129600D03*
%TD*%
D23*
%TO.P,J7,1,Pin_1*%
%TO.N,GND*%
X63119000Y-57658000D03*
D24*
%TO.P,J7,2,Pin_2*%
%TO.N,/TC2_ref*%
X60579000Y-57658000D03*
%TO.P,J7,3,Pin_3*%
%TO.N,/vref_ref*%
X58039000Y-57658000D03*
%TO.P,J7,4,Pin_4*%
%TO.N,/vtgt_ref*%
X55499000Y-57658000D03*
%TD*%
D12*
%TO.P,C3,1*%
%TO.N,+5V*%
X59847600Y-72136000D03*
%TO.P,C3,2*%
%TO.N,GND*%
X60807600Y-72136000D03*
%TD*%
D25*
%TO.N,+5V*%
X59833000Y-64820800D03*
X59944000Y-73279000D03*
X59817000Y-90830400D03*
X59833000Y-85004400D03*
X59842400Y-70408800D03*
X59817000Y-81280000D03*
%TO.N,GND*%
X66040000Y-59944000D03*
X63246000Y-93218000D03*
X70993000Y-96393000D03*
X54864000Y-65532000D03*
X70739000Y-59690000D03*
X50292000Y-74422000D03*
X58928000Y-74168000D03*
X64770000Y-65532000D03*
X65151000Y-96012000D03*
X55880000Y-76200000D03*
X71120000Y-89916000D03*
X54610000Y-77978000D03*
X63627000Y-73279000D03*
X55118000Y-73914000D03*
X50546000Y-82550000D03*
X65913000Y-60960000D03*
X53594000Y-83566000D03*
X64516000Y-70866000D03*
X52324000Y-76962000D03*
X63246000Y-82296000D03*
X67183000Y-60198000D03*
X51308000Y-68326000D03*
X47752000Y-92456000D03*
X54610000Y-69088000D03*
X53340000Y-71120000D03*
X61722000Y-60706000D03*
X50038000Y-89408000D03*
X45974000Y-96012000D03*
X52832000Y-63500000D03*
X66802000Y-83820000D03*
X64897000Y-92710000D03*
X65786000Y-85852000D03*
X71882000Y-65659000D03*
X63119000Y-85852000D03*
X46990000Y-86614000D03*
X70231000Y-57658000D03*
X54864000Y-85598000D03*
X68453000Y-97282000D03*
X64643000Y-73279000D03*
X68326000Y-58293000D03*
X55626000Y-93726000D03*
X55626000Y-63500000D03*
X60017575Y-68275200D03*
X51308000Y-74422000D03*
X70358000Y-73025000D03*
X46736000Y-98044000D03*
X45720000Y-73660000D03*
X63119000Y-65532000D03*
X61214000Y-75946000D03*
X51562000Y-76454000D03*
X63754000Y-75692000D03*
X63500000Y-83312000D03*
X46482000Y-62738000D03*
X52578000Y-81026000D03*
X52578000Y-72898000D03*
X64643000Y-78994000D03*
X69469000Y-72898000D03*
X54356000Y-95758000D03*
X55880000Y-81026000D03*
X56388000Y-83439000D03*
X45212000Y-96266000D03*
X57658000Y-76200000D03*
X54610000Y-91186000D03*
X48260000Y-62738000D03*
X54762400Y-88620600D03*
X63881000Y-90932000D03*
X58953400Y-88544400D03*
X52070000Y-92456000D03*
X50038000Y-90170000D03*
X71882000Y-74422000D03*
X54356000Y-59944000D03*
X62611000Y-79756000D03*
X71120000Y-85090000D03*
X45974000Y-94488000D03*
X71882000Y-79248000D03*
X71120000Y-86360000D03*
X64262000Y-80010000D03*
X69342000Y-95631000D03*
X45212000Y-95250000D03*
X46228000Y-59182000D03*
X66040000Y-91313000D03*
X64262000Y-77978000D03*
X69469000Y-97917000D03*
X53213000Y-86487000D03*
X52959000Y-89408000D03*
X71374000Y-70485000D03*
X54610000Y-93726000D03*
X46736000Y-92456000D03*
X54102000Y-61976000D03*
X54102000Y-65278000D03*
X52324000Y-78994000D03*
X67564000Y-81534000D03*
X70612000Y-97917000D03*
X65532000Y-79248000D03*
X70485000Y-60325000D03*
X65913000Y-64008000D03*
X66421000Y-65024000D03*
X71755000Y-62357000D03*
X67437000Y-57531000D03*
X65405000Y-57404000D03*
X64135000Y-63246000D03*
X65151000Y-97282000D03*
X65532000Y-70104000D03*
X45339000Y-60706000D03*
X52578000Y-85090000D03*
X71120000Y-94869000D03*
X64643000Y-83947000D03*
X54864000Y-72644000D03*
X63246000Y-80391000D03*
X66421000Y-56896000D03*
X48133000Y-68326000D03*
X70485000Y-69088000D03*
X71882000Y-80010000D03*
X65278000Y-81407000D03*
X53340000Y-81026000D03*
X50292000Y-75438000D03*
X61595000Y-59309000D03*
X62865000Y-74549000D03*
X48133000Y-66294000D03*
X54610000Y-76200000D03*
X54610000Y-62992000D03*
X51816000Y-85598000D03*
X59563000Y-93726000D03*
X66802000Y-63500000D03*
X50038000Y-91694000D03*
X54102000Y-71882000D03*
X54864000Y-61468000D03*
X61468000Y-94488000D03*
X51308000Y-70104000D03*
X69469000Y-93472000D03*
X52578000Y-98044000D03*
X64719200Y-90093800D03*
X50546000Y-71882000D03*
X48133000Y-88646000D03*
X46482000Y-97028000D03*
X45720000Y-75438000D03*
X62484000Y-71120000D03*
X63500000Y-70866000D03*
X49784000Y-71882000D03*
X45974000Y-68326000D03*
X50292000Y-63246000D03*
X57277000Y-90043000D03*
X56896000Y-81788000D03*
X51816000Y-73914000D03*
X60084575Y-87270391D03*
X53340000Y-85598000D03*
X61214000Y-79756000D03*
X53086000Y-61468000D03*
X51943000Y-88646000D03*
X68453000Y-61341000D03*
X51308000Y-65278000D03*
X54356000Y-60960000D03*
X49022000Y-86614000D03*
X53086000Y-68326000D03*
X66675000Y-85344000D03*
X67310000Y-84836000D03*
X63246000Y-62611000D03*
X55372000Y-76708000D03*
X66548000Y-92583000D03*
X57912000Y-74168000D03*
X54610000Y-94742000D03*
X48768000Y-82550000D03*
X71374000Y-72771000D03*
X57404000Y-70104000D03*
X53594000Y-60706000D03*
X51816000Y-71882000D03*
X66548000Y-59055000D03*
X71501000Y-66802000D03*
X63754000Y-76962000D03*
X63119000Y-91186000D03*
X65405000Y-58801000D03*
X66802000Y-58293000D03*
X58928000Y-75184000D03*
X53340000Y-64262000D03*
X56134000Y-77978000D03*
X56388000Y-74676000D03*
X59309000Y-60452000D03*
X65024000Y-71882000D03*
X66675000Y-90678000D03*
X65151000Y-95123000D03*
X51816000Y-77978000D03*
X50546000Y-85090000D03*
X50292000Y-78232000D03*
X69723000Y-56896000D03*
X58420000Y-78994000D03*
X51816000Y-91186000D03*
X53594000Y-76962000D03*
X44969379Y-66294004D03*
X61468000Y-63119000D03*
X47244000Y-62738000D03*
X61214000Y-78994000D03*
X51308000Y-75692000D03*
X53086000Y-93980000D03*
X71501000Y-57658000D03*
X52578000Y-90424000D03*
X59690000Y-61087000D03*
X55626000Y-72390000D03*
X56642000Y-82804000D03*
X63373000Y-95123000D03*
X66929000Y-97917000D03*
X45974000Y-66294000D03*
X65532000Y-85090000D03*
X66294000Y-81534000D03*
X55880000Y-75438000D03*
X59436000Y-94742000D03*
X61722000Y-65405000D03*
X66167000Y-95885000D03*
X63246000Y-94234000D03*
X64262000Y-95123000D03*
X50292000Y-66294000D03*
X54356000Y-64262000D03*
X55626000Y-92837000D03*
X66421000Y-97536000D03*
X53086000Y-69088000D03*
X46482000Y-93472000D03*
X64897000Y-61341000D03*
X56388000Y-82296000D03*
X53594000Y-81788000D03*
X66548000Y-73533000D03*
X54229000Y-66167000D03*
X46482000Y-58166000D03*
X65532000Y-72771000D03*
X49022000Y-62738000D03*
X61468000Y-69596000D03*
X45720000Y-92456000D03*
X61493400Y-84226400D03*
X44968627Y-88646098D03*
X51816000Y-70866000D03*
X70612000Y-63500000D03*
X46990000Y-66294000D03*
X51816000Y-62738000D03*
X69850000Y-97028000D03*
X54610000Y-71120000D03*
X62230000Y-72898000D03*
X53848000Y-59690000D03*
X53340000Y-90932000D03*
X45339000Y-59563000D03*
X66294000Y-93853000D03*
X70358000Y-62230000D03*
X51308000Y-69088000D03*
X49784000Y-62738000D03*
X68453000Y-93853000D03*
X65024000Y-89281000D03*
X71120000Y-82550000D03*
X61679375Y-90170000D03*
X53848000Y-63500000D03*
X52832000Y-91948000D03*
X46228000Y-60198000D03*
X45974000Y-88646000D03*
X53340000Y-94996000D03*
X53848000Y-89331800D03*
X55880000Y-81788000D03*
X53086000Y-73914000D03*
X45974000Y-86614000D03*
X54102000Y-70104000D03*
X71120000Y-80137000D03*
X55118000Y-60452000D03*
X63881000Y-72136000D03*
X65913000Y-71374000D03*
X56134000Y-71120000D03*
X55372000Y-62230000D03*
X53594000Y-74930000D03*
X61214000Y-73660000D03*
X66548000Y-72390000D03*
X53086000Y-62738000D03*
X67437000Y-95885000D03*
X60452000Y-94742000D03*
X56896000Y-69596000D03*
X53848000Y-84582000D03*
X62484000Y-78613000D03*
X61468000Y-83312000D03*
X52324000Y-69088000D03*
X54610000Y-81788000D03*
X62357000Y-75565000D03*
X70612000Y-71120000D03*
X56642000Y-70358000D03*
X65151000Y-78486000D03*
X50546000Y-71120000D03*
X57404000Y-77978000D03*
X56388000Y-85344000D03*
X50546000Y-85852000D03*
X51054000Y-88646000D03*
X63881000Y-65532000D03*
X58928000Y-77216000D03*
X64643000Y-93853000D03*
X52578000Y-84328000D03*
X55626000Y-91948000D03*
X53848000Y-90170000D03*
X53340000Y-78994000D03*
X71628000Y-71755000D03*
X50292000Y-73660000D03*
X62865000Y-61849000D03*
X54737000Y-89662000D03*
X55499000Y-83947000D03*
X53848000Y-97282000D03*
X52578000Y-92964000D03*
X53340000Y-72390000D03*
X61214000Y-80518000D03*
X71755000Y-63246000D03*
X66167000Y-82804000D03*
X52324000Y-65278000D03*
X47752000Y-82550000D03*
X68580000Y-81534000D03*
X52324000Y-86614000D03*
X51562000Y-86614000D03*
X64643000Y-68961000D03*
X51054000Y-64516000D03*
X56134000Y-69596000D03*
X68834000Y-72136000D03*
X64135000Y-89281000D03*
X70739000Y-97028000D03*
X70104000Y-58674000D03*
X57023000Y-65532000D03*
X50165000Y-88646000D03*
X67310000Y-71755000D03*
X52324000Y-74422000D03*
X71120000Y-88646000D03*
X56134000Y-61595000D03*
X71247000Y-56896000D03*
X52832000Y-88646000D03*
X64008000Y-85852000D03*
X71120000Y-81788000D03*
X52832000Y-70104000D03*
X66929000Y-61595000D03*
X49530000Y-77470000D03*
X54356000Y-73152000D03*
X70739000Y-65659000D03*
X64008000Y-92075000D03*
X51562000Y-72898000D03*
X71120000Y-91948000D03*
X50038000Y-72898000D03*
X52832000Y-73406000D03*
X52324000Y-64516000D03*
X50292000Y-65278000D03*
X54102000Y-81026000D03*
X70739000Y-67564000D03*
X65151000Y-82550000D03*
X45339000Y-61722000D03*
X70231000Y-72009000D03*
X68199000Y-56896000D03*
X69723000Y-92456000D03*
X57658000Y-75184000D03*
X63246000Y-63500000D03*
X46990000Y-88646000D03*
X64897000Y-85852000D03*
X63627000Y-61087000D03*
X50292000Y-81534000D03*
X65024000Y-64389000D03*
X61518800Y-92532200D03*
X53848000Y-91948000D03*
X68072000Y-59055000D03*
X65659000Y-65532000D03*
X51054000Y-77470000D03*
X61214000Y-76708000D03*
X53848000Y-73660000D03*
X65659000Y-83820000D03*
X65532000Y-89789000D03*
X51816000Y-89662000D03*
X69342000Y-60452000D03*
X51054000Y-91948000D03*
X46736000Y-71882000D03*
X71628000Y-60452000D03*
X54356000Y-83566000D03*
X63500000Y-79248000D03*
X51054000Y-82042000D03*
X45212000Y-97282000D03*
X70739000Y-64389000D03*
X51054000Y-63754000D03*
X56794400Y-91084400D03*
X66167000Y-62611000D03*
X50800000Y-72898000D03*
X55626000Y-70358000D03*
X55118000Y-81026000D03*
X44969379Y-86614004D03*
X52832000Y-97282000D03*
X58945225Y-87299800D03*
X64262000Y-74676000D03*
X55372000Y-82804000D03*
X67310000Y-92710000D03*
X65278000Y-91821000D03*
X55753000Y-61087000D03*
X53594000Y-58420000D03*
X59309000Y-59436000D03*
X62992000Y-60198000D03*
X68961000Y-57531000D03*
X68961000Y-59436000D03*
X61595000Y-59944000D03*
X56134000Y-84328000D03*
X46482000Y-77724000D03*
X61214000Y-72898000D03*
X57658000Y-81026000D03*
X65532000Y-68961000D03*
X61468000Y-93472000D03*
X67564000Y-96774000D03*
X67056000Y-82550000D03*
X71755000Y-64516000D03*
X67564000Y-94107000D03*
X46736000Y-82550000D03*
X52324000Y-68326000D03*
X51308000Y-78994000D03*
X50546000Y-70104000D03*
X63500000Y-85090000D03*
X45720000Y-62738000D03*
X65405000Y-74041000D03*
X56845200Y-71145400D03*
X50038000Y-86614000D03*
X52578000Y-83312000D03*
X51308000Y-66294000D03*
X62103000Y-73914000D03*
X45720000Y-81280000D03*
X49022000Y-66294000D03*
X71120000Y-93218000D03*
X68326000Y-94869000D03*
X61214000Y-78232000D03*
X64516000Y-76327000D03*
X67056000Y-70231000D03*
X67183000Y-62484000D03*
X55245000Y-66167000D03*
X67056000Y-64516000D03*
X55626000Y-64897000D03*
X63246000Y-64389000D03*
X51308000Y-83312000D03*
X65151000Y-97917000D03*
X51816000Y-63754000D03*
X64262000Y-62103000D03*
X69850000Y-81534000D03*
X53340000Y-96266000D03*
X63627000Y-59436000D03*
X56261000Y-66167000D03*
X54356000Y-75438000D03*
X57404000Y-73406000D03*
X57404000Y-85852000D03*
X61679375Y-85725000D03*
X61214000Y-77470000D03*
X71120000Y-87630000D03*
X66802000Y-71247000D03*
X55626000Y-69088000D03*
X64135000Y-64389000D03*
X52578000Y-71882000D03*
X53340000Y-82804000D03*
X67945000Y-72771000D03*
X50292000Y-76962000D03*
X51562000Y-81280000D03*
X61976000Y-81026000D03*
X70866000Y-66548000D03*
X52324000Y-66294000D03*
X55626000Y-71628000D03*
X54356000Y-74422000D03*
X54711600Y-68351400D03*
X55880000Y-91059000D03*
X54102000Y-86487000D03*
X63754000Y-68961000D03*
X67056000Y-94996000D03*
X65405000Y-62230000D03*
X68326000Y-92456000D03*
X49022000Y-88646000D03*
X45720000Y-78740000D03*
X47752000Y-71882000D03*
X50800000Y-86614000D03*
X52070000Y-81788000D03*
X52578000Y-62230000D03*
X47498000Y-61976000D03*
X70104000Y-61214000D03*
X44968627Y-68326098D03*
X56388000Y-78994000D03*
X58928000Y-78232000D03*
X56515000Y-63373000D03*
X63500000Y-84328000D03*
X56642000Y-81026000D03*
X45847000Y-57023000D03*
X50546000Y-84074000D03*
X54356000Y-82804000D03*
X70358000Y-95504000D03*
X66421000Y-68961000D03*
X46990000Y-68326000D03*
X71120000Y-90932000D03*
X64643000Y-90932000D03*
X64135000Y-81407000D03*
X56642000Y-86233000D03*
X64897000Y-77343000D03*
X61214000Y-75184000D03*
X55118000Y-74930000D03*
X63627000Y-78105000D03*
X64592200Y-69799200D03*
X45212000Y-94234000D03*
X54737000Y-86360000D03*
X53340000Y-77978000D03*
X56896000Y-74930000D03*
X51054000Y-90424000D03*
X51562000Y-82550000D03*
X66294000Y-84582000D03*
X62738000Y-71882000D03*
X48133000Y-86614000D03*
X45720000Y-98044000D03*
X60084575Y-88493600D03*
X52070000Y-69850000D03*
X45720000Y-71882000D03*
X66167000Y-79883000D03*
X65532000Y-94615000D03*
X53340000Y-65278000D03*
X52832000Y-76200000D03*
X61518800Y-91541600D03*
X53594000Y-98044000D03*
X58869025Y-67005200D03*
X71374000Y-61341000D03*
X50546000Y-69088000D03*
X49784000Y-82550000D03*
X49022000Y-68326000D03*
X51054000Y-62992000D03*
X50292000Y-76200000D03*
X45720000Y-76200000D03*
X70104000Y-94107000D03*
X62738000Y-81534000D03*
X61468000Y-64135000D03*
X45466000Y-80264000D03*
X71120000Y-83820000D03*
X70485000Y-69977000D03*
X65024000Y-75311000D03*
X64516000Y-85090000D03*
X45720000Y-72644000D03*
X47498000Y-77216000D03*
X54610000Y-84582000D03*
X58420000Y-81026000D03*
X55753000Y-86487000D03*
X67310000Y-68961000D03*
X55118000Y-70866000D03*
X45720000Y-82550000D03*
X56515000Y-62357000D03*
X58869025Y-68300600D03*
X65278000Y-80645000D03*
X56642000Y-73406000D03*
X54356000Y-78994000D03*
X62230000Y-61341000D03*
X63246000Y-92202000D03*
X57404000Y-78994000D03*
X56388000Y-65024000D03*
X71628000Y-68326000D03*
X62357000Y-77597000D03*
X48514000Y-77216000D03*
X55499000Y-84963000D03*
X64897000Y-59563000D03*
X67945000Y-60452000D03*
X53848000Y-93472000D03*
X54610000Y-70358000D03*
X55372000Y-78994000D03*
X45720000Y-77216000D03*
X56007000Y-89916000D03*
X45212000Y-93218000D03*
X54610000Y-92456000D03*
X51562000Y-84328000D03*
X55118000Y-64262000D03*
X50292000Y-68326000D03*
X45720000Y-74676000D03*
X64516000Y-60325000D03*
X71882000Y-69469000D03*
X53340000Y-57404000D03*
X65024000Y-63246000D03*
X50038000Y-90932000D03*
X62484000Y-59563000D03*
X46355000Y-61468000D03*
X71374000Y-73787000D03*
X61214000Y-74422000D03*
X55880000Y-73152000D03*
X62611000Y-76454000D03*
X71501000Y-58801000D03*
X58928000Y-76200000D03*
X53848000Y-69037200D03*
X45339000Y-58293000D03*
X50546000Y-83312000D03*
X48768000Y-71882000D03*
X57658000Y-77216000D03*
X56007000Y-64160400D03*
X70104000Y-93218000D03*
X52324000Y-75438000D03*
X68072000Y-98044000D03*
X64262000Y-82931000D03*
X53213000Y-66294000D03*
X66167000Y-89281000D03*
X65405000Y-90551000D03*
X50292000Y-64262000D03*
X60017575Y-67005200D03*
X59944000Y-61976000D03*
%TO.N,/vref_ref*%
X56769000Y-72150700D03*
X58940700Y-64198500D03*
%TO.N,/TC2_ref*%
X58572400Y-73202800D03*
%TO.N,/vref_fow*%
X56819800Y-92125800D03*
X58902600Y-84302600D03*
%TO.N,/vtgt_fow*%
X57861200Y-82473800D03*
%TD*%
D26*
%TO.N,+5V*%
X59847600Y-69499600D02*
X59833000Y-69485000D01*
X59847600Y-72136000D02*
X59847600Y-69499600D01*
X59944000Y-72232400D02*
X59847600Y-72136000D01*
X59944000Y-73279000D02*
X59944000Y-72232400D01*
X59845000Y-89787000D02*
X59833000Y-89775000D01*
X59845000Y-91541600D02*
X59845000Y-89787000D01*
D27*
X59817000Y-89791000D02*
X59833000Y-89775000D01*
D26*
X59845000Y-90858400D02*
X59817000Y-90830400D01*
X59845000Y-91541600D02*
X59845000Y-90858400D01*
X59845000Y-92532200D02*
X59845000Y-91541600D01*
X59833000Y-85004400D02*
X59833000Y-86075000D01*
X59845000Y-84992400D02*
X59833000Y-85004400D01*
X59845000Y-84226400D02*
X59845000Y-84992400D01*
X59842400Y-84223800D02*
X59845000Y-84226400D01*
X59842400Y-83312000D02*
X59842400Y-84223800D01*
X59817000Y-83286600D02*
X59842400Y-83312000D01*
X59817000Y-81280000D02*
X59817000Y-83286600D01*
D27*
%TO.N,Net-(IC1-RFIN+)*%
X56388000Y-67310000D02*
X57658000Y-67310000D01*
%TO.N,Net-(C1-Pad1)*%
X53818000Y-67336000D02*
X53848000Y-67306000D01*
X46990000Y-67336000D02*
X53818000Y-67336000D01*
X55426000Y-67308000D02*
X55428000Y-67310000D01*
X53848000Y-67308000D02*
X55172000Y-67308000D01*
%TO.N,Net-(IC1-RFIN-)*%
X56385400Y-68326000D02*
X56751400Y-67960000D01*
X56751400Y-67960000D02*
X57658000Y-67960000D01*
%TO.N,Net-(IC1-CRMS)*%
X61358000Y-68610000D02*
X62036600Y-68610000D01*
X62036600Y-68610000D02*
X62921000Y-69494400D01*
X62921000Y-69494400D02*
X62921000Y-69799200D01*
%TO.N,+5V*%
X59842400Y-70408800D02*
X59842400Y-71140200D01*
X59842400Y-84995000D02*
X59833000Y-85004400D01*
D26*
X59819600Y-63119000D02*
X59819600Y-64807400D01*
D27*
X59819600Y-64807400D02*
X59833000Y-64820800D01*
X59833000Y-90814400D02*
X59817000Y-90830400D01*
D26*
X59833000Y-64820800D02*
X59833000Y-65785000D01*
D27*
X59822200Y-63119000D02*
X59810200Y-63131000D01*
X59842400Y-71140200D02*
X59847600Y-71145400D01*
X59847600Y-71145400D02*
X59833000Y-71130800D01*
X59833000Y-70399400D02*
X59842400Y-70408800D01*
%TO.N,GND*%
X46990000Y-89662000D02*
X45974000Y-88646000D01*
X61696600Y-65379600D02*
X61722000Y-65405000D01*
X46990000Y-89916000D02*
X47752000Y-89916000D01*
X46990000Y-65076000D02*
X46990000Y-65151000D01*
X46990000Y-85396000D02*
X46990000Y-86614000D01*
X46990000Y-85396000D02*
X46187383Y-85396000D01*
X59508000Y-67765625D02*
X60017575Y-68275200D01*
X55425400Y-88620600D02*
X54762400Y-88620600D01*
X59508000Y-67635000D02*
X59508000Y-67514775D01*
X59508000Y-67635000D02*
X59498825Y-67635000D01*
X59508000Y-67661625D02*
X58869025Y-68300600D01*
X59508000Y-67635000D02*
X59508000Y-67661625D01*
X61442600Y-63119000D02*
X60779600Y-63119000D01*
X64005400Y-90093800D02*
X64719200Y-90093800D01*
X61603175Y-90093800D02*
X61679375Y-90170000D01*
X46990000Y-69596000D02*
X46238529Y-69596000D01*
X61357000Y-69485000D02*
X61468000Y-69596000D01*
X46990000Y-65076000D02*
X46990000Y-66294000D01*
X60483000Y-86075000D02*
X61329375Y-86075000D01*
X46990000Y-65151000D02*
X48133000Y-66294000D01*
X46990000Y-89916000D02*
X46990000Y-89789000D01*
X61391800Y-64109600D02*
X61442600Y-64109600D01*
X46990000Y-85396000D02*
X47804000Y-85396000D01*
X46990000Y-65076000D02*
X47804000Y-65076000D01*
X46990000Y-89916000D02*
X46990000Y-88646000D01*
X59515975Y-87925000D02*
X60084575Y-88493600D01*
X56859900Y-71160100D02*
X56845200Y-71145400D01*
X54737000Y-68326000D02*
X54711600Y-68351400D01*
X47804000Y-85396000D02*
X49022000Y-86614000D01*
X53848000Y-88622600D02*
X53848000Y-89331800D01*
X46990000Y-69596000D02*
X46990000Y-69342000D01*
X53848000Y-68328000D02*
X53848000Y-69037200D01*
X59498825Y-67635000D02*
X58869025Y-67005200D01*
X46990000Y-85396000D02*
X46990000Y-85471000D01*
X46238529Y-69596000D02*
X44968627Y-68326098D01*
X56716200Y-64160400D02*
X56007000Y-64160400D01*
X59508000Y-87989800D02*
X58953400Y-88544400D01*
X46990000Y-85396000D02*
X46990000Y-85598000D01*
X46990000Y-69596000D02*
X46990000Y-68326000D01*
X60483000Y-89775000D02*
X61276200Y-89775000D01*
X61518800Y-92532200D02*
X60805000Y-92532200D01*
X46990000Y-69596000D02*
X46990000Y-69469000D01*
X61518800Y-91541600D02*
X60805000Y-91541600D01*
X60483000Y-86075000D02*
X61346600Y-86075000D01*
X46990000Y-65076000D02*
X46990000Y-65278000D01*
X57503600Y-91084400D02*
X56794400Y-91084400D01*
X46990000Y-69342000D02*
X45974000Y-68326000D01*
X46990000Y-85598000D02*
X45974000Y-86614000D01*
X46990000Y-89789000D02*
X48133000Y-88646000D01*
X47804000Y-65076000D02*
X49022000Y-66294000D01*
X60807600Y-71145400D02*
X61518800Y-71145400D01*
X46990000Y-65278000D02*
X45974000Y-66294000D01*
X60807600Y-72136000D02*
X61493400Y-72136000D01*
X46990000Y-69469000D02*
X48133000Y-68326000D01*
X61276200Y-89775000D02*
X61595000Y-90093800D01*
X61671200Y-65379600D02*
X61696600Y-65379600D01*
X59508000Y-87846966D02*
X60084575Y-87270391D01*
X56843200Y-84328000D02*
X56134000Y-84328000D01*
X61265800Y-65785000D02*
X60483000Y-65785000D01*
X47752000Y-89916000D02*
X49022000Y-88646000D01*
X46990000Y-85471000D02*
X48133000Y-86614000D01*
X46187383Y-85396000D02*
X44969379Y-86614004D01*
X59508000Y-87862575D02*
X58945225Y-87299800D01*
X47752000Y-69596000D02*
X49022000Y-68326000D01*
X46990000Y-89916000D02*
X46990000Y-89662000D01*
X46990000Y-89916000D02*
X46238529Y-89916000D01*
X59508000Y-67514775D02*
X60017575Y-67005200D01*
X46990000Y-69596000D02*
X47752000Y-69596000D01*
X59508000Y-67635000D02*
X59508000Y-67765625D01*
X61595000Y-83312000D02*
X60802400Y-83312000D01*
X63881000Y-69799200D02*
X64592200Y-69799200D01*
X61442600Y-63119000D02*
X61468000Y-63119000D01*
X61331600Y-69485000D02*
X61357000Y-69485000D01*
X61329375Y-86075000D02*
X61679375Y-85725000D01*
X46187383Y-65076000D02*
X44969379Y-66294004D01*
X46238529Y-89916000D02*
X44968627Y-88646098D01*
X61671200Y-65379600D02*
X61265800Y-65785000D01*
X60779600Y-64109600D02*
X61391800Y-64109600D01*
X55425400Y-68326000D02*
X54737000Y-68326000D01*
X59508000Y-87925000D02*
X59508000Y-87846966D01*
X59508000Y-87925000D02*
X59508000Y-87862575D01*
X60805000Y-84226400D02*
X61493400Y-84226400D01*
X46990000Y-65076000D02*
X46187383Y-65076000D01*
X57529000Y-71160100D02*
X56859900Y-71160100D01*
X61595000Y-90093800D02*
X61603175Y-90093800D01*
X60483000Y-69485000D02*
X61331600Y-69485000D01*
X59508000Y-87925000D02*
X59508000Y-87989800D01*
X59508000Y-87925000D02*
X59515975Y-87925000D01*
X61442600Y-64109600D02*
X61468000Y-64135000D01*
%TO.N,/vrms_ref*%
X68867800Y-67915800D02*
X68823600Y-67960000D01*
X61358000Y-67310000D02*
X61358000Y-67960000D01*
X68823600Y-67960000D02*
X61358000Y-67960000D01*
%TO.N,/mcu_adc_ref*%
X66334400Y-66660000D02*
X61358000Y-66660000D01*
X68867800Y-65415800D02*
X67578600Y-65415800D01*
X67578600Y-65415800D02*
X66334400Y-66660000D01*
%TO.N,Net-(C12-Pad1)*%
X55426000Y-87602600D02*
X55428000Y-87604600D01*
X53848000Y-87602600D02*
X55426000Y-87602600D01*
X53844200Y-87606400D02*
X53848000Y-87602600D01*
X46964600Y-87606400D02*
X53844200Y-87606400D01*
%TO.N,/vref_ref*%
X58750200Y-61645800D02*
X58039000Y-60934600D01*
X58752200Y-64010000D02*
X58752200Y-63144400D01*
X57531000Y-72176100D02*
X56794400Y-72176100D01*
X58750200Y-63142400D02*
X58750200Y-61645800D01*
X59183000Y-65785000D02*
X59154375Y-65756375D01*
X56794400Y-72176100D02*
X56769000Y-72150700D01*
X58039000Y-60934600D02*
X58039000Y-57658000D01*
X59154375Y-65756375D02*
X59154375Y-64412175D01*
X59154375Y-64412175D02*
X58940700Y-64198500D01*
X58940700Y-64198500D02*
X58752200Y-64010000D01*
X58752200Y-63144400D02*
X58750200Y-63142400D01*
%TO.N,/vtgt_ref*%
X58533000Y-65785000D02*
X58533000Y-65213200D01*
X58533000Y-65213200D02*
X57736200Y-64416400D01*
X57732200Y-63144400D02*
X57732200Y-61593000D01*
X55499000Y-59359800D02*
X55499000Y-57658000D01*
X57732200Y-61593000D02*
X55499000Y-59359800D01*
X57736200Y-64160400D02*
X57736200Y-63148400D01*
X57736200Y-64416400D02*
X57736200Y-64160400D01*
X57736200Y-63148400D02*
X57732200Y-63144400D01*
%TO.N,/TC2_ref*%
X58572400Y-73202800D02*
X58572400Y-72197500D01*
X58533000Y-71144100D02*
X58549000Y-71160100D01*
X58572400Y-72197500D02*
X58551000Y-72176100D01*
X58551000Y-71109300D02*
X58551000Y-72146700D01*
X58533000Y-69485000D02*
X58533000Y-71144100D01*
X58551000Y-72146700D02*
X58547000Y-72150700D01*
%TO.N,/vref_fow*%
X59183000Y-86075000D02*
X59183000Y-85314121D01*
X56819800Y-92125800D02*
X56819800Y-94615000D01*
X59154375Y-85285496D02*
X59154375Y-84554375D01*
X58902600Y-84302600D02*
X58902600Y-83310000D01*
X56819800Y-94615000D02*
X55626000Y-95808800D01*
X59154375Y-84554375D02*
X58902600Y-84302600D01*
X58902600Y-83310000D02*
X58879200Y-83286600D01*
X59183000Y-85314121D02*
X59154375Y-85285496D01*
X55626000Y-97119600D02*
X55616000Y-97129600D01*
X56845200Y-92100400D02*
X56819800Y-92125800D01*
X55626000Y-95808800D02*
X55626000Y-97119600D01*
X57503600Y-92100400D02*
X56845200Y-92100400D01*
%TO.N,Net-(IC2-RFIN+)*%
X57653400Y-87604600D02*
X57658000Y-87600000D01*
X56388000Y-87604600D02*
X57653400Y-87604600D01*
X57755000Y-87604600D02*
X57759600Y-87600000D01*
%TO.N,/mcu_adc_fow*%
X67772600Y-85770400D02*
X68867800Y-85770400D01*
X61358000Y-86950000D02*
X66503000Y-86950000D01*
X66548000Y-86995000D02*
X67772600Y-85770400D01*
X66503000Y-86950000D02*
X66548000Y-86995000D01*
%TO.N,Net-(IC2-RFIN-)*%
X56756000Y-88250000D02*
X56385400Y-88620600D01*
X57658000Y-88250000D02*
X56756000Y-88250000D01*
%TO.N,Net-(IC2-CRMS)*%
X62357000Y-88900000D02*
X63045400Y-89588400D01*
X61358000Y-88900000D02*
X62357000Y-88900000D01*
X63045400Y-89588400D02*
X63045400Y-90093800D01*
%TO.N,/vrms_fow*%
X61358000Y-87600000D02*
X61358000Y-88250000D01*
X64780000Y-88270400D02*
X68867800Y-88270400D01*
X64759600Y-88250000D02*
X64780000Y-88270400D01*
X61358000Y-88250000D02*
X64759600Y-88250000D01*
%TO.N,/vtgt_fow*%
X58533000Y-86075000D02*
X58533000Y-84997800D01*
X57861200Y-82473800D02*
X57861200Y-83284600D01*
X57861200Y-83284600D02*
X57859200Y-83286600D01*
X57863200Y-84328000D02*
X57863200Y-83290600D01*
X58533000Y-84997800D02*
X57863200Y-84328000D01*
X57863200Y-83290600D02*
X57859200Y-83286600D01*
%TO.N,/TC2_fow*%
X58166000Y-97119600D02*
X58156000Y-97129600D01*
X58533000Y-89775000D02*
X58533000Y-92091000D01*
X58521600Y-92102400D02*
X58521600Y-94488000D01*
X58521600Y-94488000D02*
X58166000Y-94843600D01*
X58523600Y-92100400D02*
X58521600Y-92102400D01*
X58533000Y-92091000D02*
X58523600Y-92100400D01*
X58166000Y-94843600D02*
X58166000Y-97119600D01*
%TD*%
%TA.AperFunction,Conductor*%
%TO.N,GND*%
G36*
X54914761Y-88297993D02*
G01*
X54938275Y-88311899D01*
X55031605Y-88367094D01*
X55064624Y-88376687D01*
X55187002Y-88412242D01*
X55187005Y-88412242D01*
X55187007Y-88412243D01*
X55223310Y-88415100D01*
X55480900Y-88415100D01*
X55547939Y-88434785D01*
X55593694Y-88487589D01*
X55604900Y-88539100D01*
X55604900Y-88855297D01*
X55607756Y-88891591D01*
X55607757Y-88891597D01*
X55652904Y-89046990D01*
X55652905Y-89046993D01*
X55735281Y-89186284D01*
X55735287Y-89186292D01*
X55849707Y-89300712D01*
X55849711Y-89300715D01*
X55849713Y-89300717D01*
X55989005Y-89383094D01*
X56014830Y-89390597D01*
X56144402Y-89428242D01*
X56144405Y-89428242D01*
X56144407Y-89428243D01*
X56180710Y-89431100D01*
X56180718Y-89431100D01*
X56590082Y-89431100D01*
X56590090Y-89431100D01*
X56626393Y-89428243D01*
X56670243Y-89415503D01*
X56740112Y-89415702D01*
X56779150Y-89435313D01*
X56890664Y-89518793D01*
X56890671Y-89518797D01*
X56899144Y-89521957D01*
X57025517Y-89569091D01*
X57085127Y-89575500D01*
X57731133Y-89575499D01*
X57798172Y-89595183D01*
X57843927Y-89647987D01*
X57852949Y-89702120D01*
X57854875Y-89702120D01*
X57854875Y-90519531D01*
X57837608Y-90582651D01*
X57800730Y-90645008D01*
X57800729Y-90645011D01*
X57755935Y-90799191D01*
X57755934Y-90799197D01*
X57753100Y-90835211D01*
X57753100Y-91155900D01*
X57733415Y-91222939D01*
X57680611Y-91268694D01*
X57629100Y-91279900D01*
X57304430Y-91279900D01*
X57304408Y-91279901D01*
X57268394Y-91282735D01*
X57114211Y-91327529D01*
X57114203Y-91327532D01*
X57103580Y-91333815D01*
X57035856Y-91350994D01*
X57016273Y-91348697D01*
X56898646Y-91325300D01*
X56898642Y-91325300D01*
X56740958Y-91325300D01*
X56740955Y-91325300D01*
X56586310Y-91356061D01*
X56586298Y-91356064D01*
X56440627Y-91416402D01*
X56440614Y-91416409D01*
X56309511Y-91504010D01*
X56309507Y-91504013D01*
X56198013Y-91615507D01*
X56198010Y-91615511D01*
X56110409Y-91746614D01*
X56110402Y-91746627D01*
X56050064Y-91892298D01*
X56050061Y-91892310D01*
X56019300Y-92046953D01*
X56019300Y-92204646D01*
X56050061Y-92359289D01*
X56050064Y-92359301D01*
X56110403Y-92504973D01*
X56110404Y-92504975D01*
X56110406Y-92504979D01*
X56120776Y-92520500D01*
X56141655Y-92587174D01*
X56141675Y-92589390D01*
X56141675Y-94282748D01*
X56121990Y-94349787D01*
X56105356Y-94370429D01*
X55099268Y-95376516D01*
X55099262Y-95376524D01*
X55025053Y-95487585D01*
X55025051Y-95487589D01*
X55010913Y-95521724D01*
X54973936Y-95610993D01*
X54973933Y-95611005D01*
X54947875Y-95742006D01*
X54947875Y-95882530D01*
X54928190Y-95949569D01*
X54896760Y-95982848D01*
X54736214Y-96099490D01*
X54736209Y-96099494D01*
X54585890Y-96249813D01*
X54460951Y-96421779D01*
X54364444Y-96611185D01*
X54298753Y-96813360D01*
X54265500Y-97023313D01*
X54265500Y-97235886D01*
X54298753Y-97445839D01*
X54364444Y-97648014D01*
X54460951Y-97837420D01*
X54585890Y-98009386D01*
X54736209Y-98159705D01*
X54736214Y-98159709D01*
X54841846Y-98236455D01*
X54884512Y-98291784D01*
X54890491Y-98361398D01*
X54857886Y-98423193D01*
X54797047Y-98457550D01*
X54769058Y-98460773D01*
X44782717Y-98468547D01*
X44715662Y-98448915D01*
X44669866Y-98396146D01*
X44658620Y-98344506D01*
X44659684Y-95331911D01*
X48136700Y-95331911D01*
X48136700Y-95574488D01*
X48168361Y-95814985D01*
X48231147Y-96049304D01*
X48314199Y-96249808D01*
X48323976Y-96273412D01*
X48445264Y-96483489D01*
X48445266Y-96483492D01*
X48445267Y-96483493D01*
X48592933Y-96675936D01*
X48592939Y-96675943D01*
X48764456Y-96847460D01*
X48764462Y-96847465D01*
X48956911Y-96995136D01*
X49166988Y-97116424D01*
X49391100Y-97209254D01*
X49625411Y-97272038D01*
X49805786Y-97295784D01*
X49865911Y-97303700D01*
X49865912Y-97303700D01*
X50108489Y-97303700D01*
X50156588Y-97297367D01*
X50348989Y-97272038D01*
X50583300Y-97209254D01*
X50807412Y-97116424D01*
X51017489Y-96995136D01*
X51209938Y-96847465D01*
X51381465Y-96675938D01*
X51529136Y-96483489D01*
X51650424Y-96273412D01*
X51743254Y-96049300D01*
X51806038Y-95814989D01*
X51837700Y-95574488D01*
X51837700Y-95331912D01*
X51806038Y-95091411D01*
X51743254Y-94857100D01*
X51650424Y-94632988D01*
X51529136Y-94422911D01*
X51468218Y-94343521D01*
X51381466Y-94230463D01*
X51381460Y-94230456D01*
X51209943Y-94058939D01*
X51209936Y-94058933D01*
X51017493Y-93911267D01*
X51017492Y-93911266D01*
X51017489Y-93911264D01*
X50807412Y-93789976D01*
X50807405Y-93789973D01*
X50583304Y-93697147D01*
X50348985Y-93634361D01*
X50108489Y-93602700D01*
X50108488Y-93602700D01*
X49865912Y-93602700D01*
X49865911Y-93602700D01*
X49625414Y-93634361D01*
X49391095Y-93697147D01*
X49166994Y-93789973D01*
X49166985Y-93789977D01*
X48956906Y-93911267D01*
X48764463Y-94058933D01*
X48764456Y-94058939D01*
X48592939Y-94230456D01*
X48592933Y-94230463D01*
X48445267Y-94422906D01*
X48323977Y-94632985D01*
X48323973Y-94632994D01*
X48231147Y-94857095D01*
X48168361Y-95091414D01*
X48136700Y-95331911D01*
X44659684Y-95331911D01*
X44662118Y-88435854D01*
X44681826Y-88368823D01*
X44734646Y-88323086D01*
X44786118Y-88311899D01*
X49782471Y-88311899D01*
X49782472Y-88311899D01*
X49842083Y-88305491D01*
X49877335Y-88292343D01*
X49920668Y-88284525D01*
X53305452Y-88284525D01*
X53368573Y-88301793D01*
X53404577Y-88323086D01*
X53408607Y-88325469D01*
X53449268Y-88337282D01*
X53562791Y-88370264D01*
X53562794Y-88370264D01*
X53562796Y-88370265D01*
X53598819Y-88373100D01*
X54097180Y-88373099D01*
X54133204Y-88370265D01*
X54287393Y-88325469D01*
X54333852Y-88297992D01*
X54396973Y-88280725D01*
X54851640Y-88280725D01*
X54914761Y-88297993D01*
G37*
%TD.AperFunction*%
%TA.AperFunction,Conductor*%
G36*
X72213351Y-56374506D02*
G01*
X72259154Y-56427268D01*
X72270407Y-56478901D01*
X72264243Y-98323267D01*
X72244549Y-98390304D01*
X72191738Y-98436051D01*
X72140340Y-98447249D01*
X61550401Y-98455494D01*
X61483346Y-98435862D01*
X61437550Y-98383093D01*
X61427552Y-98313943D01*
X61456528Y-98250364D01*
X61477415Y-98231178D01*
X61575792Y-98159704D01*
X61726104Y-98009392D01*
X61726106Y-98009388D01*
X61726109Y-98009386D01*
X61851048Y-97837420D01*
X61851047Y-97837420D01*
X61851051Y-97837416D01*
X61947557Y-97648012D01*
X62013246Y-97445843D01*
X62046500Y-97235887D01*
X62046500Y-97023313D01*
X62013246Y-96813357D01*
X61947557Y-96611188D01*
X61851051Y-96421784D01*
X61851049Y-96421781D01*
X61851048Y-96421779D01*
X61726109Y-96249813D01*
X61575786Y-96099490D01*
X61403820Y-95974551D01*
X61214414Y-95878044D01*
X61214413Y-95878043D01*
X61214412Y-95878043D01*
X61012243Y-95812354D01*
X61012241Y-95812353D01*
X61012240Y-95812353D01*
X60850957Y-95786808D01*
X60802287Y-95779100D01*
X60589713Y-95779100D01*
X60541042Y-95786808D01*
X60379760Y-95812353D01*
X60177585Y-95878044D01*
X59988179Y-95974551D01*
X59816213Y-96099490D01*
X59665890Y-96249813D01*
X59540949Y-96421782D01*
X59536484Y-96430546D01*
X59488509Y-96481342D01*
X59420688Y-96498136D01*
X59354553Y-96475598D01*
X59315516Y-96430546D01*
X59311050Y-96421782D01*
X59186109Y-96249813D01*
X59035786Y-96099490D01*
X58895240Y-95997379D01*
X58852574Y-95942050D01*
X58844125Y-95897061D01*
X58844125Y-95175850D01*
X58863810Y-95108811D01*
X58880444Y-95088169D01*
X59048326Y-94920287D01*
X59048333Y-94920280D01*
X59054942Y-94910390D01*
X59122546Y-94809213D01*
X59173665Y-94685802D01*
X59199725Y-94554789D01*
X59199725Y-93364901D01*
X59219410Y-93297862D01*
X59272214Y-93252107D01*
X59341372Y-93242163D01*
X59386840Y-93258166D01*
X59448605Y-93294694D01*
X59448608Y-93294694D01*
X59448610Y-93294696D01*
X59604002Y-93339842D01*
X59604005Y-93339842D01*
X59604007Y-93339843D01*
X59640310Y-93342700D01*
X59640318Y-93342700D01*
X60049682Y-93342700D01*
X60049690Y-93342700D01*
X60085993Y-93339843D01*
X60085995Y-93339842D01*
X60085997Y-93339842D01*
X60126975Y-93327936D01*
X60241395Y-93294694D01*
X60380687Y-93212317D01*
X60495117Y-93097887D01*
X60577494Y-92958595D01*
X60622643Y-92803193D01*
X60625500Y-92766890D01*
X60625500Y-92297510D01*
X60622643Y-92261207D01*
X60600423Y-92184728D01*
X60595500Y-92150134D01*
X60595500Y-91923665D01*
X60600424Y-91889069D01*
X60622643Y-91812593D01*
X60625500Y-91776290D01*
X60625500Y-91306910D01*
X60622643Y-91270607D01*
X60600423Y-91194128D01*
X60595500Y-91159534D01*
X60595500Y-91032054D01*
X60597883Y-91007862D01*
X60617500Y-90909244D01*
X60617500Y-90751555D01*
X60597883Y-90652937D01*
X60595500Y-90628745D01*
X60595500Y-89713079D01*
X60594903Y-89707017D01*
X60597255Y-89706785D01*
X60602523Y-89647638D01*
X60645362Y-89592443D01*
X60711242Y-89569170D01*
X60731178Y-89569699D01*
X60785127Y-89575500D01*
X61265798Y-89575499D01*
X61289986Y-89577881D01*
X61291211Y-89578125D01*
X62024749Y-89578125D01*
X62054189Y-89586769D01*
X62084176Y-89593293D01*
X62089191Y-89597047D01*
X62091788Y-89597810D01*
X62112430Y-89614444D01*
X62231204Y-89733218D01*
X62264689Y-89794541D01*
X62267141Y-89830625D01*
X62264900Y-89859097D01*
X62264900Y-90328497D01*
X62267756Y-90364791D01*
X62267757Y-90364797D01*
X62312904Y-90520190D01*
X62312905Y-90520193D01*
X62395281Y-90659484D01*
X62395287Y-90659492D01*
X62509707Y-90773912D01*
X62509711Y-90773915D01*
X62509713Y-90773917D01*
X62649005Y-90856294D01*
X62689987Y-90868200D01*
X62804402Y-90901442D01*
X62804405Y-90901442D01*
X62804407Y-90901443D01*
X62840710Y-90904300D01*
X62840718Y-90904300D01*
X63250082Y-90904300D01*
X63250090Y-90904300D01*
X63286393Y-90901443D01*
X63286395Y-90901442D01*
X63286397Y-90901442D01*
X63327375Y-90889536D01*
X63441795Y-90856294D01*
X63581087Y-90773917D01*
X63695517Y-90659487D01*
X63777894Y-90520195D01*
X63823043Y-90364793D01*
X63825900Y-90328490D01*
X63825900Y-89859110D01*
X63823043Y-89822807D01*
X63777894Y-89667405D01*
X63766204Y-89647638D01*
X63740793Y-89604669D01*
X63723525Y-89541549D01*
X63723525Y-89521610D01*
X63723524Y-89521606D01*
X63704953Y-89428242D01*
X63697465Y-89390598D01*
X63663494Y-89308585D01*
X63646347Y-89267188D01*
X63592294Y-89186292D01*
X63572137Y-89156124D01*
X63572131Y-89156116D01*
X63555821Y-89139806D01*
X63522336Y-89078483D01*
X63527320Y-89008791D01*
X63569192Y-88952858D01*
X63634656Y-88928441D01*
X63643502Y-88928125D01*
X64598442Y-88928125D01*
X64622632Y-88930507D01*
X64644150Y-88934788D01*
X64713207Y-88948525D01*
X64713210Y-88948525D01*
X64713211Y-88948525D01*
X67502996Y-88948525D01*
X67570035Y-88968210D01*
X67603312Y-88999638D01*
X67637720Y-89046995D01*
X67712696Y-89150192D01*
X67863013Y-89300509D01*
X68034979Y-89425448D01*
X68034981Y-89425449D01*
X68034984Y-89425451D01*
X68224388Y-89521957D01*
X68426557Y-89587646D01*
X68636513Y-89620900D01*
X68636514Y-89620900D01*
X69099086Y-89620900D01*
X69099087Y-89620900D01*
X69309043Y-89587646D01*
X69511212Y-89521957D01*
X69700616Y-89425451D01*
X69748578Y-89390605D01*
X69872586Y-89300509D01*
X69872588Y-89300506D01*
X69872592Y-89300504D01*
X70022904Y-89150192D01*
X70022906Y-89150188D01*
X70022909Y-89150186D01*
X70147848Y-88978220D01*
X70147847Y-88978220D01*
X70147851Y-88978216D01*
X70244357Y-88788812D01*
X70310046Y-88586643D01*
X70343300Y-88376687D01*
X70343300Y-88164113D01*
X70310046Y-87954157D01*
X70244357Y-87751988D01*
X70147851Y-87562584D01*
X70147849Y-87562581D01*
X70147848Y-87562579D01*
X70022909Y-87390613D01*
X69872592Y-87240296D01*
X69858562Y-87230103D01*
X69708004Y-87120716D01*
X69665340Y-87065389D01*
X69659361Y-86995776D01*
X69691966Y-86933980D01*
X69707999Y-86920086D01*
X69872592Y-86800504D01*
X70022904Y-86650192D01*
X70022906Y-86650188D01*
X70022909Y-86650186D01*
X70147848Y-86478220D01*
X70147847Y-86478220D01*
X70147851Y-86478216D01*
X70244357Y-86288812D01*
X70310046Y-86086643D01*
X70343300Y-85876687D01*
X70343300Y-85664113D01*
X70310046Y-85454157D01*
X70244357Y-85251988D01*
X70147851Y-85062584D01*
X70147849Y-85062581D01*
X70147848Y-85062579D01*
X70022909Y-84890613D01*
X69872586Y-84740290D01*
X69700620Y-84615351D01*
X69511214Y-84518844D01*
X69511213Y-84518843D01*
X69511212Y-84518843D01*
X69309043Y-84453154D01*
X69309041Y-84453153D01*
X69309040Y-84453153D01*
X69147757Y-84427608D01*
X69099087Y-84419900D01*
X68636513Y-84419900D01*
X68587842Y-84427608D01*
X68426560Y-84453153D01*
X68224385Y-84518844D01*
X68034979Y-84615351D01*
X67863013Y-84740290D01*
X67712690Y-84890613D01*
X67587750Y-85062580D01*
X67575973Y-85085693D01*
X67527997Y-85136487D01*
X67512946Y-85143953D01*
X67451393Y-85169450D01*
X67451381Y-85169456D01*
X67340320Y-85243665D01*
X67340316Y-85243668D01*
X66348430Y-86235556D01*
X66287107Y-86269041D01*
X66260749Y-86271875D01*
X61291209Y-86271875D01*
X61290389Y-86272038D01*
X61289978Y-86272120D01*
X61265801Y-86274500D01*
X60785129Y-86274500D01*
X60785122Y-86274501D01*
X60720442Y-86281454D01*
X60651682Y-86269047D01*
X60600546Y-86221435D01*
X60583593Y-86155010D01*
X60583500Y-86155010D01*
X60583500Y-86154645D01*
X60583268Y-86153736D01*
X60583500Y-86150276D01*
X60583500Y-85309004D01*
X60592939Y-85261551D01*
X60596900Y-85251988D01*
X60602737Y-85237897D01*
X60633500Y-85083242D01*
X60633500Y-84925558D01*
X60633500Y-84925555D01*
X60633499Y-84925553D01*
X60602739Y-84770911D01*
X60600970Y-84765080D01*
X60601337Y-84764968D01*
X60600523Y-84763702D01*
X60595500Y-84728767D01*
X60595500Y-84608465D01*
X60600424Y-84573869D01*
X60622643Y-84497393D01*
X60625500Y-84461090D01*
X60625500Y-83991710D01*
X60622643Y-83955407D01*
X60597823Y-83869979D01*
X60592900Y-83835385D01*
X60592900Y-83694065D01*
X60597824Y-83659469D01*
X60620043Y-83582993D01*
X60622900Y-83546690D01*
X60622900Y-83077310D01*
X60620043Y-83041007D01*
X60618998Y-83037411D01*
X60572718Y-82878114D01*
X60574680Y-82877543D01*
X60567500Y-82842839D01*
X60567500Y-81584604D01*
X60576939Y-81537151D01*
X60586737Y-81513497D01*
X60617500Y-81358842D01*
X60617500Y-81201158D01*
X60617500Y-81201155D01*
X60617499Y-81201153D01*
X60586737Y-81046503D01*
X60586735Y-81046498D01*
X60526397Y-80900827D01*
X60526390Y-80900814D01*
X60438789Y-80769711D01*
X60438786Y-80769707D01*
X60327292Y-80658213D01*
X60327288Y-80658210D01*
X60196185Y-80570609D01*
X60196172Y-80570602D01*
X60050501Y-80510264D01*
X60050489Y-80510261D01*
X59895845Y-80479500D01*
X59895842Y-80479500D01*
X59738158Y-80479500D01*
X59738155Y-80479500D01*
X59583510Y-80510261D01*
X59583498Y-80510264D01*
X59437827Y-80570602D01*
X59437814Y-80570609D01*
X59306711Y-80658210D01*
X59306707Y-80658213D01*
X59195213Y-80769707D01*
X59195210Y-80769711D01*
X59107609Y-80900814D01*
X59107602Y-80900827D01*
X59047264Y-81046498D01*
X59047261Y-81046510D01*
X59016500Y-81201153D01*
X59016500Y-81358846D01*
X59047261Y-81513489D01*
X59047263Y-81513497D01*
X59057061Y-81537151D01*
X59066500Y-81584604D01*
X59066500Y-82342100D01*
X59063949Y-82350785D01*
X59065238Y-82359747D01*
X59054259Y-82383787D01*
X59046815Y-82409139D01*
X59039974Y-82415066D01*
X59036213Y-82423303D01*
X59013978Y-82437592D01*
X58994011Y-82454894D01*
X58983496Y-82457181D01*
X58977435Y-82461077D01*
X58942500Y-82466100D01*
X58777615Y-82466100D01*
X58710576Y-82446415D01*
X58664821Y-82393611D01*
X58655998Y-82366291D01*
X58630938Y-82240310D01*
X58630937Y-82240303D01*
X58630935Y-82240298D01*
X58570597Y-82094627D01*
X58570590Y-82094614D01*
X58482989Y-81963511D01*
X58482986Y-81963507D01*
X58371492Y-81852013D01*
X58371488Y-81852010D01*
X58240385Y-81764409D01*
X58240372Y-81764402D01*
X58094701Y-81704064D01*
X58094689Y-81704061D01*
X57940045Y-81673300D01*
X57940042Y-81673300D01*
X57782358Y-81673300D01*
X57782355Y-81673300D01*
X57627710Y-81704061D01*
X57627698Y-81704064D01*
X57482027Y-81764402D01*
X57482014Y-81764409D01*
X57350911Y-81852010D01*
X57350907Y-81852013D01*
X57239413Y-81963507D01*
X57239410Y-81963511D01*
X57151809Y-82094614D01*
X57151802Y-82094627D01*
X57091464Y-82240298D01*
X57091461Y-82240310D01*
X57060700Y-82394953D01*
X57060700Y-82552646D01*
X57091460Y-82707288D01*
X57091463Y-82707298D01*
X57125060Y-82788409D01*
X57132529Y-82857879D01*
X57129576Y-82870455D01*
X57091534Y-83001397D01*
X57088700Y-83037411D01*
X57088700Y-83535769D01*
X57088701Y-83535791D01*
X57091534Y-83571800D01*
X57091534Y-83571803D01*
X57091535Y-83571804D01*
X57136331Y-83725993D01*
X57149086Y-83747560D01*
X57166268Y-83815284D01*
X57149088Y-83873796D01*
X57140333Y-83888600D01*
X57140330Y-83888608D01*
X57095535Y-84042791D01*
X57095534Y-84042797D01*
X57092700Y-84078811D01*
X57092700Y-84577169D01*
X57092701Y-84577191D01*
X57095535Y-84613205D01*
X57140329Y-84767388D01*
X57140331Y-84767393D01*
X57222063Y-84905595D01*
X57222069Y-84905603D01*
X57335596Y-85019130D01*
X57335600Y-85019133D01*
X57335602Y-85019135D01*
X57473807Y-85100869D01*
X57514468Y-85112682D01*
X57627991Y-85145664D01*
X57627994Y-85145664D01*
X57627996Y-85145665D01*
X57664019Y-85148500D01*
X57673314Y-85148499D01*
X57702761Y-85157143D01*
X57732750Y-85163667D01*
X57737757Y-85167415D01*
X57740354Y-85168178D01*
X57761004Y-85184818D01*
X57818556Y-85242370D01*
X57852041Y-85303693D01*
X57854875Y-85330051D01*
X57854875Y-86147880D01*
X57852728Y-86147880D01*
X57841516Y-86206994D01*
X57793450Y-86257703D01*
X57731133Y-86274500D01*
X57085129Y-86274500D01*
X57085123Y-86274501D01*
X57025516Y-86280908D01*
X56890671Y-86331202D01*
X56890664Y-86331206D01*
X56775455Y-86417452D01*
X56775452Y-86417455D01*
X56689206Y-86532664D01*
X56689202Y-86532671D01*
X56638910Y-86667513D01*
X56638909Y-86667517D01*
X56637205Y-86683357D01*
X56610469Y-86747906D01*
X56553076Y-86787754D01*
X56513917Y-86794100D01*
X56183302Y-86794100D01*
X56147008Y-86796956D01*
X56147002Y-86796957D01*
X55991608Y-86842104D01*
X55991602Y-86842106D01*
X55971120Y-86854220D01*
X55903396Y-86871401D01*
X55844880Y-86854220D01*
X55824397Y-86842106D01*
X55824391Y-86842104D01*
X55668997Y-86796957D01*
X55668991Y-86796956D01*
X55632697Y-86794100D01*
X55632690Y-86794100D01*
X55223310Y-86794100D01*
X55223302Y-86794100D01*
X55187008Y-86796956D01*
X55187002Y-86796957D01*
X55031609Y-86842104D01*
X55031606Y-86842105D01*
X55011121Y-86854220D01*
X54932189Y-86900901D01*
X54921526Y-86907207D01*
X54858405Y-86924475D01*
X54396973Y-86924475D01*
X54333852Y-86907207D01*
X54323189Y-86900901D01*
X54287393Y-86879731D01*
X54287392Y-86879730D01*
X54287391Y-86879730D01*
X54287388Y-86879729D01*
X54133208Y-86834935D01*
X54133202Y-86834934D01*
X54097181Y-86832100D01*
X53598830Y-86832100D01*
X53598808Y-86832101D01*
X53562794Y-86834935D01*
X53408611Y-86879729D01*
X53408605Y-86879731D01*
X53355722Y-86911007D01*
X53292601Y-86928275D01*
X49920668Y-86928275D01*
X49877335Y-86920457D01*
X49842082Y-86907308D01*
X49842083Y-86907308D01*
X49782483Y-86900901D01*
X49782481Y-86900900D01*
X49782473Y-86900900D01*
X49782465Y-86900900D01*
X44786704Y-86900900D01*
X44719665Y-86881215D01*
X44673910Y-86828411D01*
X44662704Y-86776856D01*
X44665148Y-79853472D01*
X46157900Y-79853472D01*
X46157900Y-80115727D01*
X46184523Y-80317939D01*
X46192130Y-80375716D01*
X46244351Y-80570609D01*
X46260002Y-80629018D01*
X46260005Y-80629028D01*
X46360353Y-80871290D01*
X46360358Y-80871300D01*
X46491475Y-81098403D01*
X46651118Y-81306451D01*
X46651126Y-81306460D01*
X46836540Y-81491874D01*
X46836548Y-81491881D01*
X47044596Y-81651524D01*
X47271699Y-81782641D01*
X47271709Y-81782646D01*
X47513971Y-81882994D01*
X47513981Y-81882998D01*
X47767284Y-81950870D01*
X48027280Y-81985100D01*
X48027287Y-81985100D01*
X48289513Y-81985100D01*
X48289520Y-81985100D01*
X48549516Y-81950870D01*
X48802819Y-81882998D01*
X49045097Y-81782643D01*
X49272203Y-81651524D01*
X49480251Y-81491882D01*
X49480255Y-81491877D01*
X49480260Y-81491874D01*
X49665674Y-81306460D01*
X49665677Y-81306455D01*
X49665682Y-81306451D01*
X49825324Y-81098403D01*
X49956443Y-80871297D01*
X50056798Y-80629019D01*
X50124670Y-80375716D01*
X50158900Y-80115720D01*
X50158900Y-79853480D01*
X50124670Y-79593484D01*
X50056798Y-79340181D01*
X50056794Y-79340171D01*
X49956446Y-79097909D01*
X49956441Y-79097899D01*
X49825324Y-78870796D01*
X49702630Y-78710900D01*
X49665682Y-78662749D01*
X49665681Y-78662748D01*
X49665674Y-78662740D01*
X49480260Y-78477326D01*
X49480251Y-78477318D01*
X49272203Y-78317675D01*
X49045100Y-78186558D01*
X49045090Y-78186553D01*
X48802828Y-78086205D01*
X48802821Y-78086203D01*
X48802819Y-78086202D01*
X48549516Y-78018330D01*
X48491739Y-78010723D01*
X48289527Y-77984100D01*
X48289520Y-77984100D01*
X48027280Y-77984100D01*
X48027272Y-77984100D01*
X47796172Y-78014526D01*
X47767284Y-78018330D01*
X47525424Y-78083136D01*
X47513981Y-78086202D01*
X47513971Y-78086205D01*
X47271709Y-78186553D01*
X47271699Y-78186558D01*
X47044596Y-78317675D01*
X46836548Y-78477318D01*
X46651118Y-78662748D01*
X46491475Y-78870796D01*
X46360358Y-79097899D01*
X46360353Y-79097909D01*
X46260005Y-79340171D01*
X46260002Y-79340181D01*
X46192130Y-79593485D01*
X46157900Y-79853472D01*
X44665148Y-79853472D01*
X44665149Y-79849377D01*
X44665840Y-77890689D01*
X44666247Y-76739111D01*
X66983500Y-76739111D01*
X66983500Y-76981688D01*
X67015161Y-77222185D01*
X67077947Y-77456504D01*
X67170773Y-77680605D01*
X67170776Y-77680612D01*
X67292064Y-77890689D01*
X67292066Y-77890692D01*
X67292067Y-77890693D01*
X67439733Y-78083136D01*
X67439739Y-78083143D01*
X67611256Y-78254660D01*
X67611262Y-78254665D01*
X67803711Y-78402336D01*
X68013788Y-78523624D01*
X68237900Y-78616454D01*
X68472211Y-78679238D01*
X68652586Y-78702984D01*
X68712711Y-78710900D01*
X68712712Y-78710900D01*
X68955289Y-78710900D01*
X69003388Y-78704567D01*
X69195789Y-78679238D01*
X69430100Y-78616454D01*
X69654212Y-78523624D01*
X69864289Y-78402336D01*
X70056738Y-78254665D01*
X70228265Y-78083138D01*
X70375936Y-77890689D01*
X70497224Y-77680612D01*
X70590054Y-77456500D01*
X70652838Y-77222189D01*
X70684500Y-76981688D01*
X70684500Y-76739112D01*
X70652838Y-76498611D01*
X70590054Y-76264300D01*
X70497224Y-76040188D01*
X70375936Y-75830111D01*
X70228265Y-75637662D01*
X70228260Y-75637656D01*
X70056743Y-75466139D01*
X70056736Y-75466133D01*
X69864293Y-75318467D01*
X69864292Y-75318466D01*
X69864289Y-75318464D01*
X69654212Y-75197176D01*
X69654205Y-75197173D01*
X69430104Y-75104347D01*
X69195785Y-75041561D01*
X68955289Y-75009900D01*
X68955288Y-75009900D01*
X68712712Y-75009900D01*
X68712711Y-75009900D01*
X68472214Y-75041561D01*
X68237895Y-75104347D01*
X68013794Y-75197173D01*
X68013785Y-75197177D01*
X67803706Y-75318467D01*
X67611263Y-75466133D01*
X67611256Y-75466139D01*
X67439739Y-75637656D01*
X67439733Y-75637663D01*
X67292067Y-75830106D01*
X67170777Y-76040185D01*
X67170773Y-76040194D01*
X67077947Y-76264295D01*
X67015161Y-76498614D01*
X66983500Y-76739111D01*
X44666247Y-76739111D01*
X44669273Y-68165454D01*
X44688981Y-68098423D01*
X44741801Y-68052686D01*
X44793273Y-68041499D01*
X49807871Y-68041499D01*
X49807872Y-68041499D01*
X49867483Y-68035091D01*
X49878803Y-68030869D01*
X49902735Y-68021943D01*
X49946068Y-68014125D01*
X53346371Y-68014125D01*
X53400891Y-68029040D01*
X53401442Y-68027769D01*
X53408604Y-68030867D01*
X53408607Y-68030869D01*
X53445196Y-68041499D01*
X53562791Y-68075664D01*
X53562794Y-68075664D01*
X53562796Y-68075665D01*
X53598819Y-68078500D01*
X54097180Y-68078499D01*
X54133204Y-68075665D01*
X54287393Y-68030869D01*
X54333852Y-68003392D01*
X54396973Y-67986125D01*
X54851640Y-67986125D01*
X54914761Y-68003393D01*
X54932908Y-68014125D01*
X55031605Y-68072494D01*
X55042516Y-68075664D01*
X55187002Y-68117642D01*
X55187005Y-68117642D01*
X55187007Y-68117643D01*
X55223310Y-68120500D01*
X55480900Y-68120500D01*
X55547939Y-68140185D01*
X55593694Y-68192989D01*
X55604900Y-68244500D01*
X55604900Y-68560697D01*
X55607756Y-68596991D01*
X55607757Y-68596997D01*
X55652904Y-68752390D01*
X55652905Y-68752393D01*
X55735281Y-68891684D01*
X55735287Y-68891692D01*
X55849707Y-69006112D01*
X55849711Y-69006115D01*
X55849713Y-69006117D01*
X55989005Y-69088494D01*
X56027445Y-69099662D01*
X56144402Y-69133642D01*
X56144405Y-69133642D01*
X56144407Y-69133643D01*
X56180710Y-69136500D01*
X56180718Y-69136500D01*
X56590082Y-69136500D01*
X56590090Y-69136500D01*
X56626393Y-69133643D01*
X56665816Y-69122189D01*
X56735684Y-69122387D01*
X56774723Y-69141999D01*
X56890664Y-69228793D01*
X56890671Y-69228797D01*
X56903321Y-69233515D01*
X57025517Y-69279091D01*
X57085127Y-69285500D01*
X57731133Y-69285499D01*
X57798172Y-69305183D01*
X57843927Y-69357987D01*
X57852949Y-69412120D01*
X57854875Y-69412120D01*
X57854875Y-70638181D01*
X57837608Y-70701301D01*
X57826130Y-70720708D01*
X57826129Y-70720711D01*
X57781335Y-70874891D01*
X57781334Y-70874897D01*
X57778500Y-70910911D01*
X57778500Y-71231600D01*
X57758815Y-71298639D01*
X57706011Y-71344394D01*
X57654500Y-71355600D01*
X57331830Y-71355600D01*
X57331808Y-71355601D01*
X57295794Y-71358435D01*
X57134116Y-71405407D01*
X57133206Y-71402276D01*
X57078696Y-71408997D01*
X57051357Y-71401201D01*
X57002493Y-71380961D01*
X57002494Y-71380961D01*
X56847845Y-71350200D01*
X56847842Y-71350200D01*
X56690158Y-71350200D01*
X56690155Y-71350200D01*
X56535510Y-71380961D01*
X56535498Y-71380964D01*
X56389827Y-71441302D01*
X56389814Y-71441309D01*
X56258711Y-71528910D01*
X56258707Y-71528913D01*
X56147213Y-71640407D01*
X56147210Y-71640411D01*
X56059609Y-71771514D01*
X56059602Y-71771527D01*
X55999264Y-71917198D01*
X55999261Y-71917210D01*
X55968500Y-72071853D01*
X55968500Y-72229546D01*
X55999261Y-72384189D01*
X55999264Y-72384201D01*
X56059602Y-72529872D01*
X56059609Y-72529885D01*
X56147210Y-72660988D01*
X56147213Y-72660992D01*
X56258707Y-72772486D01*
X56258711Y-72772489D01*
X56389814Y-72860090D01*
X56389827Y-72860097D01*
X56521259Y-72914537D01*
X56535503Y-72920437D01*
X56678942Y-72948969D01*
X56690153Y-72951199D01*
X56690156Y-72951200D01*
X56690158Y-72951200D01*
X56847844Y-72951200D01*
X56847845Y-72951199D01*
X57002497Y-72920437D01*
X57002507Y-72920432D01*
X57008328Y-72918668D01*
X57009008Y-72920912D01*
X57068120Y-72914537D01*
X57109265Y-72929842D01*
X57141607Y-72948969D01*
X57182268Y-72960782D01*
X57295791Y-72993764D01*
X57295794Y-72993764D01*
X57295796Y-72993765D01*
X57331819Y-72996600D01*
X57647900Y-72996599D01*
X57714939Y-73016283D01*
X57760694Y-73069087D01*
X57771900Y-73120599D01*
X57771900Y-73281646D01*
X57802661Y-73436289D01*
X57802664Y-73436301D01*
X57863002Y-73581972D01*
X57863009Y-73581985D01*
X57950610Y-73713088D01*
X57950613Y-73713092D01*
X58062107Y-73824586D01*
X58062111Y-73824589D01*
X58193214Y-73912190D01*
X58193227Y-73912197D01*
X58338898Y-73972535D01*
X58338903Y-73972537D01*
X58493553Y-74003299D01*
X58493556Y-74003300D01*
X58493558Y-74003300D01*
X58651244Y-74003300D01*
X58651245Y-74003299D01*
X58805897Y-73972537D01*
X58951579Y-73912194D01*
X59082689Y-73824589D01*
X59133570Y-73773708D01*
X59194893Y-73740222D01*
X59264585Y-73745206D01*
X59317792Y-73785036D01*
X59318347Y-73784581D01*
X59320200Y-73786838D01*
X59320518Y-73787077D01*
X59321286Y-73788162D01*
X59322213Y-73789292D01*
X59433707Y-73900786D01*
X59433711Y-73900789D01*
X59564814Y-73988390D01*
X59564827Y-73988397D01*
X59710498Y-74048735D01*
X59710503Y-74048737D01*
X59865153Y-74079499D01*
X59865156Y-74079500D01*
X59865158Y-74079500D01*
X60022844Y-74079500D01*
X60022845Y-74079499D01*
X60177497Y-74048737D01*
X60323179Y-73988394D01*
X60454289Y-73900789D01*
X60565789Y-73789289D01*
X60653394Y-73658179D01*
X60713737Y-73512497D01*
X60744500Y-73357842D01*
X60744500Y-73200158D01*
X60744500Y-73200155D01*
X60744499Y-73200153D01*
X60713739Y-73045511D01*
X60713738Y-73045508D01*
X60713737Y-73045503D01*
X60703937Y-73021844D01*
X60694500Y-72974396D01*
X60694500Y-72158479D01*
X60665659Y-72013492D01*
X60665658Y-72013491D01*
X60665658Y-72013487D01*
X60637505Y-71945520D01*
X60630664Y-71923313D01*
X60628100Y-71910980D01*
X60628100Y-71901310D01*
X60625243Y-71865007D01*
X60601676Y-71783892D01*
X60600696Y-71779175D01*
X60601056Y-71774708D01*
X60598100Y-71753934D01*
X60598100Y-71527465D01*
X60603024Y-71492869D01*
X60618004Y-71441309D01*
X60625243Y-71416393D01*
X60628100Y-71380090D01*
X60628100Y-70910710D01*
X60625243Y-70874407D01*
X60603023Y-70797928D01*
X60598100Y-70763334D01*
X60598100Y-70700850D01*
X60607539Y-70653397D01*
X60612137Y-70642297D01*
X60642900Y-70487642D01*
X60642900Y-70329958D01*
X60642900Y-70329955D01*
X60642899Y-70329953D01*
X60612139Y-70175311D01*
X60612137Y-70175305D01*
X60612137Y-70175303D01*
X60607537Y-70164198D01*
X60598100Y-70116750D01*
X60598100Y-69425679D01*
X60597503Y-69419617D01*
X60599156Y-69419454D01*
X60604669Y-69357823D01*
X60647529Y-69302644D01*
X60713418Y-69279396D01*
X60733308Y-69279928D01*
X60785127Y-69285500D01*
X61265798Y-69285499D01*
X61289986Y-69287881D01*
X61291211Y-69288125D01*
X61704349Y-69288125D01*
X61771388Y-69307810D01*
X61792030Y-69324444D01*
X62104181Y-69636594D01*
X62137666Y-69697917D01*
X62140500Y-69724275D01*
X62140500Y-70033897D01*
X62143356Y-70070191D01*
X62143357Y-70070197D01*
X62188504Y-70225590D01*
X62188505Y-70225593D01*
X62270881Y-70364884D01*
X62270887Y-70364892D01*
X62385307Y-70479312D01*
X62385311Y-70479315D01*
X62385313Y-70479317D01*
X62524605Y-70561694D01*
X62565587Y-70573600D01*
X62680002Y-70606842D01*
X62680005Y-70606842D01*
X62680007Y-70606843D01*
X62716310Y-70609700D01*
X62716318Y-70609700D01*
X63125682Y-70609700D01*
X63125690Y-70609700D01*
X63161993Y-70606843D01*
X63161995Y-70606842D01*
X63161997Y-70606842D01*
X63202975Y-70594936D01*
X63317395Y-70561694D01*
X63456687Y-70479317D01*
X63571117Y-70364887D01*
X63653494Y-70225595D01*
X63698643Y-70070193D01*
X63701500Y-70033890D01*
X63701500Y-69564510D01*
X63698643Y-69528207D01*
X63653494Y-69372805D01*
X63571117Y-69233513D01*
X63547273Y-69209669D01*
X63526053Y-69177902D01*
X63524819Y-69178562D01*
X63521945Y-69173186D01*
X63497432Y-69136500D01*
X63447734Y-69062121D01*
X63353279Y-68967666D01*
X63235419Y-68849806D01*
X63201934Y-68788483D01*
X63206918Y-68718791D01*
X63248790Y-68662858D01*
X63314254Y-68638441D01*
X63323100Y-68638125D01*
X67497648Y-68638125D01*
X67564687Y-68657810D01*
X67597963Y-68689236D01*
X67670070Y-68788483D01*
X67704296Y-68835592D01*
X67854613Y-68985909D01*
X68026579Y-69110848D01*
X68026581Y-69110849D01*
X68026584Y-69110851D01*
X68215988Y-69207357D01*
X68418157Y-69273046D01*
X68628113Y-69306300D01*
X68628114Y-69306300D01*
X69090686Y-69306300D01*
X69090687Y-69306300D01*
X69300643Y-69273046D01*
X69502812Y-69207357D01*
X69692216Y-69110851D01*
X69836370Y-69006118D01*
X69864186Y-68985909D01*
X69864188Y-68985906D01*
X69864192Y-68985904D01*
X70014504Y-68835592D01*
X70014506Y-68835588D01*
X70014509Y-68835586D01*
X70139448Y-68663620D01*
X70139447Y-68663620D01*
X70139451Y-68663616D01*
X70235957Y-68474212D01*
X70301646Y-68272043D01*
X70334900Y-68062087D01*
X70334900Y-67849513D01*
X70301646Y-67639557D01*
X70235957Y-67437388D01*
X70139451Y-67247984D01*
X70139449Y-67247981D01*
X70139448Y-67247979D01*
X70014509Y-67076013D01*
X69864192Y-66925696D01*
X69841015Y-66908857D01*
X69699604Y-66806116D01*
X69656940Y-66750789D01*
X69650961Y-66681176D01*
X69683566Y-66619380D01*
X69699599Y-66605486D01*
X69864192Y-66485904D01*
X70014504Y-66335592D01*
X70014506Y-66335588D01*
X70014509Y-66335586D01*
X70139448Y-66163620D01*
X70139447Y-66163620D01*
X70139451Y-66163616D01*
X70235957Y-65974212D01*
X70301646Y-65772043D01*
X70334900Y-65562087D01*
X70334900Y-65349513D01*
X70301646Y-65139557D01*
X70235957Y-64937388D01*
X70139451Y-64747984D01*
X70139449Y-64747981D01*
X70139448Y-64747979D01*
X70014509Y-64576013D01*
X69864186Y-64425690D01*
X69692220Y-64300751D01*
X69502814Y-64204244D01*
X69502813Y-64204243D01*
X69502812Y-64204243D01*
X69300643Y-64138554D01*
X69300641Y-64138553D01*
X69300640Y-64138553D01*
X69139357Y-64113008D01*
X69090687Y-64105300D01*
X68628113Y-64105300D01*
X68579442Y-64113008D01*
X68418160Y-64138553D01*
X68215985Y-64204244D01*
X68026579Y-64300751D01*
X67854613Y-64425690D01*
X67704292Y-64576011D01*
X67623977Y-64686559D01*
X67568647Y-64729226D01*
X67547114Y-64735436D01*
X67535491Y-64737675D01*
X67511811Y-64737675D01*
X67380798Y-64763735D01*
X67375550Y-64765909D01*
X67363919Y-64770726D01*
X67363917Y-64770727D01*
X67257394Y-64814849D01*
X67257381Y-64814856D01*
X67146321Y-64889065D01*
X67146317Y-64889068D01*
X66089830Y-65945556D01*
X66028507Y-65979041D01*
X66002149Y-65981875D01*
X61291209Y-65981875D01*
X61290389Y-65982038D01*
X61289978Y-65982120D01*
X61265801Y-65984500D01*
X60785129Y-65984500D01*
X60785122Y-65984501D01*
X60720442Y-65991454D01*
X60651682Y-65979047D01*
X60600546Y-65931435D01*
X60583593Y-65865010D01*
X60583500Y-65865010D01*
X60583500Y-65864645D01*
X60583268Y-65863736D01*
X60583500Y-65860276D01*
X60583500Y-65125404D01*
X60592939Y-65077951D01*
X60602737Y-65054297D01*
X60633500Y-64899642D01*
X60633500Y-64741958D01*
X60633500Y-64741955D01*
X60633499Y-64741953D01*
X60602739Y-64587311D01*
X60602736Y-64587301D01*
X60580873Y-64534519D01*
X60573405Y-64465052D01*
X60576356Y-64452482D01*
X60597243Y-64380593D01*
X60600100Y-64344290D01*
X60600100Y-63874910D01*
X60597243Y-63838607D01*
X60575023Y-63762128D01*
X60570100Y-63727534D01*
X60570100Y-63501065D01*
X60575024Y-63466469D01*
X60585734Y-63429605D01*
X60597243Y-63389993D01*
X60600100Y-63353690D01*
X60600100Y-62884310D01*
X60597243Y-62848007D01*
X60552094Y-62692605D01*
X60469717Y-62553313D01*
X60469715Y-62553311D01*
X60469712Y-62553307D01*
X60355292Y-62438887D01*
X60355284Y-62438881D01*
X60215993Y-62356505D01*
X60215990Y-62356504D01*
X60060597Y-62311357D01*
X60060591Y-62311356D01*
X60024297Y-62308500D01*
X60024290Y-62308500D01*
X59614910Y-62308500D01*
X59614902Y-62308500D01*
X59578605Y-62311357D01*
X59574596Y-62312089D01*
X59572333Y-62311850D01*
X59572290Y-62311854D01*
X59572289Y-62311845D01*
X59505111Y-62304765D01*
X59450616Y-62261037D01*
X59428414Y-62194789D01*
X59428325Y-62190105D01*
X59428325Y-61579009D01*
X59417822Y-61526212D01*
X59417822Y-61526210D01*
X59402266Y-61448006D01*
X59402265Y-61447999D01*
X59351147Y-61324588D01*
X59276934Y-61213520D01*
X59276931Y-61213516D01*
X58753444Y-60690029D01*
X58719959Y-60628706D01*
X58717125Y-60602348D01*
X58717125Y-58897803D01*
X58736810Y-58830764D01*
X58768238Y-58797486D01*
X58918792Y-58688104D01*
X59069104Y-58537792D01*
X59069106Y-58537788D01*
X59069109Y-58537786D01*
X59194048Y-58365820D01*
X59194047Y-58365820D01*
X59194051Y-58365816D01*
X59198514Y-58357054D01*
X59246488Y-58306259D01*
X59314308Y-58289463D01*
X59380444Y-58311999D01*
X59419486Y-58357056D01*
X59423951Y-58365820D01*
X59548890Y-58537786D01*
X59699213Y-58688109D01*
X59871179Y-58813048D01*
X59871181Y-58813049D01*
X59871184Y-58813051D01*
X60060588Y-58909557D01*
X60262757Y-58975246D01*
X60472713Y-59008500D01*
X60472714Y-59008500D01*
X60685286Y-59008500D01*
X60685287Y-59008500D01*
X60895243Y-58975246D01*
X61097412Y-58909557D01*
X61286816Y-58813051D01*
X61319789Y-58789095D01*
X61458786Y-58688109D01*
X61458788Y-58688106D01*
X61458792Y-58688104D01*
X61609104Y-58537792D01*
X61609106Y-58537788D01*
X61609109Y-58537786D01*
X61734048Y-58365820D01*
X61734047Y-58365820D01*
X61734051Y-58365816D01*
X61830557Y-58176412D01*
X61896246Y-57974243D01*
X61929500Y-57764287D01*
X61929500Y-57551713D01*
X61896246Y-57341757D01*
X61830557Y-57139588D01*
X61734051Y-56950184D01*
X61734049Y-56950181D01*
X61734048Y-56950179D01*
X61609109Y-56778213D01*
X61458792Y-56627896D01*
X61411602Y-56593611D01*
X61405209Y-56588966D01*
X61362544Y-56533637D01*
X61356565Y-56464024D01*
X61389170Y-56402228D01*
X61450009Y-56367871D01*
X61477978Y-56364648D01*
X72146295Y-56354883D01*
X72213351Y-56374506D01*
G37*
%TD.AperFunction*%
%TA.AperFunction,Conductor*%
G36*
X60297445Y-87103588D02*
G01*
X60330930Y-87164911D01*
X60333054Y-87178017D01*
X60338909Y-87232483D01*
X60340481Y-87236699D01*
X60341916Y-87241874D01*
X60341463Y-87271659D01*
X60343585Y-87301371D01*
X60340872Y-87310611D01*
X60340855Y-87311735D01*
X60340294Y-87312578D01*
X60339173Y-87316396D01*
X60338908Y-87317517D01*
X60332501Y-87377117D01*
X60332501Y-87377123D01*
X60332500Y-87377136D01*
X60332500Y-87822870D01*
X60332501Y-87822876D01*
X60338908Y-87882479D01*
X60340692Y-87890026D01*
X60339229Y-87890371D01*
X60343585Y-87951371D01*
X60339173Y-87966396D01*
X60338908Y-87967517D01*
X60332501Y-88027117D01*
X60332501Y-88027123D01*
X60332500Y-88027136D01*
X60332500Y-88472870D01*
X60332501Y-88472876D01*
X60338908Y-88532479D01*
X60340692Y-88540026D01*
X60339504Y-88540306D01*
X60345029Y-88593536D01*
X60343103Y-88606269D01*
X60338909Y-88617517D01*
X60332768Y-88674631D01*
X60332370Y-88677266D01*
X60318699Y-88706633D01*
X60306313Y-88736537D01*
X60304048Y-88738109D01*
X60302885Y-88740609D01*
X60275519Y-88757916D01*
X60248920Y-88776384D01*
X60246163Y-88776482D01*
X60243834Y-88777956D01*
X60211458Y-88777721D01*
X60179095Y-88778877D01*
X60174551Y-88777454D01*
X60173966Y-88777450D01*
X60173438Y-88777105D01*
X60166430Y-88774911D01*
X60115486Y-88755910D01*
X60115485Y-88755909D01*
X60115483Y-88755909D01*
X60055873Y-88749500D01*
X60055863Y-88749500D01*
X59610129Y-88749500D01*
X59610123Y-88749501D01*
X59550520Y-88755908D01*
X59542974Y-88757692D01*
X59542628Y-88756230D01*
X59481622Y-88760584D01*
X59466600Y-88756172D01*
X59465482Y-88755908D01*
X59405882Y-88749501D01*
X59405873Y-88749500D01*
X59405863Y-88749500D01*
X58960129Y-88749500D01*
X58960123Y-88749501D01*
X58900520Y-88755908D01*
X58892974Y-88757692D01*
X58892671Y-88756410D01*
X58836724Y-88761583D01*
X58825415Y-88759613D01*
X58815483Y-88755909D01*
X58785858Y-88752723D01*
X58781857Y-88752027D01*
X58754005Y-88738296D01*
X58725324Y-88726415D01*
X58722940Y-88722981D01*
X58719189Y-88721132D01*
X58703182Y-88694523D01*
X58685477Y-88669021D01*
X58684137Y-88662863D01*
X58683173Y-88661260D01*
X58683246Y-88658767D01*
X58679843Y-88643118D01*
X58677091Y-88617517D01*
X58677090Y-88617513D01*
X58675308Y-88609969D01*
X58676773Y-88609622D01*
X58672409Y-88548651D01*
X58676819Y-88533633D01*
X58677089Y-88532488D01*
X58677088Y-88532488D01*
X58677091Y-88532483D01*
X58683500Y-88472873D01*
X58683499Y-88027128D01*
X58677091Y-87967517D01*
X58677090Y-87967515D01*
X58677090Y-87967512D01*
X58675308Y-87959969D01*
X58676773Y-87959622D01*
X58672409Y-87898651D01*
X58676819Y-87883633D01*
X58677089Y-87882488D01*
X58677088Y-87882488D01*
X58677091Y-87882483D01*
X58683500Y-87822873D01*
X58683499Y-87377128D01*
X58677091Y-87317517D01*
X58677090Y-87317515D01*
X58677090Y-87317512D01*
X58675308Y-87309969D01*
X58676594Y-87309664D01*
X58671416Y-87253724D01*
X58673384Y-87242419D01*
X58677091Y-87232483D01*
X58680277Y-87202843D01*
X58680972Y-87198857D01*
X58694698Y-87171014D01*
X58706581Y-87142327D01*
X58710017Y-87139941D01*
X58711867Y-87136189D01*
X58738475Y-87120182D01*
X58763974Y-87102479D01*
X58770132Y-87101139D01*
X58771739Y-87100173D01*
X58774234Y-87100246D01*
X58789879Y-87096843D01*
X58815483Y-87094091D01*
X58815486Y-87094090D01*
X58823031Y-87092308D01*
X58823377Y-87093775D01*
X58884342Y-87089408D01*
X58899378Y-87093822D01*
X58900511Y-87094089D01*
X58900517Y-87094091D01*
X58960127Y-87100500D01*
X59405872Y-87100499D01*
X59465483Y-87094091D01*
X59465485Y-87094090D01*
X59465487Y-87094090D01*
X59473031Y-87092308D01*
X59473377Y-87093775D01*
X59534342Y-87089408D01*
X59549378Y-87093822D01*
X59550511Y-87094089D01*
X59550517Y-87094091D01*
X59610127Y-87100500D01*
X60055872Y-87100499D01*
X60115483Y-87094091D01*
X60166430Y-87075088D01*
X60236121Y-87070104D01*
X60297445Y-87103588D01*
G37*
%TD.AperFunction*%
%TA.AperFunction,Conductor*%
G36*
X60222245Y-66781096D02*
G01*
X60236121Y-66780104D01*
X60255173Y-66790506D01*
X60276046Y-66796472D01*
X60285232Y-66806919D01*
X60297445Y-66813588D01*
X60307849Y-66832642D01*
X60322182Y-66848943D01*
X60328879Y-66871156D01*
X60330930Y-66874911D01*
X60331996Y-66881494D01*
X60332371Y-66882735D01*
X60332769Y-66885373D01*
X60338909Y-66942483D01*
X60343104Y-66953731D01*
X60345029Y-66966464D01*
X60339506Y-67019685D01*
X60340693Y-67019966D01*
X60338908Y-67027517D01*
X60333695Y-67076008D01*
X60332501Y-67087123D01*
X60332500Y-67087136D01*
X60332500Y-67532870D01*
X60332501Y-67532876D01*
X60338908Y-67592479D01*
X60340692Y-67600026D01*
X60339229Y-67600371D01*
X60343585Y-67661371D01*
X60339173Y-67676396D01*
X60338908Y-67677517D01*
X60332501Y-67737117D01*
X60332501Y-67737123D01*
X60332500Y-67737136D01*
X60332500Y-68182870D01*
X60332501Y-68182876D01*
X60338908Y-68242479D01*
X60340692Y-68250026D01*
X60339504Y-68250306D01*
X60345029Y-68303536D01*
X60343103Y-68316269D01*
X60338909Y-68327517D01*
X60332768Y-68384631D01*
X60332370Y-68387266D01*
X60318699Y-68416633D01*
X60306313Y-68446537D01*
X60304048Y-68448109D01*
X60302885Y-68450609D01*
X60275519Y-68467916D01*
X60248920Y-68486384D01*
X60246163Y-68486482D01*
X60243834Y-68487956D01*
X60211458Y-68487721D01*
X60179095Y-68488877D01*
X60174551Y-68487454D01*
X60173966Y-68487450D01*
X60173438Y-68487105D01*
X60166430Y-68484911D01*
X60115486Y-68465910D01*
X60115485Y-68465909D01*
X60115483Y-68465909D01*
X60055873Y-68459500D01*
X60055863Y-68459500D01*
X59610129Y-68459500D01*
X59610123Y-68459501D01*
X59550520Y-68465908D01*
X59542974Y-68467692D01*
X59542628Y-68466230D01*
X59481622Y-68470584D01*
X59466600Y-68466172D01*
X59465482Y-68465908D01*
X59405882Y-68459501D01*
X59405873Y-68459500D01*
X59405863Y-68459500D01*
X58960129Y-68459500D01*
X58960123Y-68459501D01*
X58900520Y-68465908D01*
X58892974Y-68467692D01*
X58892671Y-68466410D01*
X58836724Y-68471583D01*
X58825415Y-68469613D01*
X58815483Y-68465909D01*
X58785858Y-68462723D01*
X58781857Y-68462027D01*
X58754005Y-68448296D01*
X58725324Y-68436415D01*
X58722940Y-68432981D01*
X58719189Y-68431132D01*
X58703182Y-68404523D01*
X58685477Y-68379021D01*
X58684137Y-68372863D01*
X58683173Y-68371260D01*
X58683246Y-68368767D01*
X58679843Y-68353118D01*
X58677091Y-68327517D01*
X58677090Y-68327513D01*
X58675308Y-68319969D01*
X58676773Y-68319622D01*
X58672409Y-68258651D01*
X58676819Y-68243633D01*
X58677089Y-68242488D01*
X58677088Y-68242488D01*
X58677091Y-68242483D01*
X58683500Y-68182873D01*
X58683499Y-67737128D01*
X58677091Y-67677517D01*
X58677090Y-67677515D01*
X58677090Y-67677512D01*
X58675308Y-67669969D01*
X58676773Y-67669622D01*
X58672409Y-67608651D01*
X58676819Y-67593633D01*
X58677089Y-67592488D01*
X58677088Y-67592488D01*
X58677091Y-67592483D01*
X58683500Y-67532873D01*
X58683499Y-67087128D01*
X58677091Y-67027517D01*
X58677090Y-67027515D01*
X58677090Y-67027512D01*
X58675308Y-67019969D01*
X58676594Y-67019664D01*
X58671416Y-66963724D01*
X58673384Y-66952419D01*
X58677091Y-66942483D01*
X58680277Y-66912843D01*
X58680972Y-66908857D01*
X58694698Y-66881014D01*
X58706581Y-66852327D01*
X58710017Y-66849941D01*
X58711867Y-66846189D01*
X58738475Y-66830182D01*
X58763974Y-66812479D01*
X58770132Y-66811139D01*
X58771739Y-66810173D01*
X58774234Y-66810246D01*
X58789879Y-66806843D01*
X58815483Y-66804091D01*
X58815486Y-66804090D01*
X58823031Y-66802308D01*
X58823377Y-66803775D01*
X58884342Y-66799408D01*
X58899378Y-66803822D01*
X58900511Y-66804089D01*
X58900517Y-66804091D01*
X58960127Y-66810500D01*
X59405872Y-66810499D01*
X59465483Y-66804091D01*
X59465485Y-66804090D01*
X59465487Y-66804090D01*
X59473031Y-66802308D01*
X59473377Y-66803775D01*
X59534342Y-66799408D01*
X59549378Y-66803822D01*
X59550511Y-66804089D01*
X59550517Y-66804091D01*
X59610127Y-66810500D01*
X60055872Y-66810499D01*
X60115483Y-66804091D01*
X60166430Y-66785088D01*
X60188080Y-66783540D01*
X60208866Y-66777273D01*
X60222245Y-66781096D01*
G37*
%TD.AperFunction*%
%TA.AperFunction,Conductor*%
G36*
X54658172Y-56390574D02*
G01*
X54703975Y-56443336D01*
X54713982Y-56512486D01*
X54685015Y-56576068D01*
X54664114Y-56595269D01*
X54619209Y-56627894D01*
X54468890Y-56778213D01*
X54343951Y-56950179D01*
X54247444Y-57139585D01*
X54181753Y-57341760D01*
X54151195Y-57534700D01*
X54148500Y-57551713D01*
X54148500Y-57764287D01*
X54181754Y-57974243D01*
X54242910Y-58162462D01*
X54247444Y-58176414D01*
X54343951Y-58365820D01*
X54468890Y-58537786D01*
X54619211Y-58688107D01*
X54689542Y-58739204D01*
X54769760Y-58797486D01*
X54812426Y-58852814D01*
X54820875Y-58897803D01*
X54820875Y-59293010D01*
X54820875Y-59426590D01*
X54820875Y-59426592D01*
X54820874Y-59426592D01*
X54846933Y-59557594D01*
X54846935Y-59557602D01*
X54898049Y-59681004D01*
X54898059Y-59681022D01*
X54972262Y-59792075D01*
X54972268Y-59792083D01*
X57017756Y-61837570D01*
X57051241Y-61898893D01*
X57054075Y-61925251D01*
X57054075Y-62595425D01*
X57036807Y-62658546D01*
X57009332Y-62705003D01*
X57009330Y-62705008D01*
X56964535Y-62859191D01*
X56964534Y-62859197D01*
X56961700Y-62895211D01*
X56961700Y-63393569D01*
X56961701Y-63393591D01*
X56964535Y-63429605D01*
X57009330Y-63583791D01*
X57009334Y-63583801D01*
X57014576Y-63592665D01*
X57031756Y-63660389D01*
X57016103Y-63713704D01*
X57016430Y-63713846D01*
X57015284Y-63716493D01*
X57014580Y-63718893D01*
X57013334Y-63720998D01*
X57013329Y-63721011D01*
X56968535Y-63875191D01*
X56968534Y-63875197D01*
X56965700Y-63911211D01*
X56965700Y-64409569D01*
X56965701Y-64409591D01*
X56968535Y-64445605D01*
X57013329Y-64599788D01*
X57013331Y-64599793D01*
X57095065Y-64737998D01*
X57208602Y-64851535D01*
X57208607Y-64851538D01*
X57214768Y-64856317D01*
X57214376Y-64856821D01*
X57228781Y-64867995D01*
X57818556Y-65457769D01*
X57852041Y-65519092D01*
X57854875Y-65545450D01*
X57854875Y-65857880D01*
X57852728Y-65857880D01*
X57841516Y-65916994D01*
X57793450Y-65967703D01*
X57731133Y-65984500D01*
X57085129Y-65984500D01*
X57085123Y-65984501D01*
X57025516Y-65990908D01*
X56890671Y-66041202D01*
X56890664Y-66041206D01*
X56775455Y-66127452D01*
X56775452Y-66127455D01*
X56689206Y-66242664D01*
X56689202Y-66242671D01*
X56638909Y-66377513D01*
X56638909Y-66377517D01*
X56637700Y-66388755D01*
X56610965Y-66453304D01*
X56553574Y-66493154D01*
X56514412Y-66499500D01*
X56183302Y-66499500D01*
X56147008Y-66502356D01*
X56147002Y-66502357D01*
X55991608Y-66547504D01*
X55991602Y-66547506D01*
X55971120Y-66559620D01*
X55903396Y-66576801D01*
X55844880Y-66559620D01*
X55824397Y-66547506D01*
X55824391Y-66547504D01*
X55668997Y-66502357D01*
X55668991Y-66502356D01*
X55632697Y-66499500D01*
X55632690Y-66499500D01*
X55223310Y-66499500D01*
X55223302Y-66499500D01*
X55187008Y-66502356D01*
X55187002Y-66502357D01*
X55031609Y-66547504D01*
X55031606Y-66547505D01*
X55013842Y-66558011D01*
X54933574Y-66605482D01*
X54921526Y-66612607D01*
X54858405Y-66629875D01*
X54396973Y-66629875D01*
X54333852Y-66612607D01*
X54321804Y-66605482D01*
X54287393Y-66585131D01*
X54287392Y-66585130D01*
X54287391Y-66585130D01*
X54287388Y-66585129D01*
X54133208Y-66540335D01*
X54133202Y-66540334D01*
X54097181Y-66537500D01*
X53598830Y-66537500D01*
X53598808Y-66537501D01*
X53562794Y-66540335D01*
X53408611Y-66585129D01*
X53408606Y-66585131D01*
X53362147Y-66612607D01*
X53321057Y-66636908D01*
X53314802Y-66640607D01*
X53251681Y-66657875D01*
X49946068Y-66657875D01*
X49902735Y-66650057D01*
X49867482Y-66636908D01*
X49867483Y-66636908D01*
X49807883Y-66630501D01*
X49807881Y-66630500D01*
X49807873Y-66630500D01*
X49807865Y-66630500D01*
X44793859Y-66630500D01*
X44726820Y-66610815D01*
X44681065Y-66558011D01*
X44669859Y-66506456D01*
X44670371Y-65054289D01*
X44671076Y-63057610D01*
X44671196Y-63057162D01*
X44671100Y-62991425D01*
X44671123Y-62926285D01*
X44671122Y-62926283D01*
X44671125Y-62919370D01*
X44670991Y-62917356D01*
X44665656Y-59263911D01*
X48187500Y-59263911D01*
X48187500Y-59506488D01*
X48219161Y-59746985D01*
X48281947Y-59981304D01*
X48321210Y-60076093D01*
X48374776Y-60205412D01*
X48496064Y-60415489D01*
X48496066Y-60415492D01*
X48496067Y-60415493D01*
X48643733Y-60607936D01*
X48643739Y-60607943D01*
X48815256Y-60779460D01*
X48815262Y-60779465D01*
X49007711Y-60927136D01*
X49217788Y-61048424D01*
X49441900Y-61141254D01*
X49676211Y-61204038D01*
X49856586Y-61227784D01*
X49916711Y-61235700D01*
X49916712Y-61235700D01*
X50159289Y-61235700D01*
X50207388Y-61229367D01*
X50399789Y-61204038D01*
X50634100Y-61141254D01*
X50858212Y-61048424D01*
X51068289Y-60927136D01*
X51260738Y-60779465D01*
X51432265Y-60607938D01*
X51579936Y-60415489D01*
X51701224Y-60205412D01*
X51794054Y-59981300D01*
X51856838Y-59746989D01*
X51888500Y-59506488D01*
X51888500Y-59263912D01*
X51887989Y-59260034D01*
X51865381Y-59088302D01*
X51856838Y-59023411D01*
X51794054Y-58789100D01*
X51701224Y-58564988D01*
X51579936Y-58354911D01*
X51432265Y-58162462D01*
X51432260Y-58162456D01*
X51260743Y-57990939D01*
X51260736Y-57990933D01*
X51068293Y-57843267D01*
X51068292Y-57843266D01*
X51068289Y-57843264D01*
X50858212Y-57721976D01*
X50858205Y-57721973D01*
X50634104Y-57629147D01*
X50399785Y-57566361D01*
X50159289Y-57534700D01*
X50159288Y-57534700D01*
X49916712Y-57534700D01*
X49916711Y-57534700D01*
X49676214Y-57566361D01*
X49441895Y-57629147D01*
X49217794Y-57721973D01*
X49217785Y-57721977D01*
X49007706Y-57843267D01*
X48815263Y-57990933D01*
X48815256Y-57990939D01*
X48643739Y-58162456D01*
X48643733Y-58162463D01*
X48496067Y-58354906D01*
X48374777Y-58564985D01*
X48374773Y-58564994D01*
X48281947Y-58789095D01*
X48219161Y-59023414D01*
X48187500Y-59263911D01*
X44665656Y-59263911D01*
X44661626Y-56504107D01*
X44681213Y-56437040D01*
X44733950Y-56391208D01*
X44785510Y-56379927D01*
X54591116Y-56370951D01*
X54658172Y-56390574D01*
G37*
%TD.AperFunction*%
%TD*%
M02*
