%TF.GenerationSoftware,KiCad,Pcbnew,9.0.0*%
%TF.CreationDate,2025-04-16T15:55:05+03:00*%
%TF.ProjectId,power_detector,706f7765-725f-4646-9574-6563746f722e,rev?*%
%TF.SameCoordinates,Original*%
%TF.FileFunction,Copper,L3,Inr*%
%TF.FilePolarity,Positive*%
%FSLAX46Y46*%
G04 Gerber Fmt 4.6, Leading zero omitted, Abs format (unit mm)*
G04 Created by KiCad (PCBNEW 9.0.0) date 2025-04-16 15:55:05*
%MOMM*%
%LPD*%
G01*
G04 APERTURE LIST*
G04 Aperture macros list*
%AMRoundRect*
0 Rectangle with rounded corners*
0 $1 Rounding radius*
0 $2 $3 $4 $5 $6 $7 $8 $9 X,Y pos of 4 corners*
0 Add a 4 corners polygon primitive as box body*
4,1,4,$2,$3,$4,$5,$6,$7,$8,$9,$2,$3,0*
0 Add four circle primitives for the rounded corners*
1,1,$1+$1,$2,$3*
1,1,$1+$1,$4,$5*
1,1,$1+$1,$6,$7*
1,1,$1+$1,$8,$9*
0 Add four rect primitives between the rounded corners*
20,1,$1+$1,$2,$3,$4,$5,0*
20,1,$1+$1,$4,$5,$6,$7,0*
20,1,$1+$1,$6,$7,$8,$9,0*
20,1,$1+$1,$8,$9,$2,$3,0*%
G04 Aperture macros list end*
%TA.AperFunction,ComponentPad*%
%ADD10RoundRect,0.250000X0.725000X-0.600000X0.725000X0.600000X-0.725000X0.600000X-0.725000X-0.600000X0*%
%TD*%
%TA.AperFunction,ComponentPad*%
%ADD11O,1.950000X1.700000*%
%TD*%
%TA.AperFunction,ComponentPad*%
%ADD12R,3.000000X3.000000*%
%TD*%
%TA.AperFunction,ComponentPad*%
%ADD13C,3.000000*%
%TD*%
%TA.AperFunction,ComponentPad*%
%ADD14R,1.700000X1.700000*%
%TD*%
%TA.AperFunction,ComponentPad*%
%ADD15O,1.700000X1.700000*%
%TD*%
%TA.AperFunction,ViaPad*%
%ADD16C,0.600000*%
%TD*%
G04 APERTURE END LIST*
D10*
%TO.N,GND*%
%TO.C,J9*%
X68867800Y-90770400D03*
D11*
%TO.N,/vrms_fow*%
X68867800Y-88270400D03*
%TO.N,/mcu_adc_fow*%
X68867800Y-85770400D03*
%TO.N,GND*%
X68867800Y-83270400D03*
%TD*%
D12*
%TO.N,GND*%
%TO.C,J3*%
X48158400Y-74904600D03*
D13*
%TO.N,+5V*%
X48158400Y-79984600D03*
%TD*%
D10*
%TO.N,GND*%
%TO.C,J10*%
X68859400Y-70455800D03*
D11*
%TO.N,/vrms_ref*%
X68859400Y-67955800D03*
%TO.N,/mcu_adc_ref*%
X68859400Y-65455800D03*
%TO.N,GND*%
X68859400Y-62955800D03*
%TD*%
D14*
%TO.N,GND*%
%TO.C,J6*%
X63236000Y-97129600D03*
D15*
%TO.N,/vtgt_fow*%
X60696000Y-97129600D03*
%TO.N,/TC2_fow*%
X58156000Y-97129600D03*
%TO.N,/vref_fow*%
X55616000Y-97129600D03*
%TD*%
D14*
%TO.N,GND*%
%TO.C,J7*%
X63119000Y-57658000D03*
D15*
%TO.N,/TC2_ref*%
X60579000Y-57658000D03*
%TO.N,/vref_ref*%
X58039000Y-57658000D03*
%TO.N,/vtgt_ref*%
X55499000Y-57658000D03*
%TD*%
D16*
%TO.N,+5V*%
X59833000Y-64820800D03*
X59944000Y-73279000D03*
X59817000Y-90830400D03*
X59833000Y-85004400D03*
X59842400Y-70408800D03*
X59817000Y-81280000D03*
%TO.N,GND*%
X66040000Y-59944000D03*
X63246000Y-93218000D03*
X70993000Y-96393000D03*
X54864000Y-65532000D03*
X70739000Y-59690000D03*
X50292000Y-74422000D03*
X58928000Y-74168000D03*
X64770000Y-65532000D03*
X65151000Y-96012000D03*
X55880000Y-76200000D03*
X71120000Y-89916000D03*
X54610000Y-77978000D03*
X63627000Y-73279000D03*
X55118000Y-73914000D03*
X50546000Y-82550000D03*
X65913000Y-60960000D03*
X53594000Y-83566000D03*
X64516000Y-70866000D03*
X52324000Y-76962000D03*
X63246000Y-82296000D03*
X67183000Y-60198000D03*
X51308000Y-68326000D03*
X47752000Y-92456000D03*
X54610000Y-69088000D03*
X53340000Y-71120000D03*
X61722000Y-60706000D03*
X50038000Y-89408000D03*
X45974000Y-96012000D03*
X52832000Y-63500000D03*
X66802000Y-83820000D03*
X64897000Y-92710000D03*
X65786000Y-85852000D03*
X71882000Y-65659000D03*
X63119000Y-85852000D03*
X46990000Y-86614000D03*
X70231000Y-57658000D03*
X54864000Y-85598000D03*
X68453000Y-97282000D03*
X64643000Y-73279000D03*
X68326000Y-58293000D03*
X55626000Y-93726000D03*
X55626000Y-63500000D03*
X60017575Y-68275200D03*
X51308000Y-74422000D03*
X70358000Y-73025000D03*
X46736000Y-98044000D03*
X45720000Y-73660000D03*
X63119000Y-65532000D03*
X61214000Y-75946000D03*
X51562000Y-76454000D03*
X63754000Y-75692000D03*
X63500000Y-83312000D03*
X46482000Y-62738000D03*
X52578000Y-81026000D03*
X52578000Y-72898000D03*
X64643000Y-78994000D03*
X69469000Y-72898000D03*
X54356000Y-95758000D03*
X55880000Y-81026000D03*
X56388000Y-83439000D03*
X45212000Y-96266000D03*
X57658000Y-76200000D03*
X54610000Y-91186000D03*
X48260000Y-62738000D03*
X54762400Y-88620600D03*
X63881000Y-90932000D03*
X58953400Y-88544400D03*
X52070000Y-92456000D03*
X50038000Y-90170000D03*
X71882000Y-74422000D03*
X54356000Y-59944000D03*
X62611000Y-79756000D03*
X71120000Y-85090000D03*
X45974000Y-94488000D03*
X71882000Y-79248000D03*
X71120000Y-86360000D03*
X64262000Y-80010000D03*
X69342000Y-95631000D03*
X45212000Y-95250000D03*
X46228000Y-59182000D03*
X66040000Y-91313000D03*
X64262000Y-77978000D03*
X69469000Y-97917000D03*
X53213000Y-86487000D03*
X52959000Y-89408000D03*
X71374000Y-70485000D03*
X54610000Y-93726000D03*
X46736000Y-92456000D03*
X54102000Y-61976000D03*
X54102000Y-65278000D03*
X52324000Y-78994000D03*
X67564000Y-81534000D03*
X70612000Y-97917000D03*
X65532000Y-79248000D03*
X70485000Y-60325000D03*
X65913000Y-64008000D03*
X66421000Y-65024000D03*
X71755000Y-62357000D03*
X67437000Y-57531000D03*
X65405000Y-57404000D03*
X64135000Y-63246000D03*
X65151000Y-97282000D03*
X65532000Y-70104000D03*
X45339000Y-60706000D03*
X52578000Y-85090000D03*
X71120000Y-94869000D03*
X64643000Y-83947000D03*
X54864000Y-72644000D03*
X63246000Y-80391000D03*
X66421000Y-56896000D03*
X48133000Y-68326000D03*
X70485000Y-69088000D03*
X71882000Y-80010000D03*
X65278000Y-81407000D03*
X53340000Y-81026000D03*
X50292000Y-75438000D03*
X61595000Y-59309000D03*
X62865000Y-74549000D03*
X48133000Y-66294000D03*
X54610000Y-76200000D03*
X54610000Y-62992000D03*
X51816000Y-85598000D03*
X59563000Y-93726000D03*
X66802000Y-63500000D03*
X50038000Y-91694000D03*
X54102000Y-71882000D03*
X54864000Y-61468000D03*
X61468000Y-94488000D03*
X51308000Y-70104000D03*
X69469000Y-93472000D03*
X52578000Y-98044000D03*
X64719200Y-90093800D03*
X50546000Y-71882000D03*
X48133000Y-88646000D03*
X46482000Y-97028000D03*
X45720000Y-75438000D03*
X62484000Y-71120000D03*
X63500000Y-70866000D03*
X49784000Y-71882000D03*
X45974000Y-68326000D03*
X50292000Y-63246000D03*
X57277000Y-90043000D03*
X56896000Y-81788000D03*
X51816000Y-73914000D03*
X60084575Y-87270391D03*
X53340000Y-85598000D03*
X61214000Y-79756000D03*
X53086000Y-61468000D03*
X51943000Y-88646000D03*
X68453000Y-61341000D03*
X51308000Y-65278000D03*
X54356000Y-60960000D03*
X49022000Y-86614000D03*
X53086000Y-68326000D03*
X66675000Y-85344000D03*
X67310000Y-84836000D03*
X63246000Y-62611000D03*
X55372000Y-76708000D03*
X66548000Y-92583000D03*
X57912000Y-74168000D03*
X54610000Y-94742000D03*
X48768000Y-82550000D03*
X71374000Y-72771000D03*
X57404000Y-70104000D03*
X53594000Y-60706000D03*
X51816000Y-71882000D03*
X66548000Y-59055000D03*
X71501000Y-66802000D03*
X63754000Y-76962000D03*
X63119000Y-91186000D03*
X65405000Y-58801000D03*
X66802000Y-58293000D03*
X58928000Y-75184000D03*
X53340000Y-64262000D03*
X56134000Y-77978000D03*
X56388000Y-74676000D03*
X59309000Y-60452000D03*
X65024000Y-71882000D03*
X66675000Y-90678000D03*
X65151000Y-95123000D03*
X51816000Y-77978000D03*
X50546000Y-85090000D03*
X50292000Y-78232000D03*
X69723000Y-56896000D03*
X58420000Y-78994000D03*
X51816000Y-91186000D03*
X53594000Y-76962000D03*
X44969379Y-66294004D03*
X61468000Y-63119000D03*
X47244000Y-62738000D03*
X61214000Y-78994000D03*
X51308000Y-75692000D03*
X53086000Y-93980000D03*
X71501000Y-57658000D03*
X52578000Y-90424000D03*
X59690000Y-61087000D03*
X55626000Y-72390000D03*
X56642000Y-82804000D03*
X63373000Y-95123000D03*
X66929000Y-97917000D03*
X45974000Y-66294000D03*
X65532000Y-85090000D03*
X66294000Y-81534000D03*
X55880000Y-75438000D03*
X59436000Y-94742000D03*
X61722000Y-65405000D03*
X66167000Y-95885000D03*
X63246000Y-94234000D03*
X64262000Y-95123000D03*
X50292000Y-66294000D03*
X54356000Y-64262000D03*
X55626000Y-92837000D03*
X66421000Y-97536000D03*
X53086000Y-69088000D03*
X46482000Y-93472000D03*
X64897000Y-61341000D03*
X56388000Y-82296000D03*
X53594000Y-81788000D03*
X66548000Y-73533000D03*
X54229000Y-66167000D03*
X46482000Y-58166000D03*
X65532000Y-72771000D03*
X49022000Y-62738000D03*
X61468000Y-69596000D03*
X45720000Y-92456000D03*
X61493400Y-84226400D03*
X44968627Y-88646098D03*
X51816000Y-70866000D03*
X70612000Y-63500000D03*
X46990000Y-66294000D03*
X51816000Y-62738000D03*
X69850000Y-97028000D03*
X54610000Y-71120000D03*
X62230000Y-72898000D03*
X53848000Y-59690000D03*
X53340000Y-90932000D03*
X45339000Y-59563000D03*
X66294000Y-93853000D03*
X70358000Y-62230000D03*
X51308000Y-69088000D03*
X49784000Y-62738000D03*
X68453000Y-93853000D03*
X65024000Y-89281000D03*
X71120000Y-82550000D03*
X61679375Y-90170000D03*
X53848000Y-63500000D03*
X52832000Y-91948000D03*
X46228000Y-60198000D03*
X45974000Y-88646000D03*
X53340000Y-94996000D03*
X53848000Y-89331800D03*
X55880000Y-81788000D03*
X53086000Y-73914000D03*
X45974000Y-86614000D03*
X54102000Y-70104000D03*
X71120000Y-80137000D03*
X55118000Y-60452000D03*
X63881000Y-72136000D03*
X65913000Y-71374000D03*
X56134000Y-71120000D03*
X55372000Y-62230000D03*
X53594000Y-74930000D03*
X61214000Y-73660000D03*
X66548000Y-72390000D03*
X53086000Y-62738000D03*
X67437000Y-95885000D03*
X60452000Y-94742000D03*
X56896000Y-69596000D03*
X53848000Y-84582000D03*
X62484000Y-78613000D03*
X61468000Y-83312000D03*
X52324000Y-69088000D03*
X54610000Y-81788000D03*
X62357000Y-75565000D03*
X70612000Y-71120000D03*
X56642000Y-70358000D03*
X65151000Y-78486000D03*
X50546000Y-71120000D03*
X57404000Y-77978000D03*
X56388000Y-85344000D03*
X50546000Y-85852000D03*
X51054000Y-88646000D03*
X63881000Y-65532000D03*
X58928000Y-77216000D03*
X64643000Y-93853000D03*
X52578000Y-84328000D03*
X55626000Y-91948000D03*
X53848000Y-90170000D03*
X53340000Y-78994000D03*
X71628000Y-71755000D03*
X50292000Y-73660000D03*
X62865000Y-61849000D03*
X54737000Y-89662000D03*
X55499000Y-83947000D03*
X53848000Y-97282000D03*
X52578000Y-92964000D03*
X53340000Y-72390000D03*
X61214000Y-80518000D03*
X71755000Y-63246000D03*
X66167000Y-82804000D03*
X52324000Y-65278000D03*
X47752000Y-82550000D03*
X68580000Y-81534000D03*
X52324000Y-86614000D03*
X51562000Y-86614000D03*
X64643000Y-68961000D03*
X51054000Y-64516000D03*
X56134000Y-69596000D03*
X68834000Y-72136000D03*
X64135000Y-89281000D03*
X70739000Y-97028000D03*
X70104000Y-58674000D03*
X57023000Y-65532000D03*
X50165000Y-88646000D03*
X67310000Y-71755000D03*
X52324000Y-74422000D03*
X71120000Y-88646000D03*
X56134000Y-61595000D03*
X71247000Y-56896000D03*
X52832000Y-88646000D03*
X64008000Y-85852000D03*
X71120000Y-81788000D03*
X52832000Y-70104000D03*
X66929000Y-61595000D03*
X49530000Y-77470000D03*
X54356000Y-73152000D03*
X70739000Y-65659000D03*
X64008000Y-92075000D03*
X51562000Y-72898000D03*
X71120000Y-91948000D03*
X50038000Y-72898000D03*
X52832000Y-73406000D03*
X52324000Y-64516000D03*
X50292000Y-65278000D03*
X54102000Y-81026000D03*
X70739000Y-67564000D03*
X65151000Y-82550000D03*
X45339000Y-61722000D03*
X70231000Y-72009000D03*
X68199000Y-56896000D03*
X69723000Y-92456000D03*
X57658000Y-75184000D03*
X63246000Y-63500000D03*
X46990000Y-88646000D03*
X64897000Y-85852000D03*
X63627000Y-61087000D03*
X50292000Y-81534000D03*
X65024000Y-64389000D03*
X61518800Y-92532200D03*
X53848000Y-91948000D03*
X68072000Y-59055000D03*
X65659000Y-65532000D03*
X51054000Y-77470000D03*
X61214000Y-76708000D03*
X53848000Y-73660000D03*
X65659000Y-83820000D03*
X65532000Y-89789000D03*
X51816000Y-89662000D03*
X69342000Y-60452000D03*
X51054000Y-91948000D03*
X46736000Y-71882000D03*
X71628000Y-60452000D03*
X54356000Y-83566000D03*
X63500000Y-79248000D03*
X51054000Y-82042000D03*
X45212000Y-97282000D03*
X70739000Y-64389000D03*
X51054000Y-63754000D03*
X56794400Y-91084400D03*
X66167000Y-62611000D03*
X50800000Y-72898000D03*
X55626000Y-70358000D03*
X55118000Y-81026000D03*
X44969379Y-86614004D03*
X52832000Y-97282000D03*
X58945225Y-87299800D03*
X64262000Y-74676000D03*
X55372000Y-82804000D03*
X67310000Y-92710000D03*
X65278000Y-91821000D03*
X55753000Y-61087000D03*
X53594000Y-58420000D03*
X59309000Y-59436000D03*
X62992000Y-60198000D03*
X68961000Y-57531000D03*
X68961000Y-59436000D03*
X61595000Y-59944000D03*
X56134000Y-84328000D03*
X46482000Y-77724000D03*
X61214000Y-72898000D03*
X57658000Y-81026000D03*
X65532000Y-68961000D03*
X61468000Y-93472000D03*
X67564000Y-96774000D03*
X67056000Y-82550000D03*
X71755000Y-64516000D03*
X67564000Y-94107000D03*
X46736000Y-82550000D03*
X52324000Y-68326000D03*
X51308000Y-78994000D03*
X50546000Y-70104000D03*
X63500000Y-85090000D03*
X45720000Y-62738000D03*
X65405000Y-74041000D03*
X56845200Y-71145400D03*
X50038000Y-86614000D03*
X52578000Y-83312000D03*
X51308000Y-66294000D03*
X62103000Y-73914000D03*
X45720000Y-81280000D03*
X49022000Y-66294000D03*
X71120000Y-93218000D03*
X68326000Y-94869000D03*
X61214000Y-78232000D03*
X64516000Y-76327000D03*
X67056000Y-70231000D03*
X67183000Y-62484000D03*
X55245000Y-66167000D03*
X67056000Y-64516000D03*
X55626000Y-64897000D03*
X63246000Y-64389000D03*
X51308000Y-83312000D03*
X65151000Y-97917000D03*
X51816000Y-63754000D03*
X64262000Y-62103000D03*
X69850000Y-81534000D03*
X53340000Y-96266000D03*
X63627000Y-59436000D03*
X56261000Y-66167000D03*
X54356000Y-75438000D03*
X57404000Y-73406000D03*
X57404000Y-85852000D03*
X61679375Y-85725000D03*
X61214000Y-77470000D03*
X71120000Y-87630000D03*
X66802000Y-71247000D03*
X55626000Y-69088000D03*
X64135000Y-64389000D03*
X52578000Y-71882000D03*
X53340000Y-82804000D03*
X67945000Y-72771000D03*
X50292000Y-76962000D03*
X51562000Y-81280000D03*
X61976000Y-81026000D03*
X70866000Y-66548000D03*
X52324000Y-66294000D03*
X55626000Y-71628000D03*
X54356000Y-74422000D03*
X54711600Y-68351400D03*
X55880000Y-91059000D03*
X54102000Y-86487000D03*
X63754000Y-68961000D03*
X67056000Y-94996000D03*
X65405000Y-62230000D03*
X68326000Y-92456000D03*
X49022000Y-88646000D03*
X45720000Y-78740000D03*
X47752000Y-71882000D03*
X50800000Y-86614000D03*
X52070000Y-81788000D03*
X52578000Y-62230000D03*
X47498000Y-61976000D03*
X70104000Y-61214000D03*
X44968627Y-68326098D03*
X56388000Y-78994000D03*
X58928000Y-78232000D03*
X56515000Y-63373000D03*
X63500000Y-84328000D03*
X56642000Y-81026000D03*
X45847000Y-57023000D03*
X50546000Y-84074000D03*
X54356000Y-82804000D03*
X70358000Y-95504000D03*
X66421000Y-68961000D03*
X46990000Y-68326000D03*
X71120000Y-90932000D03*
X64643000Y-90932000D03*
X64135000Y-81407000D03*
X56642000Y-86233000D03*
X64897000Y-77343000D03*
X61214000Y-75184000D03*
X55118000Y-74930000D03*
X63627000Y-78105000D03*
X64592200Y-69799200D03*
X45212000Y-94234000D03*
X54737000Y-86360000D03*
X53340000Y-77978000D03*
X56896000Y-74930000D03*
X51054000Y-90424000D03*
X51562000Y-82550000D03*
X66294000Y-84582000D03*
X62738000Y-71882000D03*
X48133000Y-86614000D03*
X45720000Y-98044000D03*
X60084575Y-88493600D03*
X52070000Y-69850000D03*
X45720000Y-71882000D03*
X66167000Y-79883000D03*
X65532000Y-94615000D03*
X53340000Y-65278000D03*
X52832000Y-76200000D03*
X61518800Y-91541600D03*
X53594000Y-98044000D03*
X58869025Y-67005200D03*
X71374000Y-61341000D03*
X50546000Y-69088000D03*
X49784000Y-82550000D03*
X49022000Y-68326000D03*
X51054000Y-62992000D03*
X50292000Y-76200000D03*
X45720000Y-76200000D03*
X70104000Y-94107000D03*
X62738000Y-81534000D03*
X61468000Y-64135000D03*
X45466000Y-80264000D03*
X71120000Y-83820000D03*
X70485000Y-69977000D03*
X65024000Y-75311000D03*
X64516000Y-85090000D03*
X45720000Y-72644000D03*
X47498000Y-77216000D03*
X54610000Y-84582000D03*
X58420000Y-81026000D03*
X55753000Y-86487000D03*
X67310000Y-68961000D03*
X55118000Y-70866000D03*
X45720000Y-82550000D03*
X56515000Y-62357000D03*
X58869025Y-68300600D03*
X65278000Y-80645000D03*
X56642000Y-73406000D03*
X54356000Y-78994000D03*
X62230000Y-61341000D03*
X63246000Y-92202000D03*
X57404000Y-78994000D03*
X56388000Y-65024000D03*
X71628000Y-68326000D03*
X62357000Y-77597000D03*
X48514000Y-77216000D03*
X55499000Y-84963000D03*
X64897000Y-59563000D03*
X67945000Y-60452000D03*
X53848000Y-93472000D03*
X54610000Y-70358000D03*
X55372000Y-78994000D03*
X45720000Y-77216000D03*
X56007000Y-89916000D03*
X45212000Y-93218000D03*
X54610000Y-92456000D03*
X51562000Y-84328000D03*
X55118000Y-64262000D03*
X50292000Y-68326000D03*
X45720000Y-74676000D03*
X64516000Y-60325000D03*
X71882000Y-69469000D03*
X53340000Y-57404000D03*
X65024000Y-63246000D03*
X50038000Y-90932000D03*
X62484000Y-59563000D03*
X46355000Y-61468000D03*
X71374000Y-73787000D03*
X61214000Y-74422000D03*
X55880000Y-73152000D03*
X62611000Y-76454000D03*
X71501000Y-58801000D03*
X58928000Y-76200000D03*
X53848000Y-69037200D03*
X45339000Y-58293000D03*
X50546000Y-83312000D03*
X48768000Y-71882000D03*
X57658000Y-77216000D03*
X56007000Y-64160400D03*
X70104000Y-93218000D03*
X52324000Y-75438000D03*
X68072000Y-98044000D03*
X64262000Y-82931000D03*
X53213000Y-66294000D03*
X66167000Y-89281000D03*
X65405000Y-90551000D03*
X50292000Y-64262000D03*
X60017575Y-67005200D03*
X59944000Y-61976000D03*
%TO.N,/vref_ref*%
X56769000Y-72150700D03*
X58940700Y-64198500D03*
%TO.N,/TC2_ref*%
X58572400Y-73202800D03*
%TO.N,/vref_fow*%
X56819800Y-92125800D03*
X58902600Y-84302600D03*
%TO.N,/vtgt_fow*%
X57861200Y-82473800D03*
%TD*%
%TA.AperFunction,Conductor*%
%TO.N,GND*%
G36*
X72213351Y-56374506D02*
G01*
X72259154Y-56427268D01*
X72270407Y-56478901D01*
X72264243Y-98323267D01*
X72244549Y-98390304D01*
X72191738Y-98436051D01*
X72140340Y-98447249D01*
X61550401Y-98455494D01*
X61483346Y-98435862D01*
X61437550Y-98383093D01*
X61427552Y-98313943D01*
X61456528Y-98250364D01*
X61477415Y-98231178D01*
X61575792Y-98159704D01*
X61726104Y-98009392D01*
X61726106Y-98009388D01*
X61726109Y-98009386D01*
X61851048Y-97837420D01*
X61851047Y-97837420D01*
X61851051Y-97837416D01*
X61947557Y-97648012D01*
X62013246Y-97445843D01*
X62046500Y-97235887D01*
X62046500Y-97023313D01*
X62013246Y-96813357D01*
X61947557Y-96611188D01*
X61851051Y-96421784D01*
X61851049Y-96421781D01*
X61851048Y-96421779D01*
X61726109Y-96249813D01*
X61575786Y-96099490D01*
X61403820Y-95974551D01*
X61214414Y-95878044D01*
X61214413Y-95878043D01*
X61214412Y-95878043D01*
X61012243Y-95812354D01*
X61012241Y-95812353D01*
X61012240Y-95812353D01*
X60850957Y-95786808D01*
X60802287Y-95779100D01*
X60589713Y-95779100D01*
X60541042Y-95786808D01*
X60379760Y-95812353D01*
X60177585Y-95878044D01*
X59988179Y-95974551D01*
X59816213Y-96099490D01*
X59665890Y-96249813D01*
X59540949Y-96421782D01*
X59536484Y-96430546D01*
X59488509Y-96481342D01*
X59420688Y-96498136D01*
X59354553Y-96475598D01*
X59315516Y-96430546D01*
X59311050Y-96421782D01*
X59186109Y-96249813D01*
X59035786Y-96099490D01*
X58863820Y-95974551D01*
X58674414Y-95878044D01*
X58674413Y-95878043D01*
X58674412Y-95878043D01*
X58472243Y-95812354D01*
X58472241Y-95812353D01*
X58472240Y-95812353D01*
X58310957Y-95786808D01*
X58262287Y-95779100D01*
X58049713Y-95779100D01*
X58001042Y-95786808D01*
X57839760Y-95812353D01*
X57637585Y-95878044D01*
X57448179Y-95974551D01*
X57276213Y-96099490D01*
X57125890Y-96249813D01*
X57000949Y-96421782D01*
X56996484Y-96430546D01*
X56948509Y-96481342D01*
X56880688Y-96498136D01*
X56814553Y-96475598D01*
X56775516Y-96430546D01*
X56771050Y-96421782D01*
X56646109Y-96249813D01*
X56495786Y-96099490D01*
X56323820Y-95974551D01*
X56134414Y-95878044D01*
X56134413Y-95878043D01*
X56134412Y-95878043D01*
X55932243Y-95812354D01*
X55932241Y-95812353D01*
X55932240Y-95812353D01*
X55770957Y-95786808D01*
X55722287Y-95779100D01*
X55509713Y-95779100D01*
X55461042Y-95786808D01*
X55299760Y-95812353D01*
X55097585Y-95878044D01*
X54908179Y-95974551D01*
X54736213Y-96099490D01*
X54585890Y-96249813D01*
X54460951Y-96421779D01*
X54364444Y-96611185D01*
X54298753Y-96813360D01*
X54265500Y-97023313D01*
X54265500Y-97235886D01*
X54298753Y-97445839D01*
X54364444Y-97648014D01*
X54460951Y-97837420D01*
X54585890Y-98009386D01*
X54736209Y-98159705D01*
X54736214Y-98159709D01*
X54841846Y-98236455D01*
X54884512Y-98291784D01*
X54890491Y-98361398D01*
X54857886Y-98423193D01*
X54797047Y-98457550D01*
X54769058Y-98460773D01*
X44782717Y-98468547D01*
X44715662Y-98448915D01*
X44669866Y-98396146D01*
X44658620Y-98344506D01*
X44659683Y-95331911D01*
X48136700Y-95331911D01*
X48136700Y-95574488D01*
X48168361Y-95814985D01*
X48231147Y-96049304D01*
X48314199Y-96249808D01*
X48323976Y-96273412D01*
X48445264Y-96483489D01*
X48445266Y-96483492D01*
X48445267Y-96483493D01*
X48592933Y-96675936D01*
X48592939Y-96675943D01*
X48764456Y-96847460D01*
X48764462Y-96847465D01*
X48956911Y-96995136D01*
X49166988Y-97116424D01*
X49391100Y-97209254D01*
X49625411Y-97272038D01*
X49805786Y-97295784D01*
X49865911Y-97303700D01*
X49865912Y-97303700D01*
X50108489Y-97303700D01*
X50156588Y-97297367D01*
X50348989Y-97272038D01*
X50583300Y-97209254D01*
X50807412Y-97116424D01*
X51017489Y-96995136D01*
X51209938Y-96847465D01*
X51381465Y-96675938D01*
X51529136Y-96483489D01*
X51650424Y-96273412D01*
X51743254Y-96049300D01*
X51806038Y-95814989D01*
X51837700Y-95574488D01*
X51837700Y-95331912D01*
X51806038Y-95091411D01*
X51743254Y-94857100D01*
X51650424Y-94632988D01*
X51529136Y-94422911D01*
X51381465Y-94230462D01*
X51381460Y-94230456D01*
X51209943Y-94058939D01*
X51209936Y-94058933D01*
X51017493Y-93911267D01*
X51017492Y-93911266D01*
X51017489Y-93911264D01*
X50807412Y-93789976D01*
X50807405Y-93789973D01*
X50583304Y-93697147D01*
X50348985Y-93634361D01*
X50108489Y-93602700D01*
X50108488Y-93602700D01*
X49865912Y-93602700D01*
X49865911Y-93602700D01*
X49625414Y-93634361D01*
X49391095Y-93697147D01*
X49166994Y-93789973D01*
X49166985Y-93789977D01*
X48956906Y-93911267D01*
X48764463Y-94058933D01*
X48764456Y-94058939D01*
X48592939Y-94230456D01*
X48592933Y-94230463D01*
X48445267Y-94422906D01*
X48323977Y-94632985D01*
X48323973Y-94632994D01*
X48231147Y-94857095D01*
X48168361Y-95091414D01*
X48136700Y-95331911D01*
X44659683Y-95331911D01*
X44660843Y-92046953D01*
X56019300Y-92046953D01*
X56019300Y-92204646D01*
X56050061Y-92359289D01*
X56050064Y-92359301D01*
X56110402Y-92504972D01*
X56110409Y-92504985D01*
X56198010Y-92636088D01*
X56198013Y-92636092D01*
X56309507Y-92747586D01*
X56309511Y-92747589D01*
X56440614Y-92835190D01*
X56440627Y-92835197D01*
X56586298Y-92895535D01*
X56586303Y-92895537D01*
X56740953Y-92926299D01*
X56740956Y-92926300D01*
X56740958Y-92926300D01*
X56898644Y-92926300D01*
X56898645Y-92926299D01*
X57053297Y-92895537D01*
X57198979Y-92835194D01*
X57330089Y-92747589D01*
X57441589Y-92636089D01*
X57529194Y-92504979D01*
X57589537Y-92359297D01*
X57620300Y-92204642D01*
X57620300Y-92046958D01*
X57620300Y-92046955D01*
X57620299Y-92046953D01*
X57589538Y-91892310D01*
X57589537Y-91892303D01*
X57589535Y-91892298D01*
X57529197Y-91746627D01*
X57529190Y-91746614D01*
X57441589Y-91615511D01*
X57441586Y-91615507D01*
X57330092Y-91504013D01*
X57330088Y-91504010D01*
X57198985Y-91416409D01*
X57198972Y-91416402D01*
X57053301Y-91356064D01*
X57053289Y-91356061D01*
X56898645Y-91325300D01*
X56898642Y-91325300D01*
X56740958Y-91325300D01*
X56740955Y-91325300D01*
X56586310Y-91356061D01*
X56586298Y-91356064D01*
X56440627Y-91416402D01*
X56440614Y-91416409D01*
X56309511Y-91504010D01*
X56309507Y-91504013D01*
X56198013Y-91615507D01*
X56198010Y-91615511D01*
X56110409Y-91746614D01*
X56110402Y-91746627D01*
X56050064Y-91892298D01*
X56050061Y-91892310D01*
X56019300Y-92046953D01*
X44660843Y-92046953D01*
X44661300Y-90751553D01*
X59016500Y-90751553D01*
X59016500Y-90909246D01*
X59047261Y-91063889D01*
X59047264Y-91063901D01*
X59107602Y-91209572D01*
X59107609Y-91209585D01*
X59195210Y-91340688D01*
X59195213Y-91340692D01*
X59306707Y-91452186D01*
X59306711Y-91452189D01*
X59437814Y-91539790D01*
X59437827Y-91539797D01*
X59583498Y-91600135D01*
X59583503Y-91600137D01*
X59738153Y-91630899D01*
X59738156Y-91630900D01*
X59738158Y-91630900D01*
X59895844Y-91630900D01*
X59895845Y-91630899D01*
X60050497Y-91600137D01*
X60196179Y-91539794D01*
X60327289Y-91452189D01*
X60438789Y-91340689D01*
X60526394Y-91209579D01*
X60586737Y-91063897D01*
X60617500Y-90909242D01*
X60617500Y-90751558D01*
X60617500Y-90751555D01*
X60617499Y-90751553D01*
X60586738Y-90596910D01*
X60586737Y-90596903D01*
X60586735Y-90596898D01*
X60526397Y-90451227D01*
X60526390Y-90451214D01*
X60438789Y-90320111D01*
X60438786Y-90320107D01*
X60327292Y-90208613D01*
X60327288Y-90208610D01*
X60196185Y-90121009D01*
X60196172Y-90121002D01*
X60050501Y-90060664D01*
X60050489Y-90060661D01*
X59895845Y-90029900D01*
X59895842Y-90029900D01*
X59738158Y-90029900D01*
X59738155Y-90029900D01*
X59583510Y-90060661D01*
X59583498Y-90060664D01*
X59437827Y-90121002D01*
X59437814Y-90121009D01*
X59306711Y-90208610D01*
X59306707Y-90208613D01*
X59195213Y-90320107D01*
X59195210Y-90320111D01*
X59107609Y-90451214D01*
X59107602Y-90451227D01*
X59047264Y-90596898D01*
X59047261Y-90596910D01*
X59016500Y-90751553D01*
X44661300Y-90751553D01*
X44663604Y-84223753D01*
X58102100Y-84223753D01*
X58102100Y-84381446D01*
X58132861Y-84536089D01*
X58132864Y-84536101D01*
X58193202Y-84681772D01*
X58193209Y-84681785D01*
X58280810Y-84812888D01*
X58280813Y-84812892D01*
X58392307Y-84924386D01*
X58392311Y-84924389D01*
X58523414Y-85011990D01*
X58523427Y-85011997D01*
X58645545Y-85062579D01*
X58669103Y-85072337D01*
X58770841Y-85092574D01*
X58823753Y-85103099D01*
X58823756Y-85103100D01*
X58934686Y-85103100D01*
X59001725Y-85122785D01*
X59047480Y-85175589D01*
X59056303Y-85202909D01*
X59063261Y-85237889D01*
X59063264Y-85237901D01*
X59123602Y-85383572D01*
X59123609Y-85383585D01*
X59211210Y-85514688D01*
X59211213Y-85514692D01*
X59322707Y-85626186D01*
X59322711Y-85626189D01*
X59453814Y-85713790D01*
X59453827Y-85713797D01*
X59599498Y-85774135D01*
X59599503Y-85774137D01*
X59754153Y-85804899D01*
X59754156Y-85804900D01*
X59754158Y-85804900D01*
X59911844Y-85804900D01*
X59911845Y-85804899D01*
X60066497Y-85774137D01*
X60212179Y-85713794D01*
X60286532Y-85664113D01*
X67392300Y-85664113D01*
X67392300Y-85876686D01*
X67425553Y-86086639D01*
X67491244Y-86288814D01*
X67587751Y-86478220D01*
X67712690Y-86650186D01*
X67863009Y-86800505D01*
X67863014Y-86800509D01*
X68027593Y-86920082D01*
X68070259Y-86975411D01*
X68076238Y-87045025D01*
X68043633Y-87106820D01*
X68027593Y-87120718D01*
X67863014Y-87240290D01*
X67863009Y-87240294D01*
X67712690Y-87390613D01*
X67587751Y-87562579D01*
X67491244Y-87751985D01*
X67425553Y-87954160D01*
X67392300Y-88164113D01*
X67392300Y-88376686D01*
X67425553Y-88586639D01*
X67491244Y-88788814D01*
X67587751Y-88978220D01*
X67712690Y-89150186D01*
X67863013Y-89300509D01*
X68034979Y-89425448D01*
X68034981Y-89425449D01*
X68034984Y-89425451D01*
X68224388Y-89521957D01*
X68426557Y-89587646D01*
X68636513Y-89620900D01*
X68636514Y-89620900D01*
X69099086Y-89620900D01*
X69099087Y-89620900D01*
X69309043Y-89587646D01*
X69511212Y-89521957D01*
X69700616Y-89425451D01*
X69722589Y-89409486D01*
X69872586Y-89300509D01*
X69872588Y-89300506D01*
X69872592Y-89300504D01*
X70022904Y-89150192D01*
X70022906Y-89150188D01*
X70022909Y-89150186D01*
X70147848Y-88978220D01*
X70147847Y-88978220D01*
X70147851Y-88978216D01*
X70244357Y-88788812D01*
X70310046Y-88586643D01*
X70343300Y-88376687D01*
X70343300Y-88164113D01*
X70310046Y-87954157D01*
X70244357Y-87751988D01*
X70147851Y-87562584D01*
X70147849Y-87562581D01*
X70147848Y-87562579D01*
X70022909Y-87390613D01*
X69872592Y-87240296D01*
X69872584Y-87240290D01*
X69708004Y-87120716D01*
X69665340Y-87065389D01*
X69659361Y-86995776D01*
X69691966Y-86933980D01*
X69707999Y-86920086D01*
X69872592Y-86800504D01*
X70022904Y-86650192D01*
X70022906Y-86650188D01*
X70022909Y-86650186D01*
X70147848Y-86478220D01*
X70147847Y-86478220D01*
X70147851Y-86478216D01*
X70244357Y-86288812D01*
X70310046Y-86086643D01*
X70343300Y-85876687D01*
X70343300Y-85664113D01*
X70310046Y-85454157D01*
X70244357Y-85251988D01*
X70147851Y-85062584D01*
X70147849Y-85062581D01*
X70147848Y-85062579D01*
X70022909Y-84890613D01*
X69872586Y-84740290D01*
X69700620Y-84615351D01*
X69511214Y-84518844D01*
X69511213Y-84518843D01*
X69511212Y-84518843D01*
X69309043Y-84453154D01*
X69309041Y-84453153D01*
X69309040Y-84453153D01*
X69147757Y-84427608D01*
X69099087Y-84419900D01*
X68636513Y-84419900D01*
X68587842Y-84427608D01*
X68426560Y-84453153D01*
X68224385Y-84518844D01*
X68034979Y-84615351D01*
X67863013Y-84740290D01*
X67712690Y-84890613D01*
X67587751Y-85062579D01*
X67491244Y-85251985D01*
X67425553Y-85454160D01*
X67392300Y-85664113D01*
X60286532Y-85664113D01*
X60343289Y-85626189D01*
X60343292Y-85626186D01*
X60397919Y-85571560D01*
X60454786Y-85514692D01*
X60454789Y-85514689D01*
X60542394Y-85383579D01*
X60602737Y-85237897D01*
X60633500Y-85083242D01*
X60633500Y-84925558D01*
X60633500Y-84925555D01*
X60633499Y-84925553D01*
X60611089Y-84812892D01*
X60602737Y-84770903D01*
X60590057Y-84740290D01*
X60542397Y-84625227D01*
X60542390Y-84625214D01*
X60454789Y-84494111D01*
X60454786Y-84494107D01*
X60343292Y-84382613D01*
X60343288Y-84382610D01*
X60212185Y-84295009D01*
X60212172Y-84295002D01*
X60066501Y-84234664D01*
X60066489Y-84234661D01*
X59911845Y-84203900D01*
X59911842Y-84203900D01*
X59800914Y-84203900D01*
X59733875Y-84184215D01*
X59688120Y-84131411D01*
X59679297Y-84104091D01*
X59672339Y-84069110D01*
X59672336Y-84069101D01*
X59611997Y-83923427D01*
X59611990Y-83923414D01*
X59524389Y-83792311D01*
X59524386Y-83792307D01*
X59412892Y-83680813D01*
X59412888Y-83680810D01*
X59281785Y-83593209D01*
X59281772Y-83593202D01*
X59136101Y-83532864D01*
X59136089Y-83532861D01*
X58981445Y-83502100D01*
X58981442Y-83502100D01*
X58823758Y-83502100D01*
X58823755Y-83502100D01*
X58669110Y-83532861D01*
X58669098Y-83532864D01*
X58523427Y-83593202D01*
X58523414Y-83593209D01*
X58392311Y-83680810D01*
X58392307Y-83680813D01*
X58280813Y-83792307D01*
X58280810Y-83792311D01*
X58193209Y-83923414D01*
X58193202Y-83923427D01*
X58132864Y-84069098D01*
X58132861Y-84069110D01*
X58102100Y-84223753D01*
X44663604Y-84223753D01*
X44664250Y-82394953D01*
X57060700Y-82394953D01*
X57060700Y-82552646D01*
X57091461Y-82707289D01*
X57091464Y-82707301D01*
X57151802Y-82852972D01*
X57151809Y-82852985D01*
X57239410Y-82984088D01*
X57239413Y-82984092D01*
X57350907Y-83095586D01*
X57350911Y-83095589D01*
X57482014Y-83183190D01*
X57482027Y-83183197D01*
X57627698Y-83243535D01*
X57627703Y-83243537D01*
X57782353Y-83274299D01*
X57782356Y-83274300D01*
X57782358Y-83274300D01*
X57940044Y-83274300D01*
X57940045Y-83274299D01*
X58094697Y-83243537D01*
X58240379Y-83183194D01*
X58371489Y-83095589D01*
X58482989Y-82984089D01*
X58570594Y-82852979D01*
X58630937Y-82707297D01*
X58661700Y-82552642D01*
X58661700Y-82394958D01*
X58661700Y-82394955D01*
X58661699Y-82394953D01*
X58630938Y-82240310D01*
X58630937Y-82240303D01*
X58630935Y-82240298D01*
X58570597Y-82094627D01*
X58570590Y-82094614D01*
X58482989Y-81963511D01*
X58482986Y-81963507D01*
X58371492Y-81852013D01*
X58371488Y-81852010D01*
X58240385Y-81764409D01*
X58240372Y-81764402D01*
X58094701Y-81704064D01*
X58094689Y-81704061D01*
X57940045Y-81673300D01*
X57940042Y-81673300D01*
X57782358Y-81673300D01*
X57782355Y-81673300D01*
X57627710Y-81704061D01*
X57627698Y-81704064D01*
X57482027Y-81764402D01*
X57482014Y-81764409D01*
X57350911Y-81852010D01*
X57350907Y-81852013D01*
X57239413Y-81963507D01*
X57239410Y-81963511D01*
X57151809Y-82094614D01*
X57151802Y-82094627D01*
X57091464Y-82240298D01*
X57091461Y-82240310D01*
X57060700Y-82394953D01*
X44664250Y-82394953D01*
X44665147Y-79853472D01*
X46157900Y-79853472D01*
X46157900Y-80115727D01*
X46184523Y-80317939D01*
X46192130Y-80375716D01*
X46244351Y-80570609D01*
X46260002Y-80629018D01*
X46260005Y-80629028D01*
X46360353Y-80871290D01*
X46360358Y-80871300D01*
X46491475Y-81098403D01*
X46651118Y-81306451D01*
X46651126Y-81306460D01*
X46836540Y-81491874D01*
X46836548Y-81491881D01*
X47044596Y-81651524D01*
X47271699Y-81782641D01*
X47271709Y-81782646D01*
X47513971Y-81882994D01*
X47513981Y-81882998D01*
X47767284Y-81950870D01*
X48027280Y-81985100D01*
X48027287Y-81985100D01*
X48289513Y-81985100D01*
X48289520Y-81985100D01*
X48549516Y-81950870D01*
X48802819Y-81882998D01*
X49026638Y-81790289D01*
X49045090Y-81782646D01*
X49045091Y-81782645D01*
X49045097Y-81782643D01*
X49272203Y-81651524D01*
X49480251Y-81491882D01*
X49480255Y-81491877D01*
X49480260Y-81491874D01*
X49665674Y-81306460D01*
X49665677Y-81306455D01*
X49665682Y-81306451D01*
X49746481Y-81201153D01*
X59016500Y-81201153D01*
X59016500Y-81358846D01*
X59047261Y-81513489D01*
X59047264Y-81513501D01*
X59107602Y-81659172D01*
X59107609Y-81659185D01*
X59195210Y-81790288D01*
X59195213Y-81790292D01*
X59306707Y-81901786D01*
X59306711Y-81901789D01*
X59437814Y-81989390D01*
X59437827Y-81989397D01*
X59583498Y-82049735D01*
X59583503Y-82049737D01*
X59738153Y-82080499D01*
X59738156Y-82080500D01*
X59738158Y-82080500D01*
X59895844Y-82080500D01*
X59895845Y-82080499D01*
X60050497Y-82049737D01*
X60196179Y-81989394D01*
X60327289Y-81901789D01*
X60438789Y-81790289D01*
X60526394Y-81659179D01*
X60586737Y-81513497D01*
X60617500Y-81358842D01*
X60617500Y-81201158D01*
X60617500Y-81201155D01*
X60617499Y-81201153D01*
X60601273Y-81119579D01*
X60586737Y-81046503D01*
X60586735Y-81046498D01*
X60526397Y-80900827D01*
X60526390Y-80900814D01*
X60438789Y-80769711D01*
X60438786Y-80769707D01*
X60327292Y-80658213D01*
X60327288Y-80658210D01*
X60196185Y-80570609D01*
X60196172Y-80570602D01*
X60050501Y-80510264D01*
X60050489Y-80510261D01*
X59895845Y-80479500D01*
X59895842Y-80479500D01*
X59738158Y-80479500D01*
X59738155Y-80479500D01*
X59583510Y-80510261D01*
X59583498Y-80510264D01*
X59437827Y-80570602D01*
X59437814Y-80570609D01*
X59306711Y-80658210D01*
X59306707Y-80658213D01*
X59195213Y-80769707D01*
X59195210Y-80769711D01*
X59107609Y-80900814D01*
X59107602Y-80900827D01*
X59047264Y-81046498D01*
X59047261Y-81046510D01*
X59016500Y-81201153D01*
X49746481Y-81201153D01*
X49825324Y-81098403D01*
X49956443Y-80871297D01*
X50056798Y-80629019D01*
X50124670Y-80375716D01*
X50158900Y-80115720D01*
X50158900Y-79853480D01*
X50124670Y-79593484D01*
X50056798Y-79340181D01*
X50056794Y-79340171D01*
X49956446Y-79097909D01*
X49956441Y-79097899D01*
X49825324Y-78870796D01*
X49702630Y-78710900D01*
X49665682Y-78662749D01*
X49665681Y-78662748D01*
X49665674Y-78662740D01*
X49480260Y-78477326D01*
X49480251Y-78477318D01*
X49272203Y-78317675D01*
X49045100Y-78186558D01*
X49045090Y-78186553D01*
X48802828Y-78086205D01*
X48802821Y-78086203D01*
X48802819Y-78086202D01*
X48549516Y-78018330D01*
X48491739Y-78010723D01*
X48289527Y-77984100D01*
X48289520Y-77984100D01*
X48027280Y-77984100D01*
X48027272Y-77984100D01*
X47796172Y-78014526D01*
X47767284Y-78018330D01*
X47525424Y-78083136D01*
X47513981Y-78086202D01*
X47513971Y-78086205D01*
X47271709Y-78186553D01*
X47271699Y-78186558D01*
X47044596Y-78317675D01*
X46836548Y-78477318D01*
X46651118Y-78662748D01*
X46491475Y-78870796D01*
X46360358Y-79097899D01*
X46360353Y-79097909D01*
X46260005Y-79340171D01*
X46260002Y-79340181D01*
X46192130Y-79593485D01*
X46157900Y-79853472D01*
X44665147Y-79853472D01*
X44666247Y-76739111D01*
X66983500Y-76739111D01*
X66983500Y-76981688D01*
X67015161Y-77222185D01*
X67077947Y-77456504D01*
X67170773Y-77680605D01*
X67170776Y-77680612D01*
X67292064Y-77890689D01*
X67292066Y-77890692D01*
X67292067Y-77890693D01*
X67439733Y-78083136D01*
X67439739Y-78083143D01*
X67611256Y-78254660D01*
X67611262Y-78254665D01*
X67803711Y-78402336D01*
X68013788Y-78523624D01*
X68237900Y-78616454D01*
X68472211Y-78679238D01*
X68652586Y-78702984D01*
X68712711Y-78710900D01*
X68712712Y-78710900D01*
X68955289Y-78710900D01*
X69003388Y-78704567D01*
X69195789Y-78679238D01*
X69430100Y-78616454D01*
X69654212Y-78523624D01*
X69864289Y-78402336D01*
X70056738Y-78254665D01*
X70228265Y-78083138D01*
X70375936Y-77890689D01*
X70497224Y-77680612D01*
X70590054Y-77456500D01*
X70652838Y-77222189D01*
X70684500Y-76981688D01*
X70684500Y-76739112D01*
X70652838Y-76498611D01*
X70590054Y-76264300D01*
X70497224Y-76040188D01*
X70375936Y-75830111D01*
X70228265Y-75637662D01*
X70228260Y-75637656D01*
X70056743Y-75466139D01*
X70056736Y-75466133D01*
X69864293Y-75318467D01*
X69864292Y-75318466D01*
X69864289Y-75318464D01*
X69654212Y-75197176D01*
X69654205Y-75197173D01*
X69430104Y-75104347D01*
X69195785Y-75041561D01*
X68955289Y-75009900D01*
X68955288Y-75009900D01*
X68712712Y-75009900D01*
X68712711Y-75009900D01*
X68472214Y-75041561D01*
X68237895Y-75104347D01*
X68013794Y-75197173D01*
X68013785Y-75197177D01*
X67803706Y-75318467D01*
X67611263Y-75466133D01*
X67611256Y-75466139D01*
X67439739Y-75637656D01*
X67439733Y-75637663D01*
X67292067Y-75830106D01*
X67170777Y-76040185D01*
X67170773Y-76040194D01*
X67077947Y-76264295D01*
X67015161Y-76498614D01*
X66983500Y-76739111D01*
X44666247Y-76739111D01*
X44667523Y-73123953D01*
X57771900Y-73123953D01*
X57771900Y-73281646D01*
X57802661Y-73436289D01*
X57802664Y-73436301D01*
X57863002Y-73581972D01*
X57863009Y-73581985D01*
X57950610Y-73713088D01*
X57950613Y-73713092D01*
X58062107Y-73824586D01*
X58062111Y-73824589D01*
X58193214Y-73912190D01*
X58193227Y-73912197D01*
X58338898Y-73972535D01*
X58338903Y-73972537D01*
X58493553Y-74003299D01*
X58493556Y-74003300D01*
X58493558Y-74003300D01*
X58651244Y-74003300D01*
X58651245Y-74003299D01*
X58805897Y-73972537D01*
X58951579Y-73912194D01*
X59082689Y-73824589D01*
X59133570Y-73773708D01*
X59194893Y-73740222D01*
X59264585Y-73745206D01*
X59317792Y-73785036D01*
X59318347Y-73784581D01*
X59320200Y-73786838D01*
X59320518Y-73787077D01*
X59321286Y-73788162D01*
X59322213Y-73789292D01*
X59433707Y-73900786D01*
X59433711Y-73900789D01*
X59564814Y-73988390D01*
X59564827Y-73988397D01*
X59710498Y-74048735D01*
X59710503Y-74048737D01*
X59865153Y-74079499D01*
X59865156Y-74079500D01*
X59865158Y-74079500D01*
X60022844Y-74079500D01*
X60022845Y-74079499D01*
X60177497Y-74048737D01*
X60323179Y-73988394D01*
X60454289Y-73900789D01*
X60565789Y-73789289D01*
X60653394Y-73658179D01*
X60713737Y-73512497D01*
X60744500Y-73357842D01*
X60744500Y-73200158D01*
X60744500Y-73200155D01*
X60744499Y-73200153D01*
X60713738Y-73045510D01*
X60713737Y-73045503D01*
X60674676Y-72951200D01*
X60653397Y-72899827D01*
X60653390Y-72899814D01*
X60565789Y-72768711D01*
X60565786Y-72768707D01*
X60454292Y-72657213D01*
X60454288Y-72657210D01*
X60323185Y-72569609D01*
X60323172Y-72569602D01*
X60177501Y-72509264D01*
X60177489Y-72509261D01*
X60022845Y-72478500D01*
X60022842Y-72478500D01*
X59865158Y-72478500D01*
X59865155Y-72478500D01*
X59710510Y-72509261D01*
X59710498Y-72509264D01*
X59564827Y-72569602D01*
X59564814Y-72569609D01*
X59433711Y-72657210D01*
X59433706Y-72657214D01*
X59382827Y-72708093D01*
X59321504Y-72741577D01*
X59251812Y-72736592D01*
X59198607Y-72696763D01*
X59198053Y-72697219D01*
X59196200Y-72694961D01*
X59195879Y-72694721D01*
X59195104Y-72693625D01*
X59194186Y-72692507D01*
X59082692Y-72581013D01*
X59082688Y-72581010D01*
X58951585Y-72493409D01*
X58951572Y-72493402D01*
X58805901Y-72433064D01*
X58805889Y-72433061D01*
X58651245Y-72402300D01*
X58651242Y-72402300D01*
X58493558Y-72402300D01*
X58493555Y-72402300D01*
X58338910Y-72433061D01*
X58338898Y-72433064D01*
X58193227Y-72493402D01*
X58193214Y-72493409D01*
X58062111Y-72581010D01*
X58062107Y-72581013D01*
X57950613Y-72692507D01*
X57950610Y-72692511D01*
X57863009Y-72823614D01*
X57863002Y-72823627D01*
X57802664Y-72969298D01*
X57802661Y-72969310D01*
X57771900Y-73123953D01*
X44667523Y-73123953D01*
X44667894Y-72071853D01*
X55968500Y-72071853D01*
X55968500Y-72229546D01*
X55999261Y-72384189D01*
X55999264Y-72384201D01*
X56059602Y-72529872D01*
X56059609Y-72529885D01*
X56147210Y-72660988D01*
X56147213Y-72660992D01*
X56258707Y-72772486D01*
X56258711Y-72772489D01*
X56389814Y-72860090D01*
X56389827Y-72860097D01*
X56535498Y-72920435D01*
X56535503Y-72920437D01*
X56690153Y-72951199D01*
X56690156Y-72951200D01*
X56690158Y-72951200D01*
X56847844Y-72951200D01*
X56847845Y-72951199D01*
X57002497Y-72920437D01*
X57148179Y-72860094D01*
X57279289Y-72772489D01*
X57390789Y-72660989D01*
X57478394Y-72529879D01*
X57538737Y-72384197D01*
X57569500Y-72229542D01*
X57569500Y-72071858D01*
X57569500Y-72071855D01*
X57569499Y-72071853D01*
X57538738Y-71917210D01*
X57538737Y-71917203D01*
X57538735Y-71917198D01*
X57478397Y-71771527D01*
X57478390Y-71771514D01*
X57390789Y-71640411D01*
X57390786Y-71640407D01*
X57279292Y-71528913D01*
X57279288Y-71528910D01*
X57148185Y-71441309D01*
X57148172Y-71441302D01*
X57002501Y-71380964D01*
X57002489Y-71380961D01*
X56847845Y-71350200D01*
X56847842Y-71350200D01*
X56690158Y-71350200D01*
X56690155Y-71350200D01*
X56535510Y-71380961D01*
X56535498Y-71380964D01*
X56389827Y-71441302D01*
X56389814Y-71441309D01*
X56258711Y-71528910D01*
X56258707Y-71528913D01*
X56147213Y-71640407D01*
X56147210Y-71640411D01*
X56059609Y-71771514D01*
X56059602Y-71771527D01*
X55999264Y-71917198D01*
X55999261Y-71917210D01*
X55968500Y-72071853D01*
X44667894Y-72071853D01*
X44668509Y-70329953D01*
X59041900Y-70329953D01*
X59041900Y-70487646D01*
X59072661Y-70642289D01*
X59072664Y-70642301D01*
X59133002Y-70787972D01*
X59133009Y-70787985D01*
X59220610Y-70919088D01*
X59220613Y-70919092D01*
X59332107Y-71030586D01*
X59332111Y-71030589D01*
X59463214Y-71118190D01*
X59463227Y-71118197D01*
X59608898Y-71178535D01*
X59608903Y-71178537D01*
X59763553Y-71209299D01*
X59763556Y-71209300D01*
X59763558Y-71209300D01*
X59921244Y-71209300D01*
X59921245Y-71209299D01*
X60075897Y-71178537D01*
X60221579Y-71118194D01*
X60352689Y-71030589D01*
X60464189Y-70919089D01*
X60551794Y-70787979D01*
X60612137Y-70642297D01*
X60642900Y-70487642D01*
X60642900Y-70329958D01*
X60642900Y-70329955D01*
X60642899Y-70329953D01*
X60612138Y-70175310D01*
X60612137Y-70175303D01*
X60612135Y-70175298D01*
X60551797Y-70029627D01*
X60551790Y-70029614D01*
X60464189Y-69898511D01*
X60464186Y-69898507D01*
X60352692Y-69787013D01*
X60352688Y-69787010D01*
X60221585Y-69699409D01*
X60221572Y-69699402D01*
X60075901Y-69639064D01*
X60075889Y-69639061D01*
X59921245Y-69608300D01*
X59921242Y-69608300D01*
X59763558Y-69608300D01*
X59763555Y-69608300D01*
X59608910Y-69639061D01*
X59608898Y-69639064D01*
X59463227Y-69699402D01*
X59463214Y-69699409D01*
X59332111Y-69787010D01*
X59332107Y-69787013D01*
X59220613Y-69898507D01*
X59220610Y-69898511D01*
X59133009Y-70029614D01*
X59133002Y-70029627D01*
X59072664Y-70175298D01*
X59072661Y-70175310D01*
X59041900Y-70329953D01*
X44668509Y-70329953D01*
X44670701Y-64119653D01*
X58140200Y-64119653D01*
X58140200Y-64277346D01*
X58170961Y-64431989D01*
X58170964Y-64432001D01*
X58231302Y-64577672D01*
X58231309Y-64577685D01*
X58318910Y-64708788D01*
X58318913Y-64708792D01*
X58430407Y-64820286D01*
X58430411Y-64820289D01*
X58561514Y-64907890D01*
X58561527Y-64907897D01*
X58632726Y-64937388D01*
X58707203Y-64968237D01*
X58830377Y-64992738D01*
X58861853Y-64998999D01*
X58861856Y-64999000D01*
X58957504Y-64999000D01*
X59024543Y-65018685D01*
X59070298Y-65071489D01*
X59072065Y-65075548D01*
X59123602Y-65199972D01*
X59123609Y-65199985D01*
X59211210Y-65331088D01*
X59211213Y-65331092D01*
X59322707Y-65442586D01*
X59322711Y-65442589D01*
X59453814Y-65530190D01*
X59453827Y-65530197D01*
X59599498Y-65590535D01*
X59599503Y-65590537D01*
X59754153Y-65621299D01*
X59754156Y-65621300D01*
X59754158Y-65621300D01*
X59911844Y-65621300D01*
X59911845Y-65621299D01*
X60066497Y-65590537D01*
X60212179Y-65530194D01*
X60343289Y-65442589D01*
X60436365Y-65349513D01*
X67383900Y-65349513D01*
X67383900Y-65562086D01*
X67417153Y-65772039D01*
X67482844Y-65974214D01*
X67579351Y-66163620D01*
X67704290Y-66335586D01*
X67854609Y-66485905D01*
X67854614Y-66485909D01*
X68019193Y-66605482D01*
X68061859Y-66660811D01*
X68067838Y-66730425D01*
X68035233Y-66792220D01*
X68019193Y-66806118D01*
X67854614Y-66925690D01*
X67854609Y-66925694D01*
X67704290Y-67076013D01*
X67579351Y-67247979D01*
X67482844Y-67437385D01*
X67417153Y-67639560D01*
X67383900Y-67849513D01*
X67383900Y-68062086D01*
X67417153Y-68272039D01*
X67482844Y-68474214D01*
X67579351Y-68663620D01*
X67704290Y-68835586D01*
X67854613Y-68985909D01*
X68026579Y-69110848D01*
X68026581Y-69110849D01*
X68026584Y-69110851D01*
X68215988Y-69207357D01*
X68418157Y-69273046D01*
X68628113Y-69306300D01*
X68628114Y-69306300D01*
X69090686Y-69306300D01*
X69090687Y-69306300D01*
X69300643Y-69273046D01*
X69502812Y-69207357D01*
X69692216Y-69110851D01*
X69714189Y-69094886D01*
X69864186Y-68985909D01*
X69864188Y-68985906D01*
X69864192Y-68985904D01*
X70014504Y-68835592D01*
X70014506Y-68835588D01*
X70014509Y-68835586D01*
X70139448Y-68663620D01*
X70139447Y-68663620D01*
X70139451Y-68663616D01*
X70235957Y-68474212D01*
X70301646Y-68272043D01*
X70334900Y-68062087D01*
X70334900Y-67849513D01*
X70301646Y-67639557D01*
X70235957Y-67437388D01*
X70139451Y-67247984D01*
X70139449Y-67247981D01*
X70139448Y-67247979D01*
X70014509Y-67076013D01*
X69864192Y-66925696D01*
X69864184Y-66925690D01*
X69699604Y-66806116D01*
X69656940Y-66750789D01*
X69650961Y-66681176D01*
X69683566Y-66619380D01*
X69699599Y-66605486D01*
X69864192Y-66485904D01*
X70014504Y-66335592D01*
X70014506Y-66335588D01*
X70014509Y-66335586D01*
X70139448Y-66163620D01*
X70139447Y-66163620D01*
X70139451Y-66163616D01*
X70235957Y-65974212D01*
X70301646Y-65772043D01*
X70334900Y-65562087D01*
X70334900Y-65349513D01*
X70301646Y-65139557D01*
X70235957Y-64937388D01*
X70139451Y-64747984D01*
X70139449Y-64747981D01*
X70139448Y-64747979D01*
X70014509Y-64576013D01*
X69864186Y-64425690D01*
X69692220Y-64300751D01*
X69502814Y-64204244D01*
X69502813Y-64204243D01*
X69502812Y-64204243D01*
X69300643Y-64138554D01*
X69300641Y-64138553D01*
X69300640Y-64138553D01*
X69129213Y-64111402D01*
X69090687Y-64105300D01*
X68628113Y-64105300D01*
X68589587Y-64111402D01*
X68418160Y-64138553D01*
X68418157Y-64138554D01*
X68232094Y-64199010D01*
X68215985Y-64204244D01*
X68026579Y-64300751D01*
X67854613Y-64425690D01*
X67704290Y-64576013D01*
X67579351Y-64747979D01*
X67482844Y-64937385D01*
X67417153Y-65139560D01*
X67383900Y-65349513D01*
X60436365Y-65349513D01*
X60454789Y-65331089D01*
X60473959Y-65302398D01*
X60491766Y-65275750D01*
X60542390Y-65199985D01*
X60542390Y-65199984D01*
X60542394Y-65199979D01*
X60602737Y-65054297D01*
X60633500Y-64899642D01*
X60633500Y-64741958D01*
X60633500Y-64741955D01*
X60633499Y-64741953D01*
X60602738Y-64587310D01*
X60602737Y-64587303D01*
X60598061Y-64576013D01*
X60542397Y-64441627D01*
X60542390Y-64441614D01*
X60454789Y-64310511D01*
X60454786Y-64310507D01*
X60343292Y-64199013D01*
X60343288Y-64199010D01*
X60212185Y-64111409D01*
X60212172Y-64111402D01*
X60066501Y-64051064D01*
X60066489Y-64051061D01*
X59911845Y-64020300D01*
X59911842Y-64020300D01*
X59816196Y-64020300D01*
X59749157Y-64000615D01*
X59703402Y-63947811D01*
X59701635Y-63943752D01*
X59650097Y-63819327D01*
X59650090Y-63819314D01*
X59562489Y-63688211D01*
X59562486Y-63688207D01*
X59450992Y-63576713D01*
X59450988Y-63576710D01*
X59319885Y-63489109D01*
X59319872Y-63489102D01*
X59174201Y-63428764D01*
X59174189Y-63428761D01*
X59019545Y-63398000D01*
X59019542Y-63398000D01*
X58861858Y-63398000D01*
X58861855Y-63398000D01*
X58707210Y-63428761D01*
X58707198Y-63428764D01*
X58561527Y-63489102D01*
X58561514Y-63489109D01*
X58430411Y-63576710D01*
X58430407Y-63576713D01*
X58318913Y-63688207D01*
X58318910Y-63688211D01*
X58231309Y-63819314D01*
X58231302Y-63819327D01*
X58170964Y-63964998D01*
X58170961Y-63965010D01*
X58140200Y-64119653D01*
X44670701Y-64119653D01*
X44671076Y-63057610D01*
X44671196Y-63057162D01*
X44671100Y-62991425D01*
X44671123Y-62926285D01*
X44671122Y-62926283D01*
X44671125Y-62919370D01*
X44670991Y-62917356D01*
X44665656Y-59263911D01*
X48187500Y-59263911D01*
X48187500Y-59506488D01*
X48219161Y-59746985D01*
X48281947Y-59981304D01*
X48374773Y-60205405D01*
X48374776Y-60205412D01*
X48496064Y-60415489D01*
X48496066Y-60415492D01*
X48496067Y-60415493D01*
X48643733Y-60607936D01*
X48643739Y-60607943D01*
X48815256Y-60779460D01*
X48815262Y-60779465D01*
X49007711Y-60927136D01*
X49217788Y-61048424D01*
X49441900Y-61141254D01*
X49676211Y-61204038D01*
X49856586Y-61227784D01*
X49916711Y-61235700D01*
X49916712Y-61235700D01*
X50159289Y-61235700D01*
X50207388Y-61229367D01*
X50399789Y-61204038D01*
X50634100Y-61141254D01*
X50858212Y-61048424D01*
X51068289Y-60927136D01*
X51260738Y-60779465D01*
X51432265Y-60607938D01*
X51579936Y-60415489D01*
X51701224Y-60205412D01*
X51794054Y-59981300D01*
X51856838Y-59746989D01*
X51888500Y-59506488D01*
X51888500Y-59263912D01*
X51887989Y-59260034D01*
X51856838Y-59023414D01*
X51856838Y-59023411D01*
X51794054Y-58789100D01*
X51701224Y-58564988D01*
X51579936Y-58354911D01*
X51432265Y-58162462D01*
X51432260Y-58162456D01*
X51260743Y-57990939D01*
X51260736Y-57990933D01*
X51068293Y-57843267D01*
X51068292Y-57843266D01*
X51068289Y-57843264D01*
X50858212Y-57721976D01*
X50858205Y-57721973D01*
X50634104Y-57629147D01*
X50399785Y-57566361D01*
X50159289Y-57534700D01*
X50159288Y-57534700D01*
X49916712Y-57534700D01*
X49916711Y-57534700D01*
X49676214Y-57566361D01*
X49441895Y-57629147D01*
X49217794Y-57721973D01*
X49217785Y-57721977D01*
X49007706Y-57843267D01*
X48815263Y-57990933D01*
X48815256Y-57990939D01*
X48643739Y-58162456D01*
X48643733Y-58162463D01*
X48496067Y-58354906D01*
X48374777Y-58564985D01*
X48374773Y-58564994D01*
X48281947Y-58789095D01*
X48219161Y-59023414D01*
X48187500Y-59263911D01*
X44665656Y-59263911D01*
X44661626Y-56504107D01*
X44681213Y-56437040D01*
X44733950Y-56391208D01*
X44785510Y-56379927D01*
X54591116Y-56370951D01*
X54658172Y-56390574D01*
X54703975Y-56443336D01*
X54713982Y-56512486D01*
X54685015Y-56576068D01*
X54664114Y-56595269D01*
X54619209Y-56627894D01*
X54468890Y-56778213D01*
X54343951Y-56950179D01*
X54247444Y-57139585D01*
X54181753Y-57341760D01*
X54151195Y-57534700D01*
X54148500Y-57551713D01*
X54148500Y-57764287D01*
X54181754Y-57974243D01*
X54242910Y-58162462D01*
X54247444Y-58176414D01*
X54343951Y-58365820D01*
X54468890Y-58537786D01*
X54619213Y-58688109D01*
X54791179Y-58813048D01*
X54791181Y-58813049D01*
X54791184Y-58813051D01*
X54980588Y-58909557D01*
X55182757Y-58975246D01*
X55392713Y-59008500D01*
X55392714Y-59008500D01*
X55605286Y-59008500D01*
X55605287Y-59008500D01*
X55815243Y-58975246D01*
X56017412Y-58909557D01*
X56206816Y-58813051D01*
X56239789Y-58789095D01*
X56378786Y-58688109D01*
X56378788Y-58688106D01*
X56378792Y-58688104D01*
X56529104Y-58537792D01*
X56529106Y-58537788D01*
X56529109Y-58537786D01*
X56654048Y-58365820D01*
X56654047Y-58365820D01*
X56654051Y-58365816D01*
X56658514Y-58357054D01*
X56706488Y-58306259D01*
X56774308Y-58289463D01*
X56840444Y-58311999D01*
X56879486Y-58357056D01*
X56883951Y-58365820D01*
X57008890Y-58537786D01*
X57159213Y-58688109D01*
X57331179Y-58813048D01*
X57331181Y-58813049D01*
X57331184Y-58813051D01*
X57520588Y-58909557D01*
X57722757Y-58975246D01*
X57932713Y-59008500D01*
X57932714Y-59008500D01*
X58145286Y-59008500D01*
X58145287Y-59008500D01*
X58355243Y-58975246D01*
X58557412Y-58909557D01*
X58746816Y-58813051D01*
X58779789Y-58789095D01*
X58918786Y-58688109D01*
X58918788Y-58688106D01*
X58918792Y-58688104D01*
X59069104Y-58537792D01*
X59069106Y-58537788D01*
X59069109Y-58537786D01*
X59194048Y-58365820D01*
X59194047Y-58365820D01*
X59194051Y-58365816D01*
X59198514Y-58357054D01*
X59246488Y-58306259D01*
X59314308Y-58289463D01*
X59380444Y-58311999D01*
X59419486Y-58357056D01*
X59423951Y-58365820D01*
X59548890Y-58537786D01*
X59699213Y-58688109D01*
X59871179Y-58813048D01*
X59871181Y-58813049D01*
X59871184Y-58813051D01*
X60060588Y-58909557D01*
X60262757Y-58975246D01*
X60472713Y-59008500D01*
X60472714Y-59008500D01*
X60685286Y-59008500D01*
X60685287Y-59008500D01*
X60895243Y-58975246D01*
X61097412Y-58909557D01*
X61286816Y-58813051D01*
X61319789Y-58789095D01*
X61458786Y-58688109D01*
X61458788Y-58688106D01*
X61458792Y-58688104D01*
X61609104Y-58537792D01*
X61609106Y-58537788D01*
X61609109Y-58537786D01*
X61734048Y-58365820D01*
X61734047Y-58365820D01*
X61734051Y-58365816D01*
X61830557Y-58176412D01*
X61896246Y-57974243D01*
X61929500Y-57764287D01*
X61929500Y-57551713D01*
X61896246Y-57341757D01*
X61830557Y-57139588D01*
X61734051Y-56950184D01*
X61734049Y-56950181D01*
X61734048Y-56950179D01*
X61609109Y-56778213D01*
X61458792Y-56627896D01*
X61411602Y-56593611D01*
X61405209Y-56588966D01*
X61362544Y-56533637D01*
X61356565Y-56464024D01*
X61389170Y-56402228D01*
X61450009Y-56367871D01*
X61477978Y-56364648D01*
X72146295Y-56354883D01*
X72213351Y-56374506D01*
G37*
%TD.AperFunction*%
%TD*%
M02*
