%TF.GenerationSoftware,KiCad,Pcbnew,9.0.0*%
%TF.CreationDate,2025-04-16T15:55:05+03:00*%
%TF.ProjectId,power_detector,706f7765-725f-4646-9574-6563746f722e,rev?*%
%TF.SameCoordinates,Original*%
%TF.FileFunction,Soldermask,Top*%
%TF.FilePolarity,Negative*%
%FSLAX46Y46*%
G04 Gerber Fmt 4.6, Leading zero omitted, Abs format (unit mm)*
G04 Created by KiCad (PCBNEW 9.0.0) date 2025-04-16 15:55:05*
%MOMM*%
%LPD*%
G01*
G04 APERTURE LIST*
G04 Aperture macros list*
%AMRoundRect*
0 Rectangle with rounded corners*
0 $1 Rounding radius*
0 $2 $3 $4 $5 $6 $7 $8 $9 X,Y pos of 4 corners*
0 Add a 4 corners polygon primitive as box body*
4,1,4,$2,$3,$4,$5,$6,$7,$8,$9,$2,$3,0*
0 Add four circle primitives for the rounded corners*
1,1,$1+$1,$2,$3*
1,1,$1+$1,$4,$5*
1,1,$1+$1,$6,$7*
1,1,$1+$1,$8,$9*
0 Add four rect primitives between the rounded corners*
20,1,$1+$1,$2,$3,$4,$5,0*
20,1,$1+$1,$4,$5,$6,$7,0*
20,1,$1+$1,$6,$7,$8,$9,0*
20,1,$1+$1,$8,$9,$2,$3,0*%
G04 Aperture macros list end*
%ADD10RoundRect,0.102000X-2.770000X0.205000X-2.770000X-0.205000X2.770000X-0.205000X2.770000X0.205000X0*%
%ADD11RoundRect,0.102000X-2.770000X1.805000X-2.770000X-1.805000X2.770000X-1.805000X2.770000X1.805000X0*%
%ADD12RoundRect,0.140000X-0.140000X-0.170000X0.140000X-0.170000X0.140000X0.170000X-0.140000X0.170000X0*%
%ADD13RoundRect,0.135000X-0.135000X-0.185000X0.135000X-0.185000X0.135000X0.185000X-0.135000X0.185000X0*%
%ADD14RoundRect,0.250000X0.725000X-0.600000X0.725000X0.600000X-0.725000X0.600000X-0.725000X-0.600000X0*%
%ADD15O,1.950000X1.700000*%
%ADD16C,3.200000*%
%ADD17RoundRect,0.135000X0.135000X0.185000X-0.135000X0.185000X-0.135000X-0.185000X0.135000X-0.185000X0*%
%ADD18R,3.000000X3.000000*%
%ADD19C,3.000000*%
%ADD20RoundRect,0.135000X0.185000X-0.135000X0.185000X0.135000X-0.185000X0.135000X-0.185000X-0.135000X0*%
%ADD21R,0.350000X1.050000*%
%ADD22R,1.050000X0.350000*%
%ADD23R,2.250000X2.250000*%
%ADD24R,1.700000X1.700000*%
%ADD25O,1.700000X1.700000*%
G04 APERTURE END LIST*
D10*
%TO.C,J8*%
X46964600Y-87606400D03*
D11*
X46964600Y-85346400D03*
X46964600Y-89866400D03*
%TD*%
D10*
%TO.C,J5*%
X46990000Y-67336000D03*
D11*
X46990000Y-65076000D03*
X46990000Y-69596000D03*
%TD*%
D12*
%TO.C,C12*%
X55428000Y-87604600D03*
X56388000Y-87604600D03*
%TD*%
D13*
%TO.C,R5*%
X57529000Y-71160100D03*
X58549000Y-71160100D03*
%TD*%
D14*
%TO.C,J9*%
X68867800Y-90770400D03*
D15*
X68867800Y-88270400D03*
X68867800Y-85770400D03*
X68867800Y-83270400D03*
%TD*%
D16*
%TO.C,H2*%
X49987200Y-95453200D03*
%TD*%
D12*
%TO.C,C11*%
X55425400Y-88620600D03*
X56385400Y-88620600D03*
%TD*%
%TO.C,C4*%
X59819600Y-64109600D03*
X60779600Y-64109600D03*
%TD*%
D13*
%TO.C,R3*%
X56716200Y-64160400D03*
X57736200Y-64160400D03*
%TD*%
D16*
%TO.C,H3*%
X68834000Y-76860400D03*
%TD*%
D12*
%TO.C,C5*%
X59819600Y-63119000D03*
X60779600Y-63119000D03*
%TD*%
D17*
%TO.C,R9*%
X58879200Y-83286600D03*
X57859200Y-83286600D03*
%TD*%
D18*
%TO.C,J3*%
X48158400Y-74904600D03*
D19*
X48158400Y-79984600D03*
%TD*%
D20*
%TO.C,R8*%
X53848000Y-88622600D03*
X53848000Y-87602600D03*
%TD*%
D17*
%TO.C,R2*%
X58752200Y-63144400D03*
X57732200Y-63144400D03*
%TD*%
D20*
%TO.C,R1*%
X53848000Y-68328000D03*
X53848000Y-67308000D03*
%TD*%
D13*
%TO.C,R10*%
X56843200Y-84328000D03*
X57863200Y-84328000D03*
%TD*%
D12*
%TO.C,C13*%
X59845000Y-84226400D03*
X60805000Y-84226400D03*
%TD*%
D21*
%TO.C,IC1*%
X58533000Y-69485000D03*
X59183000Y-69485000D03*
X59833000Y-69485000D03*
X60483000Y-69485000D03*
D22*
X61358000Y-68610000D03*
X61358000Y-67960000D03*
X61358000Y-67310000D03*
X61358000Y-66660000D03*
D21*
X60483000Y-65785000D03*
X59833000Y-65785000D03*
X59183000Y-65785000D03*
X58533000Y-65785000D03*
D22*
X57658000Y-66660000D03*
X57658000Y-67310000D03*
X57658000Y-67960000D03*
X57658000Y-68610000D03*
D23*
X59508000Y-67635000D03*
%TD*%
D12*
%TO.C,C9*%
X59845000Y-91541600D03*
X60805000Y-91541600D03*
%TD*%
%TO.C,C2*%
X59847600Y-71145400D03*
X60807600Y-71145400D03*
%TD*%
%TO.C,C10*%
X63045400Y-90093800D03*
X64005400Y-90093800D03*
%TD*%
D14*
%TO.C,J10*%
X68859400Y-70455800D03*
D15*
X68859400Y-67955800D03*
X68859400Y-65455800D03*
X68859400Y-62955800D03*
%TD*%
D21*
%TO.C,IC2*%
X58533000Y-89775000D03*
X59183000Y-89775000D03*
X59833000Y-89775000D03*
X60483000Y-89775000D03*
D22*
X61358000Y-88900000D03*
X61358000Y-88250000D03*
X61358000Y-87600000D03*
X61358000Y-86950000D03*
D21*
X60483000Y-86075000D03*
X59833000Y-86075000D03*
X59183000Y-86075000D03*
X58533000Y-86075000D03*
D22*
X57658000Y-86950000D03*
X57658000Y-87600000D03*
X57658000Y-88250000D03*
X57658000Y-88900000D03*
D23*
X59508000Y-87925000D03*
%TD*%
D17*
%TO.C,R4*%
X58551000Y-72176100D03*
X57531000Y-72176100D03*
%TD*%
D12*
%TO.C,C14*%
X59842400Y-83312000D03*
X60802400Y-83312000D03*
%TD*%
%TO.C,C8*%
X59845000Y-92532200D03*
X60805000Y-92532200D03*
%TD*%
D16*
%TO.C,H1*%
X50038000Y-59385200D03*
%TD*%
D12*
%TO.C,C6*%
X55425400Y-68326000D03*
X56385400Y-68326000D03*
%TD*%
D17*
%TO.C,R6*%
X58523600Y-92100400D03*
X57503600Y-92100400D03*
%TD*%
D12*
%TO.C,C7*%
X62921000Y-69799200D03*
X63881000Y-69799200D03*
%TD*%
D13*
%TO.C,R7*%
X57503600Y-91084400D03*
X58523600Y-91084400D03*
%TD*%
D12*
%TO.C,C1*%
X55428000Y-67310000D03*
X56388000Y-67310000D03*
%TD*%
D24*
%TO.C,J6*%
X63236000Y-97129600D03*
D25*
X60696000Y-97129600D03*
X58156000Y-97129600D03*
X55616000Y-97129600D03*
%TD*%
D24*
%TO.C,J7*%
X63119000Y-57658000D03*
D25*
X60579000Y-57658000D03*
X58039000Y-57658000D03*
X55499000Y-57658000D03*
%TD*%
D12*
%TO.C,C3*%
X59847600Y-72136000D03*
X60807600Y-72136000D03*
%TD*%
M02*
