<svg xmlns="http://www.w3.org/2000/svg" xmlns:xlink="http://www.w3.org/1999/xlink" version="1.2" viewBox="0 0 139.043 62.722"><defs><symbol id="a" overflow="visible"><path d="M4.234-3.703c0-1.07-.062-1.774-.187-2.11-.188-.5-.617-.75-1.281-.75h-.61v5.532h.64c.626 0 1.032-.254 1.22-.766.144-.351.218-.988.218-1.906zm1.438-.281c0 .492-.012.914-.031 1.265-.012.344-.04.617-.079.813-.117.636-.355 1.101-.718 1.39C4.426-.172 3.785 0 2.922 0H.75v-7.594h2.14c1.176 0 1.958.309 2.344.922.29.48.438 1.375.438 2.688zm0 0"/></symbol><symbol id="b" overflow="visible"><path d="M.578 0v-5.297h1.297V0zm0-6.39V-7.5h1.297v1.11zm0 0"/></symbol><symbol id="c" overflow="visible"><path d="M2.86-2.547h-.235c-.688 0-1.031.324-1.031.969 0 .555.187.828.562.828.457 0 .692-.398.703-1.203zM2.937 0l-.016-.594c-.293.469-.735.703-1.328.703C.727.11.297-.42.297-1.484c0-.77.25-1.29.75-1.563.344-.187.945-.281 1.812-.281v-.266c0-.32-.023-.547-.062-.672-.086-.226-.246-.343-.485-.343-.398 0-.593.234-.593.703v.078H.437v-.094c0-1 .645-1.5 1.938-1.5.645 0 1.094.14 1.344.422.258.281.39.746.39 1.39v1.844c0 .375.004.711.016 1 .02.282.047.54.078.766zm0 0"/></symbol><symbol id="d" overflow="visible"><path d="M3.125-2.578c0-.613-.031-1.063-.094-1.344-.125-.426-.336-.64-.625-.64-.312 0-.511.183-.594.546-.074.25-.109.746-.109 1.485 0 1.117.234 1.672.703 1.672.477 0 .719-.57.719-1.72zm1.344-2.719a10.25 10.25 0 00-.032.406V.234c0 .688-.187 1.172-.562 1.454-.324.238-.84.359-1.547.359-.625 0-1.078-.11-1.36-.328C.657 1.477.5 1.062.5.469h1.375c0 .55.188.828.563.828.25 0 .425-.094.53-.281.095-.168.141-.45.141-.844v-.828a1.478 1.478 0 01-1.203.578C1.29-.078.863-.344.625-.875c-.168-.383-.25-.93-.25-1.64 0-.938.066-1.598.203-1.985.219-.613.649-.922 1.297-.922.594 0 1.02.246 1.281.734v-.609zm0 0"/></symbol><symbol id="e" overflow="visible"><path d="M3.219-4.219c-.043-.008-.086-.015-.125-.015H3c-.75 0-1.125.421-1.125 1.265V0H.562v-4.344-.562c0-.157-.007-.285-.015-.39h1.25l.016.687c.257-.52.707-.782 1.343-.782h.063zm0 0"/></symbol><symbol id="f" overflow="visible"><path d="M5.64 0v-3.64c0-.614-.187-.922-.562-.922-.45 0-.672.398-.672 1.187V0H3.11v-3.672c0-.594-.183-.89-.546-.89-.461 0-.688.398-.688 1.187V0H.578v-4.563a5.71 5.71 0 00-.015-.39c0-.125-.012-.238-.032-.344h1.297l.016.61c.289-.489.718-.735 1.281-.735.54 0 .93.246 1.172.734.375-.488.812-.734 1.312-.734.489 0 .836.156 1.047.469.188.273.282.703.282 1.297V0zm0 0"/></symbol><symbol id="h" overflow="visible"><path d="M3.11-3.172c0-.445-.028-.765-.079-.953-.105-.29-.308-.438-.61-.438-.312 0-.526.172-.64.516-.062.2-.093.496-.093.89v1.063c0 .406.03.7.093.875.094.336.305.5.64.5.302 0 .505-.156.61-.469.051-.164.078-.445.078-.843zm1.328.375c0 1.012-.11 1.715-.329 2.11-.28.542-.843.812-1.687.812C1.547.125.969-.133.687-.656.478-1.02.376-1.68.376-2.641c0-.875.113-1.52.344-1.937.32-.563.898-.844 1.734-.844.832 0 1.39.246 1.672.734.207.344.313.977.313 1.891zm0 0"/></symbol><symbol id="i" overflow="visible"><path d="M2.875-6.734a.516.516 0 00-.125-.016c-.281 0-.469.059-.563.172-.093.105-.14.312-.14.625v.656h.797v.86h-.797V0H.75v-4.438H.11v-.859h.64v-.828c0-.508.086-.883.266-1.125.218-.281.601-.422 1.156-.422.219 0 .453.012.703.031zm0 0"/></symbol><symbol id="j" overflow="visible"><path d="M5.047-1.953C5.047-.555 4.254.14 2.672.14 1.797.14 1.187-.035.844-.391.5-.754.328-1.359.328-2.203v-.078H1.75v.094c0 .406.05.703.156.89.125.281.38.422.766.422.633 0 .953-.32.953-.969 0-.32-.148-.61-.438-.86-.062-.05-.39-.265-.984-.64a12.24 12.24 0 01-.797-.515 4.635 4.635 0 01-.453-.391C.61-4.645.438-5.129.438-5.703c0-1.352.78-2.031 2.343-2.031.719 0 1.25.14 1.594.421.383.325.578.829.578 1.516v.297H3.547v-.188c0-.675-.277-1.015-.828-1.015-.586 0-.875.297-.875.89 0 .336.172.637.515.907.188.117.364.23.532.343.175.106.359.215.546.329.602.398.989.695 1.157.89.3.344.453.809.453 1.39zm0 0"/></symbol><symbol id="k" overflow="visible"><path d="M3.266-2.734c0-.625-.04-1.055-.11-1.297-.086-.364-.273-.547-.562-.547-.313 0-.524.219-.625.656-.074.262-.11.711-.11 1.344 0 1.23.243 1.844.735 1.844.445 0 .672-.664.672-2zm1.312.046c0 .907-.078 1.56-.234 1.954-.242.562-.672.843-1.297.843-.543 0-.934-.191-1.172-.578v2.485H.578v-6.063c0-.664-.012-1.082-.031-1.25h1.265l.016.563c.3-.457.742-.688 1.328-.688.614 0 1.024.266 1.235.797.125.344.187.992.187 1.938zm0 0"/></symbol><symbol id="l" overflow="visible"><path d="M2.984-3.219c0-.344-.011-.586-.03-.734-.063-.406-.263-.61-.595-.61-.367 0-.578.231-.64.688-.024.094-.04.2-.047.313v.343zM1.672-2.5v.469c0 .469.047.808.14 1.015.102.2.282.297.532.297C2.78-.719 3-1.063 3-1.75h1.234c-.03.656-.199 1.137-.5 1.438-.293.292-.757.437-1.39.437C1.52.125.96-.145.672-.688c-.2-.363-.297-1-.297-1.906 0-.883.113-1.535.344-1.953.312-.582.879-.875 1.703-.875.82 0 1.36.297 1.61.89.155.345.234 1.024.234 2.032zm0 0"/></symbol><symbol id="m" overflow="visible"><path d="M2.984.016c-.105.007-.218.02-.343.03a5.71 5.71 0 01-.391.017c-.555 0-.938-.098-1.156-.297C.883-.43.78-.816.78-1.391v-3.046H.078v-.86h.703v-.89l1.297-.547v1.437h.828v.86h-.828v2.859c0 .273.031.453.094.547.07.125.223.187.453.187.07-.008.191-.02.36-.031zm0 0"/></symbol><symbol id="n" overflow="visible"><path d="M3.219 0v-3.547c0-.351-.028-.586-.078-.703-.086-.207-.262-.313-.532-.313-.23 0-.414.11-.546.329-.126.218-.188.48-.188.78V0H.578v-4.438a8.02 8.02 0 00-.015-.468c0-.145-.012-.274-.032-.39h1.313l.015.593c.332-.477.766-.719 1.297-.719.508 0 .867.137 1.078.406.188.25.282.657.282 1.22V0zm0 0"/></symbol><symbol id="o" overflow="visible"><path d="M3.11-1.953c0 .625-.055 1.078-.157 1.36-.18.429-.512.64-1 .64-.375 0-.664-.14-.86-.422v1.813H.5v-4.344c0-.426-.012-.719-.031-.875h.594v.453c.207-.352.519-.531.937-.531.457 0 .773.203.953.609.102.273.156.703.156 1.297zM2.5-1.97c0-.437-.027-.754-.078-.953-.106-.32-.305-.484-.594-.484-.293 0-.5.164-.625.484-.086.242-.125.594-.125 1.063 0 .468.031.796.094.984.101.336.32.5.656.5.3 0 .504-.191.61-.578.039-.207.062-.547.062-1.016zm0 0"/></symbol><symbol id="p" overflow="visible"><path d="M2.984-1.906c0 .687-.078 1.172-.234 1.453-.2.355-.563.531-1.094.531C1.113.078.75-.098.563-.453.425-.711.359-1.18.359-1.86c0-.645.07-1.114.22-1.407.194-.394.57-.593 1.124-.593.54 0 .906.183 1.094.546.125.25.187.72.187 1.407zm-.609.406v-.578c0-.438-.027-.738-.078-.906-.094-.301-.297-.454-.61-.454-.324 0-.539.165-.64.485-.063.18-.094.476-.094.89v.532c0 .367.031.625.094.781.101.262.312.39.625.39.289 0 .488-.124.594-.374.07-.164.109-.422.109-.766zm0 0"/></symbol><symbol id="q" overflow="visible"><path d="M2.078-3.281c-.062-.008-.105-.016-.125-.016-.293 0-.512.09-.656.266-.137.168-.203.398-.203.687V0H.5v-3.094c0-.25-.012-.476-.031-.687h.594v.5c.195-.383.515-.578.953-.578.039 0 .062.195.062.578zm0 0"/></symbol><symbol id="r" overflow="visible"><path d="M1.969 0c-.188.02-.336.031-.438.031-.343 0-.578-.07-.703-.218C.723-.314.672-.551.672-.907v-2.437H.109v-.437h.563v-.703l.594-.25v.953h.671v.437h-.671v2.375c0 .211.03.352.093.422.063.074.172.11.329.11.03 0 .125-.008.28-.032zm0 0"/></symbol><symbol id="t" overflow="visible"><path d="M2.266 0h-.61v-4.578c-.23.242-.523.476-.875.703v-.64c.375-.239.688-.508.938-.813h.547zm0 0"/></symbol><symbol id="u" overflow="visible"><path d="M3-4.203c0 .43-.188.93-.563 1.5L.97-.484H3V0H.312v-.547l1.75-2.703c.196-.313.297-.645.297-1 0-.457-.226-.688-.671-.688-.481 0-.72.31-.72.922H.36c0-.062.004-.148.016-.265.07-.758.52-1.14 1.344-1.14C2.57-5.422 3-5.017 3-4.204zm0 0"/></symbol><symbol id="v" overflow="visible"><path d="M3.328-1.328c0 .469-.137.824-.406 1.062-.262.243-.621.36-1.078.36C1.3.094.91-.031.672-.281.442-.531.328-.926.328-1.47v-.047h.656v.047c0 .344.051.594.157.75.132.211.367.313.703.313.539 0 .812-.29.812-.875 0-.29-.094-.535-.281-.735-.086-.082-.305-.226-.656-.437-.48-.3-.793-.531-.938-.688-.261-.27-.39-.613-.39-1.03 0-.438.14-.774.421-1.016.258-.227.614-.344 1.063-.344.938 0 1.406.437 1.406 1.312v.188h-.656v-.125c0-.282-.047-.489-.14-.625-.126-.157-.337-.235-.626-.235-.25 0-.449.075-.593.22-.137.148-.204.343-.204.593 0 .305.114.558.344.766.02.023.274.187.766.5.437.273.707.468.812.593.227.25.344.59.344 1.016zm0 0"/></symbol><symbol id="w" overflow="visible"><path d="M1.75-2.453c0 .25-.11.543-.328.875L.562-.281H1.75V0H.187v-.313L1.204-1.89c.113-.187.172-.382.172-.593 0-.27-.133-.407-.39-.407-.282 0-.422.184-.422.547h-.36c0-.031.004-.082.016-.156.039-.438.3-.656.781-.656.5 0 .75.234.75.703zm0 0"/></symbol><symbol id="x" overflow="visible"><path d="M1.328 0h-.36v-2.672a2.326 2.326 0 01-.515.406v-.375A2.14 2.14 0 001-3.109h.328zm0 0"/></symbol></defs><g fill="#113870" transform="translate(-28.433 -23.774)"><use height="100%" width="100%" y="31.508" x="28.347" xlink:href="#a"/><use height="100%" width="100%" y="31.508" x="34.489" xlink:href="#b"/><use height="100%" width="100%" y="31.508" x="36.946" xlink:href="#c"/><use height="100%" width="100%" y="31.508" x="41.608" xlink:href="#d"/><use height="100%" width="100%" y="31.508" x="46.617" xlink:href="#e"/></g><g fill="#113870" transform="translate(-28.433 -23.774)"><use height="100%" width="100%" y="31.508" x="49.777" xlink:href="#c"/><use height="100%" width="100%" y="31.508" x="54.439" xlink:href="#f"/><use height="100%" width="100%" y="31.508" x="61.957" xlink:href="#g"/><use height="100%" width="100%" y="31.508" x="64.435" xlink:href="#h"/><use height="100%" width="100%" y="31.508" x="69.244" xlink:href="#i"/><use height="100%" width="100%" y="31.508" x="72.142" xlink:href="#g"/><use height="100%" width="100%" y="31.508" x="74.62" xlink:href="#j"/><use height="100%" width="100%" y="31.508" x="79.965" xlink:href="#g"/><use height="100%" width="100%" y="31.508" x="82.443" xlink:href="#k"/><use height="100%" width="100%" y="31.508" x="87.399" xlink:href="#c"/><use height="100%" width="100%" y="31.508" x="92.061" xlink:href="#e"/></g><g fill="#113870" transform="translate(-28.433 -23.774)"><use height="100%" width="100%" y="31.508" x="95.221" xlink:href="#c"/><use height="100%" width="100%" y="31.508" x="99.883" xlink:href="#f"/><use height="100%" width="100%" y="31.508" x="107.401" xlink:href="#l"/><use height="100%" width="100%" y="31.508" x="112.011" xlink:href="#m"/><use height="100%" width="100%" y="31.508" x="115.087" xlink:href="#l"/><use height="100%" width="100%" y="31.508" x="119.697" xlink:href="#e"/><use height="100%" width="100%" y="31.508" x="122.983" xlink:href="#g"/><use height="100%" width="100%" y="31.508" x="125.461" xlink:href="#n"/><use height="100%" width="100%" y="31.508" x="130.554" xlink:href="#c"/><use height="100%" width="100%" y="31.508" x="135.216" xlink:href="#f"/><use height="100%" width="100%" y="31.508" x="142.734" xlink:href="#b"/><use height="100%" width="100%" y="31.508" x="145.191" xlink:href="#n"/><use height="100%" width="100%" y="31.508" x="150.283" xlink:href="#d"/></g><g fill="#211e1e" transform="translate(-28.433 -23.774)"><use height="100%" width="100%" y="70.478" x="73.053" xlink:href="#o"/><use height="100%" width="100%" y="70.478" x="76.518" xlink:href="#p"/><use height="100%" width="100%" y="70.478" x="79.856" xlink:href="#q"/><use height="100%" width="100%" y="70.478" x="82.031" xlink:href="#r"/><use height="100%" width="100%" y="70.478" x="84.123" xlink:href="#s"/><use height="100%" width="100%" y="70.478" x="85.818" xlink:href="#t"/></g><g fill="#211e1e" transform="translate(-28.433 -23.774)"><use height="100%" width="100%" y="70.478" x="106.586" xlink:href="#o"/><use height="100%" width="100%" y="70.478" x="110.051" xlink:href="#p"/><use height="100%" width="100%" y="70.478" x="113.388" xlink:href="#q"/><use height="100%" width="100%" y="70.478" x="115.563" xlink:href="#r"/><use height="100%" width="100%" y="70.478" x="117.656" xlink:href="#s"/><use height="100%" width="100%" y="70.478" x="119.351" xlink:href="#u"/></g><use height="100%" width="100%" y="70.478" x="160.526" xlink:href="#v" fill="#211e1e" transform="translate(-28.433 -23.774)"/><g fill="#211e1e" transform="translate(-28.433 -23.774)"><use height="100%" width="100%" y="72.975" x="164.171" xlink:href="#w"/><use height="100%" width="100%" y="72.975" x="166.147" xlink:href="#x"/></g><use height="100%" width="100%" y="70.478" x="28.105" xlink:href="#v" fill="#211e1e" transform="translate(-28.433 -23.774)"/><g fill="#211e1e" transform="translate(-28.433 -23.774)"><use height="100%" width="100%" y="72.975" x="31.75" xlink:href="#x"/><use height="100%" width="100%" y="72.975" x="33.726" xlink:href="#x"/></g><path d="M96.044 62.472H43.325V26.077h52.719zm0 0" fill="none" stroke="#211e1e" stroke-width=".5" stroke-linecap="round" stroke-linejoin="round" stroke-miterlimit="10"/><path d="M100.423 58.511l-4.38 3.965V26.077l4.38-3.964zm0 0" fill="none" stroke="#211e1e" stroke-width=".5" stroke-linecap="round" stroke-linejoin="round" stroke-miterlimit="10"/><path d="M96.044 26.077H43.325l4.38-3.964h52.718zm0 0" fill="none" stroke="#211e1e" stroke-width=".5" stroke-linecap="round" stroke-linejoin="round" stroke-miterlimit="10"/><path d="M9.106 44.277h29.196" fill="none" stroke="#113870" stroke-width="2" stroke-miterlimit="10"/><path d="M37.282 47.765l6.043-3.488-6.043-3.493zm0 0" fill="#113870"/><path d="M98.231 44.277h27.196" fill="none" stroke="#113870" stroke-width="2" stroke-miterlimit="10"/><path d="M124.407 47.765l6.043-3.488-6.043-3.493zm0 0" fill="#113870"/><path d="M25.731 50.972H13.4" fill="none" stroke="#113870" stroke-width="2" stroke-miterlimit="10"/><path d="M14.423 47.48l-6.047 3.492 6.047 3.492zm0 0" fill="#113870"/><path d="M25.731 44.277a3.347 3.347 0 110 6.695" fill="none" stroke="#113870" stroke-width="2" stroke-miterlimit="10"/></svg>